<?xml version="1.0" encoding="utf-8"?>
<!-- Generator: Adobe Illustrator 15.1.0, SVG Export Plug-In . SVG Version: 6.00 Build 0)  -->
<!DOCTYPE svg PUBLIC "-//W3C//DTD SVG 1.1//EN" "http://www.w3.org/Graphics/SVG/1.1/DTD/svg11.dtd">
<svg version="1.1" id="Layer_1" xmlns="http://www.w3.org/2000/svg" xmlns:xlink="http://www.w3.org/1999/xlink" x="0px" y="0px"
	 width="400px" height="200px" viewBox="0 0 400 200" enable-background="new 0 0 400 200" xml:space="preserve">
<g>
	
		<radialGradient id="SVGID_1_" cx="-128.8154" cy="24077.8145" r="203.2801" gradientTransform="matrix(0.8935 0 0 0.0243 -80.1899 -414.702)" gradientUnits="userSpaceOnUse">
		<stop  offset="0" style="stop-color:#C3B5A9"/>
		<stop  offset="0.3034" style="stop-color:#D3C8BF"/>
		<stop  offset="0.9344" style="stop-color:#FBFAF9"/>
		<stop  offset="1" style="stop-color:#FFFFFF"/>
	</radialGradient>
	<path fill="url(#SVGID_1_)" d="M-13.559,170.466c0,2.732-81.366,4.938-181.726,4.938c-100.356,0-181.725-2.207-181.725-4.938
		c0-2.73,81.366-4.938,181.725-4.938c100.358,0,181.726,2.216,181.726,4.941V170.466z"/>
	<path fill="#FFFFFF" stroke="#EC1C24" stroke-width="0.1855" d="M-320.255,99.802c-9.721,3.753-16.658,20.298-19.842,24.677
		c-1.08,1.484-2.731,3.729-4.579,6.289l-4.235-1.06c0,0,1.535-0.796,1.65-1.479c0.111-0.682-0.341-1.535,0.111-2.5
		c0.456-0.968,3.866-7.164,5.232-11.543c1.363-4.377,4.093-13.02,8.925-18.364c0.789-0.871,1.628-1.765,2.494-2.663
		c0.185,1.142,0.792,3.442,0.905,3.831c0.136,0.46,0.819,0.299,0.667-0.542c-0.083-0.23-0.071-0.458-0.393-1.646
		c-0.215-0.798-0.451-1.726-0.584-2.257c0.141-0.146,0.285-0.29,0.426-0.435c0.173,1.114,0.802,3.502,0.918,3.898
		c0.136,0.462,0.818,0.299,0.669-0.543c-0.085-0.229-0.075-0.457-0.395-1.645c-0.222-0.823-0.47-1.794-0.598-2.312
		c0.144-0.143,0.288-0.29,0.432-0.432c0.16,1.089,0.807,3.55,0.926,3.953c0.135,0.46,0.82,0.299,0.671-0.542
		c-0.085-0.231-0.076-0.458-0.396-1.646c-0.229-0.847-0.483-1.85-0.609-2.356c0.146-0.144,0.291-0.29,0.438-0.434
		c0.148,1.065,0.812,3.589,0.933,3.998c0.135,0.462,0.819,0.299,0.669-0.542c-0.083-0.231-0.074-0.458-0.396-1.646
		c-0.234-0.868-0.493-1.893-0.616-2.389c0.147-0.144,0.295-0.288,0.443-0.431c0.139,1.046,0.814,3.614,0.937,4.026
		c0.135,0.46,0.819,0.299,0.667-0.542c-0.082-0.231-0.073-0.458-0.395-1.647c-0.237-0.878-0.5-1.922-0.621-2.408
		c0.149-0.144,0.297-0.288,0.445-0.431c0.133,1.033,0.814,3.631,0.938,4.046c0.135,0.461,0.818,0.3,0.667-0.541
		c-0.083-0.231-0.073-0.458-0.396-1.648c-0.238-0.883-0.505-1.938-0.625-2.419c0.152-0.144,0.3-0.285,0.449-0.424
		c0.129,1.024,0.816,3.637,0.939,4.054c0.136,0.46,0.819,0.299,0.667-0.542c-0.082-0.231-0.073-0.458-0.395-1.647
		c-0.238-0.889-0.506-1.945-0.625-2.424c2.113-2.003,3.968-3.705,5.128-4.771c0,0,0.169,3.127,1.137,4.663
		c0.966,1.537,1.933,3.356,2.272,4.037c0.333,0.667,1.148,2.81-1.366,7.952c-1.038,0.372-2.246,0.852-3.671,1.394L-320.255,99.802z"
		/>
	<path fill="#FFFFFF" stroke="#EC1C24" stroke-width="0.1855" d="M-76.184,95.821c-22.287,0-42.866,15.92-49.691,46.167
		c0.111,0.682,0.339,0.682,0.625,0.854c1.819,1.591,3.524,2.5,3.413,6.764h10.858c0,0,3.126-0.965,3.811-3.125
		c0.682-2.161,2.954-14.729,6.764-21.437c3.811-6.707,13.189-17.852,27.858-17.852c14.668,0,23.992,11.198,33.83,25.698
		c2.672,3.924,5.173,5.971,5.401,7.448c0.339,1.137,0.909,0.909,1.192,0.798c0.287-0.113,1.707-0.798,1.194-2.274
		c-0.514-1.478-2.957-8.982-3.753-11.087c-0.795-2.104-2.389-9.098-2.389-11.714c0-2.614-2.389-9.038-3.922-10.689
		c-1.535-1.647-2.161-1.989-4.15-3.013c-1.998-1.022-15.257-6.537-31.057-6.537L-76.184,95.821z"/>
	<path fill="#FFFFFF" stroke="#EC1C24" stroke-width="0.1855" d="M-63.684,96.905c-8.02-3.959-19.41-6.507-26.423-7.677
		c-8.188-1.363-17.742-2.444-31.271-2.672c-1.535-1.135-3.299-3.183-4.094-4.605c-0.798-1.422,0-3.639,0.965-6.198
		c0,0,7.505,0.513,12.794,0.967c22.059,1.818,33.658,5.344,43.494,9.323c9.838,3.979,17.169,10.234,19.5,12.68
		c1.348,1.411,2.178,2.517,2.644,3.202c-2.586-1.146-9.139-3.609-17.612-5.034L-63.684,96.905z"/>
	<path fill="#FFFFFF" stroke="#EC1C24" stroke-width="0.1855" d="M-315.237,88.696c-2.352-3.487-2.2-4.244-3.109-7.125
		c0,0,4.927-5.836,6.444-7.353c0.456,1.535,1.289,2.653,2.35,3.64c1.063,0.985,2.731,0.38,3.564,0.152
		c0.833-0.226,3.638-2.579,6.518-5.077c2.881-2.503,15.465-13.875,18.118-16.148c2.652-2.275,2.122-4.397,2.045-4.777
		c-0.076-0.379-0.53-0.987,0.305-1.439c23.425-12.434,52.687-14.404,74.518-13.873c21.833,0.53,34.341,2.274,52.458,7.96
		c0.985,0.454,1.44,0.53,2.35,2.426c0.911,1.896,8.642,14.48,10.083,17.133c1.208,2.228,6.479,10.553,7.703,12.481
		c-0.042,0.019-0.065,0.028-0.065,0.028l-1.895,1.284c-1.82-3.034-7.685-12.804-9.912-16.37
		c-2.655-4.246-8.036-10.081-21.377-12.432c-13.341-2.35-37.146-2.273-48.365-2.273s-22.97,0.757-40.177,5.23
		c-17.208,4.474-33.204,16.981-37.903,21.072c-4.7,4.096-15.313,14.102-24.258,24.638c0.712-1.301,2.912-5.685,0.573-9.186
		L-315.237,88.696z"/>
	<path fill="#FFFFFF" stroke="#EC1C24" stroke-width="0.1855" d="M-340.113,124.477c3.185-4.38,10.121-20.923,19.842-24.676
		c1.719-0.663,3.134-1.211,4.309-1.667c-0.017,0.026-0.031,0.051-0.045,0.076c1.478-0.568,10.081-3.296,16.678-3.45
		c12.203-0.681,23.802,1.231,31.251,6.69c7.088,5.195,18.763,15.181,20.978,41.296h0.099c-0.029,0.451-0.113,1.417-0.327,1.97
		c-0.285,0.74-1.479,2.558-0.115,3.979c0.285,0.396,0.17,0.625-0.113,0.682c-1.82,0.227-3.694,0.965-6.312,0.057
		c-2.616-0.91-3.127-4.719-3.581-7.278c-0.454-2.558-1.877-10.119-4.208-14.384c-2.33-4.264-11.253-17.339-29.394-17.339
		c-20.239,0-27.347,13.758-32.235,21.944c-4.889,8.188-12.338,13.874-28.825,13.703l-2.9-0.057
		c3.594-6.181,11.726-17.163,14.901-21.547H-340.113z"/>
	<path fill="#FFFFFF" stroke="#EC1C24" stroke-width="0.1855" d="M-315.996,98.222c1.478-0.569,10.081-3.296,16.678-3.45
		c12.203-0.682,23.801,1.231,31.25,6.69c7.088,5.195,18.763,15.182,20.978,41.295h34.113l-0.603-95.819
		c-11.198,0.002-22.934,0.767-40.106,5.231c-17.208,4.474-33.204,16.981-37.903,21.072c-4.668,4.068-15.177,13.973-24.085,24.437
		c-0.108,0.17-0.217,0.341-0.325,0.542L-315.996,98.222z M-277.875,69.907c1.972-2.729,5.762-8.262,20.848-13.795
		c15.085-5.535,31.459-6.218,35.855-6.218c3.259,0,5.307,2.122,5.307,4.853v24.484c0,2.957-2.272,4.396-4.851,4.396
		c-2.579,0-40.707,0.909-48.517,0.835c-7.807-0.078-9.246-4.018-10.081-5.99c-0.836-1.983-0.542-5.84,1.425-8.566H-277.875z"/>
	<path fill="#FFFFFF" stroke="#EC1C24" stroke-width="0.1855" d="M-134.146,78.209l2.179-1.479c0,0,1.309-0.513,3.07-1.478
		c0,0,1.42,0.17,3.809,0.454c-0.796,1.763-1.366,4.263-1.308,5.287c0.056,1.024,2.045,3.809,4.548,6.14
		c1.307,0.058,15.18,0.398,29.565,2.446c11.702,1.665,21.823,5.474,25.191,6.839c-2.887-0.363-5.943-0.584-9.102-0.584
		c-22.259,0-42.813,15.879-49.663,46.051h-2.7c0,0,0.395-37.637,0.682-54.694c-0.016,0.015-4.399-6.072-6.289-8.969L-134.146,78.209
		z"/>
	<path fill="#231F20" d="M-323.292,86.512c0,0-6.546,6.394-7.579,7.39s-0.423,2.986-0.423,2.986l2.681,1.151l5.629-2.452l1.8-5.32
		l-2.107-3.764L-323.292,86.512z"/>
	<polygon fill="#231F20" points="-317.669,81.57 -319.187,82.794 -318.428,87.643 -316.151,91.577 -316.91,96.131 -318.428,100.22 
		-314.633,100.22 -312.355,96.735 -311.906,90.973 -312.666,85.21 	"/>
	<path fill="#231F20" d="M-111.206,148.595c0,0,3.866,6.368,12.393,8.982c8.53,2.614,38.889-0.456,38.889-0.456l13.078-14.781
		c0,0,4.15-0.454,5.118-0.055c0.965,0.396,1.363,1.932,1.933,2.615c0.567,0.684,0.739,1.023,1.08,1.08
		c0.339,0.057,0.854-1.421,1.08-1.934c0.228-0.512,0.454-2.104,0.966-2.387c0.513-0.285,3.072-1.082,3.694-1.082
		c0.626,0,0.228-1.309,0.228-1.309l-2.672-3.525l-9.834-15.123l-9.326-10.802l-21.15-6.027l-17.283,4.548l-12.054,16.033
		l-7.334,17.512l1.208,6.676L-111.206,148.595z"/>
	<path fill="#231F20" d="M-254.75,147.371c0,0-2.653,3.79-3.791,5.002c-1.137,1.214-2.803,2.957-5.457,4.17
		c-2.652,1.212-53.824-6.745-53.824-6.745s-5.685,0-6.82-0.153c-1.139-0.153-2.199-1.287-2.807-2.197
		c-0.605-0.91-1.135-1.743-2.272-1.743c-1.139,0-3.185-0.608-3.412,0c-0.227,0.605-0.531,1.743-1.063,1.591
		c-0.53-0.152,0.91-1.441-1.137-1.591c-2.046-0.153-4.927-0.304-5.533-0.304c-0.605,0-1.896,1.363-3.108,1.895
		c-1.213,0.531-0.682,1.439-4.018,1.211c-3.335-0.226-4.472-3.105-4.472-3.105l8.945-2.275l9.932-4.246l8.87-11.371l6.518-7.353
		l12.054-9.325l9.929-3.259l16.602,2.728l9.705,3.562l9.173,9.856l5.533,9.931l1.211,10.611l-0.743,3.129L-254.75,147.371z"/>
	<path fill="#231F20" d="M-128.075,141.392l3.336,0.077l2.881,3.715l0.454,4.017c0,0-0.985,0.831-1.897,0.911
		c-36.006-0.227-125.003-1.062-125.003-1.062l-0.605-3.488l0.986-1.744l-0.015-1.933l2.969-1.252l37.979-1.439l38.055-1.744
		l36.692,3.033l2.272,0.607l0.228,0.379l1.657-0.062L-128.075,141.392z"/>
	<polygon points="-127.083,138.434 -127.688,143.127 -215.173,143.281 -240.499,118.715 -283.405,79.604 -275.521,63.835 
		-265.825,58.228 -253.681,53.674 -233.978,49.29 -215.777,48.221 -212.896,44.426 -172.886,45.65 -153.323,50.808 -145.888,56.26 
		-131.343,79.309 -125.581,87.643 -124.512,120.853 	"/>
	<polygon fill="#231F20" points="-344.543,122.324 -346.929,122.324 -351.483,122.896 -357.043,123.346 -362.047,125.391 
		-360.343,128.799 -353.744,130.734 -346.696,129.82 -345.101,127.436 	"/>
	
		<linearGradient id="SVGID_2_" gradientUnits="userSpaceOnUse" x1="-1534.1094" y1="928.7461" x2="-1534.1094" y2="906.3867" gradientTransform="matrix(-0.2423 0 0 0.2423 -728.9545 -77.8535)">
		<stop  offset="0.191" style="stop-color:#626366"/>
		<stop  offset="1" style="stop-color:#BBBDBF"/>
	</linearGradient>
	<path fill="url(#SVGID_2_)" stroke="#FFFFFF" stroke-width="0.1855" d="M-355.417,141.764c0,0-4.929,0.035-5.799,0.035
		s-2.198,0.455-1.291,1.744c0.911,1.289,2.275,3.602,2.275,3.602s0.606,0.037,0.833,0.037c0.226,0,4.585-0.15,4.814-0.15
		c0.227,0,0.188-1.063,0.227-1.176c0.035-0.114,2.236-0.529,2.236-0.529l0.454-1.934l-3.764-1.626L-355.417,141.764z"/>
	<path fill="#0F00E7" stroke="#FFFFFF" stroke-width="0.1855" d="M-355.076,137.441c0,0-1.099,5.799-0.568,6.975
		c0.531,1.176,1.857,1.176,1.857,1.176l5.003-6.938l-6.289-1.208L-355.076,137.441z"/>
	<polygon fill="#231F20" points="-37.258,121.069 -24.82,124.555 -23.612,126.305 -26.648,127.141 -33.618,130.239 -35.369,129.79 	
		"/>
	<polygon fill="#231F20" points="-124.218,76.041 -125.457,80.548 -121.182,85.938 -103.973,86.698 -81.574,89.656 -62.615,96.44 
		-63.56,97.618 -67.773,97.23 -85.85,91.624 -110.106,88.851 -122.545,87.983 -127.161,82.934 -127.052,78.287 -125.689,75.932 	"/>
	<path fill="#231F20" d="M-205.012,83.553c-0.407,0.003-0.625,0.003-0.625,0.003s0.217,0,0.62,0L-205.012,83.553z M-208.017,83.026
		c-0.076-0.037-0.15-0.083-0.225-0.127v0.008c0.062,0.046,0.14,0.093,0.217,0.124L-208.017,83.026z M-210.077,54.665v24.788
		c0,1.887,0.871,2.898,1.839,3.448c-0.005-0.1-0.019-0.194-0.019-0.302V58.494c0-2.874,1.592-3.925,3.583-3.925
		c1.989,0,18.162-0.11,25.228,0.665c7.065,0.774,14.579,2.32,19.506,4.588c4.927,2.266,6.619,5.749,7.415,7.188
		c0.796,1.436,5.175,9.342,5.871,10.779c0.697,1.439,1.145,2.709,1.145,4.091c0,0.398-0.034,0.888-0.144,1.389
		c1.341-0.003,2.268-0.006,2.666-0.006c4.037,0,4.607-2.957,4.607-4.548c0-1.422-0.513-2.731-1.309-4.208
		c-0.796-1.478-5.798-9.608-6.708-11.086c-0.909-1.479-2.842-5.061-8.471-7.392c-5.627-2.33-14.213-3.923-22.288-4.718
		c-8.073-0.798-26.549-0.683-28.825-0.683c-2.292,0-4.104,1.084-4.104,4.042L-210.077,54.665z M-206.143,83.522
		c-0.305-0.028-0.722-0.09-1.168-0.227c0.434,0.155,0.852,0.217,1.162,0.232L-206.143,83.522z"/>
	<path fill="#231F20" d="M-279.301,78.473c0.835,1.97,2.274,5.913,10.081,5.99c7.81,0.075,45.938-0.835,48.517-0.835
		s4.852-1.439,4.852-4.396V54.742c0-2.73-2.048-4.853-5.307-4.853c-4.396,0-20.772,0.683-35.856,6.217
		c-15.085,5.533-18.875,11.066-20.848,13.795c-1.967,2.726-2.261,6.583-1.425,8.565L-279.301,78.473z M-266.32,71.177
		c1.701-2.229,4.972-6.75,17.923-11.222c12.763-4.408,26.572-4.944,30.577-4.938l0.066,11.781c0,4.548,0.076,12.13,0.076,12.13
		s-0.051,1.844-1.323,2.542c-8.366,0.174-34.192,0.858-39.979,0.774c-6.692-0.097-7.908-2.427-8.614-4.047
		c-0.712-1.626-0.434-4.786,1.271-7.017L-266.32,71.177z"/>
	
		<linearGradient id="SVGID_3_" gradientUnits="userSpaceOnUse" x1="-1804.1021" y1="599.0352" x2="-1778.2721" y2="573.1416" gradientTransform="matrix(-0.2423 0 0 0.2423 -728.9545 -77.8535)">
		<stop  offset="0.0281" style="stop-color:#BBBDBF"/>
		<stop  offset="1" style="stop-color:#FFFFFF"/>
	</linearGradient>
	<path fill="url(#SVGID_3_)" stroke="#231F20" stroke-width="0.1855" d="M-279.316,52.016c0.076,0.379,0.607,2.501-2.044,4.777
		c-2.653,2.274-15.237,13.645-18.118,16.148c-2.881,2.5-5.685,4.851-6.518,5.077c-0.833,0.228-2.502,0.833-3.564-0.151
		c-0.948-0.883-1.713-1.872-2.191-3.169c4.662-4.639,12.698-11.008,17.864-14.343c4.746-3.064,12.785-8.09,14.382-9.089
		c0.016,0.294,0.17,0.573,0.202,0.774L-279.316,52.016z"/>
	<path fill="#231F20" d="M-310.652,74.91c0.386,0.814,0.937,1.555,1.723,2.285c0.588,0.548,1.71,0.226,2.45,0.014l0.25-0.073
		c0.386-0.121,1.768-1.067,6.167-4.887l8.392-7.486c4.085-3.662,8.311-7.449,9.731-8.665c0.864-0.742,1.818-1.871,1.818-3.248
		c0-0.037-0.011-0.076-0.011-0.115l-0.371-0.841c0.442-0.276,0.79-0.493,1.01-0.632c0.001,0.277,0.15,0.547,0.19,0.75
		c0.076,0.379,0.607,2.501-2.044,4.777c-2.654,2.274-15.237,13.645-18.119,16.148c-2.881,2.5-5.685,4.852-6.518,5.078
		c-0.833,0.228-2.501,0.833-3.564-0.152c-0.948-0.883-1.713-1.871-2.192-3.169c0.22-0.219,0.452-0.443,0.685-0.666
		c0.155,0.325,0.31,0.635,0.434,0.898L-310.652,74.91z"/>
	
		<radialGradient id="SVGID_4_" cx="-2702.6201" cy="913.9277" r="116.3872" gradientTransform="matrix(-0.2423 0 0 0.2423 -728.9545 -77.8535)" gradientUnits="userSpaceOnUse">
		<stop  offset="0" style="stop-color:#FFFFFF"/>
		<stop  offset="1" style="stop-color:#000000"/>
	</radialGradient>
	<circle fill="url(#SVGID_4_)" cx="-74.108" cy="143.591" r="28.201"/>
	
		<radialGradient id="SVGID_5_" cx="-2702.6182" cy="913.9238" r="96.9917" gradientTransform="matrix(-0.2423 0 0 0.2423 -728.9545 -77.8535)" gradientUnits="userSpaceOnUse">
		<stop  offset="0.8483" style="stop-color:#FFFFFF"/>
		<stop  offset="1" style="stop-color:#BBBDBF"/>
	</radialGradient>
	<circle fill="url(#SVGID_5_)" cx="-74.108" cy="143.591" r="23.501"/>
	
		<radialGradient id="SVGID_6_" cx="-2702.6826" cy="913.9258" r="78.2163" gradientTransform="matrix(-0.2423 0 0 0.2423 -728.9545 -77.8535)" gradientUnits="userSpaceOnUse">
		<stop  offset="0.8146" style="stop-color:#626366"/>
		<stop  offset="1" style="stop-color:#BBBDBF"/>
	</radialGradient>
	<circle fill="url(#SVGID_6_)" cx="-74.093" cy="143.591" r="18.952"/>
	<circle fill="#231F20" cx="-74.108" cy="143.592" r="14.523"/>
	
		<radialGradient id="SVGID_7_" cx="-2702.6475" cy="913.9238" r="62.8911" gradientTransform="matrix(-0.2423 0 0 0.2423 -728.9545 -77.8535)" gradientUnits="userSpaceOnUse">
		<stop  offset="0.8202" style="stop-color:#8A8C8F"/>
		<stop  offset="1" style="stop-color:#626366"/>
	</radialGradient>
	<path fill="url(#SVGID_7_)" d="M-89.335,143.592c0,8.415,6.82,15.236,15.236,15.236c8.414,0,15.237-6.821,15.237-15.236
		c0-8.416-6.823-15.238-15.237-15.238c-8.426,0-15.242,6.816-15.242,15.242L-89.335,143.592z M-61.004,141.764
		c-0.46,0.138-0.988-0.256-1.179-0.881l-0.623-2.068c-0.19-0.626,0.031-1.246,0.491-1.385s0.988,0.254,1.179,0.88l0.623,2.067
		c0.186,0.604-0.031,1.225-0.496,1.363L-61.004,141.764z M-63.761,150.113l1.021-1.906c0.308-0.576,0.903-0.856,1.327-0.631
		c0.423,0.229,0.519,0.877,0.208,1.453l-1.018,1.906c-0.308,0.574-0.903,0.857-1.328,0.629c-0.418-0.232-0.511-0.883-0.201-1.457
		L-63.761,150.113z M-67.572,133.244l-1.905-1.021c-0.576-0.308-0.856-0.902-0.632-1.326c0.229-0.426,0.881-0.52,1.456-0.213
		l1.905,1.022c0.576,0.31,0.859,0.905,0.632,1.327c-0.232,0.434-0.883,0.527-1.456,0.217V133.244z M-71.397,155.519l2.067-0.626
		c0.626-0.189,1.247,0.031,1.387,0.491c0.141,0.462-0.256,0.989-0.881,1.179l-2.068,0.623c-0.626,0.189-1.246-0.031-1.386-0.491
		c-0.155-0.465,0.232-0.991,0.867-1.177L-71.397,155.519z M-76.804,131.664l-2.068,0.625c-0.625,0.188-1.245-0.031-1.386-0.493
		c-0.139-0.46,0.256-0.988,0.881-1.177l2.068-0.625c0.626-0.188,1.246,0.031,1.386,0.491c0.14,0.465-0.248,0.991-0.883,1.177
		L-76.804,131.664z M-82.085,154.141c0.226-0.424,0.878-0.518,1.453-0.211l1.905,1.021c0.576,0.308,0.86,0.903,0.632,1.327
		c-0.227,0.425-0.878,0.52-1.456,0.209l-1.905-1.02c-0.573-0.294-0.852-0.898-0.635-1.316L-82.085,154.141z M-85.462,138.96
		c-0.308,0.576-0.901,0.86-1.328,0.632c-0.423-0.228-0.519-0.878-0.208-1.456l1.02-1.903c0.308-0.574,0.903-0.857,1.326-0.631
		c0.426,0.229,0.519,0.879,0.211,1.453l-1.038,1.905H-85.462z M-87.693,146.782c-0.189-0.624,0.031-1.245,0.491-1.384
		c0.463-0.139,0.988,0.256,1.179,0.879l0.623,2.068c0.19,0.623-0.031,1.246-0.491,1.385c-0.46,0.141-0.988-0.253-1.175-0.882
		l-0.62-2.075L-87.693,146.782z"/>
	
		<linearGradient id="SVGID_8_" gradientUnits="userSpaceOnUse" x1="-2702.6167" y1="867.9297" x2="-2702.6167" y2="959.9219" gradientTransform="matrix(-0.2423 0 0 0.2423 -728.9545 -77.8535)">
		<stop  offset="0.0056" style="stop-color:#F0F0F0"/>
		<stop  offset="0.5169" style="stop-color:#ADADAD"/>
		<stop  offset="1" style="stop-color:#DBDBDB"/>
	</linearGradient>
	<circle fill="url(#SVGID_8_)" cx="-74.108" cy="143.591" r="11.145"/>
	
		<radialGradient id="SVGID_9_" cx="-1812.5527" cy="919.5508" r="116.3857" gradientTransform="matrix(-0.2423 0 0 0.2423 -728.9545 -77.8535)" gradientUnits="userSpaceOnUse">
		<stop  offset="0" style="stop-color:#FFFFFF"/>
		<stop  offset="1" style="stop-color:#000000"/>
	</radialGradient>
	<circle fill="url(#SVGID_9_)" cx="-289.771" cy="144.954" r="28.2"/>
	
		<radialGradient id="SVGID_10_" cx="-1812.5537" cy="919.5508" r="96.9907" gradientTransform="matrix(-0.2423 0 0 0.2423 -728.9545 -77.8535)" gradientUnits="userSpaceOnUse">
		<stop  offset="0.8483" style="stop-color:#FFFFFF"/>
		<stop  offset="1" style="stop-color:#BBBDBF"/>
	</radialGradient>
	<circle fill="url(#SVGID_10_)" cx="-289.771" cy="144.954" r="23.501"/>
	
		<radialGradient id="SVGID_11_" cx="-1812.5527" cy="919.5527" r="78.2227" gradientTransform="matrix(-0.2423 0 0 0.2423 -728.9545 -77.8535)" gradientUnits="userSpaceOnUse">
		<stop  offset="0.8146" style="stop-color:#626366"/>
		<stop  offset="1" style="stop-color:#BBBDBF"/>
	</radialGradient>
	<circle fill="url(#SVGID_11_)" cx="-289.771" cy="144.955" r="18.954"/>
	<circle fill="#231F20" cx="-289.771" cy="144.955" r="14.523"/>
	
		<radialGradient id="SVGID_12_" cx="-1812.5215" cy="919.5469" r="62.8867" gradientTransform="matrix(-0.2423 0 0 0.2423 -728.9545 -77.8535)" gradientUnits="userSpaceOnUse">
		<stop  offset="0.8202" style="stop-color:#8A8C8F"/>
		<stop  offset="1" style="stop-color:#626366"/>
	</radialGradient>
	<path fill="url(#SVGID_12_)" d="M-305.014,144.955c0,8.415,6.822,15.234,15.237,15.234c8.414,0,15.236-6.819,15.236-15.234
		c0-8.418-6.822-15.238-15.236-15.238c-8.411,0-15.242,6.816-15.242,15.242L-305.014,144.955z M-276.667,143.127
		c-0.46,0.139-0.987-0.256-1.177-0.88l-0.624-2.069c-0.19-0.626,0.032-1.246,0.493-1.385c0.46-0.139,0.986,0.256,1.175,0.879
		l0.626,2.072c0.186,0.619-0.031,1.238-0.496,1.378L-276.667,143.127z M-279.425,151.476l1.02-1.903
		c0.308-0.578,0.903-0.858,1.328-0.633c0.424,0.227,0.519,0.879,0.209,1.455l-1.02,1.904c-0.308,0.574-0.903,0.857-1.327,0.63
		c-0.434-0.232-0.527-0.883-0.217-1.456L-279.425,151.476z M-283.25,134.607l-1.905-1.02c-0.576-0.309-0.858-0.902-0.632-1.327
		c0.228-0.423,0.88-0.519,1.456-0.211l1.903,1.021c0.575,0.311,0.857,0.903,0.63,1.328c-0.232,0.434-0.883,0.526-1.456,0.217
		L-283.25,134.607z M-287.077,156.881l2.068-0.623c0.626-0.189,1.247,0.03,1.387,0.49c0.139,0.462-0.256,0.988-0.881,1.178
		l-2.068,0.625c-0.626,0.189-1.246-0.03-1.387-0.494c-0.139-0.465,0.248-0.99,0.868-1.177L-287.077,156.881z M-292.467,133.027
		l-2.069,0.625c-0.626,0.188-1.246-0.031-1.385-0.492c-0.14-0.461,0.252-0.989,0.881-1.177l2.068-0.626
		c0.625-0.189,1.245,0.031,1.385,0.494c0.139,0.465-0.264,0.992-0.883,1.178L-292.467,133.027z M-297.749,155.503
		c0.226-0.423,0.878-0.518,1.453-0.208l1.904,1.018c0.578,0.311,0.859,0.904,0.632,1.328c-0.226,0.424-0.88,0.519-1.455,0.211
		l-1.905-1.02c-0.588-0.325-0.867-0.93-0.635-1.348L-297.749,155.503z M-301.141,140.338c-0.308,0.578-0.903,0.861-1.328,0.633
		c-0.423-0.227-0.519-0.879-0.209-1.453l1.021-1.905c0.309-0.576,0.903-0.858,1.326-0.632c0.426,0.227,0.519,0.878,0.211,1.453
		l-1.022,1.904H-301.141z M-303.372,148.146c-0.19-0.624,0.031-1.242,0.491-1.384c0.46-0.139,0.988,0.256,1.177,0.881l0.625,2.068
		c0.188,0.626-0.031,1.246-0.491,1.387c-0.461,0.138-0.99-0.256-1.179-0.881l-0.62-2.092L-303.372,148.146z"/>
	
		<linearGradient id="SVGID_13_" gradientUnits="userSpaceOnUse" x1="-1812.5513" y1="873.5547" x2="-1812.5513" y2="965.5469" gradientTransform="matrix(-0.2423 0 0 0.2423 -728.9545 -77.8535)">
		<stop  offset="0.0056" style="stop-color:#F0F0F0"/>
		<stop  offset="0.5169" style="stop-color:#ADADAD"/>
		<stop  offset="1" style="stop-color:#DBDBDB"/>
	</linearGradient>
	<circle fill="url(#SVGID_13_)" cx="-289.771" cy="144.955" r="11.145"/>
	
		<linearGradient id="SVGID_14_" gradientUnits="userSpaceOnUse" x1="-2851.7124" y1="808.7842" x2="-2851.7124" y2="755.0195" gradientTransform="matrix(-0.2423 0 0 0.2423 -728.9545 -77.8535)">
		<stop  offset="0.191" style="stop-color:#626366"/>
		<stop  offset="1" style="stop-color:#BBBDBF"/>
	</linearGradient>
	<path fill="url(#SVGID_14_)" d="M-35.555,117.879c-0.373-0.433-0.608-1.469-1.522-1.889c-0.045-2.661-2.402-8.977-3.922-10.611
		c-0.093-0.102-0.186-0.195-0.273-0.291c1.227,0.432,3.769,1.331,4.368,1.609c0.799,0.369,1.535,1.965,1.658,3.195l0.553,8.047
		c0,0-0.434,0.434-0.867-0.062L-35.555,117.879z"/>
	
		<linearGradient id="SVGID_15_" gradientUnits="userSpaceOnUse" x1="-2243.2046" y1="935.4727" x2="-2243.2046" y2="926.7148" gradientTransform="matrix(-0.2423 0 0 0.2423 -728.9545 -77.8535)">
		<stop  offset="0.191" style="stop-color:#626366"/>
		<stop  offset="1" style="stop-color:#BBBDBF"/>
	</linearGradient>
	<polygon fill="url(#SVGID_15_)" points="-246.788,147.309 -124.062,148.812 -124.062,148.207 -246.788,146.689 	"/>
	
		<linearGradient id="SVGID_16_" gradientUnits="userSpaceOnUse" x1="-2243.2046" y1="939.2422" x2="-2243.2046" y2="931.7656" gradientTransform="matrix(-0.2423 0 0 0.2423 -728.9545 -77.8535)">
		<stop  offset="0.191" style="stop-color:#626366"/>
		<stop  offset="1" style="stop-color:#BBBDBF"/>
	</linearGradient>
	<polygon fill="url(#SVGID_16_)" points="-246.788,148.518 -124.062,149.725 -124.062,149.121 -246.788,147.913 	"/>
	<path fill="#0F00E7" stroke="#FFFFFF" stroke-width="0.1855" d="M-332.245,95.31c0,0-3.962-0.132-5.25-0.076
		c-1.287,0.058-3.24,0.285-4.018,0.871c-0.778,0.587-2.369,2.464-2.369,2.464s0.284,0.265,0.889,0.265
		c4.36,0.359,7.505,1.08,7.505,1.08l3.253-4.601L-332.245,95.31z"/>
	
		<linearGradient id="SVGID_17_" gradientUnits="userSpaceOnUse" x1="-2212.314" y1="939.9258" x2="-2212.314" y2="472.4717" gradientTransform="matrix(-0.2423 0 0 0.2423 -728.9545 -77.8535)">
		<stop  offset="0" style="stop-color:#0029FF"/>
		<stop  offset="0.0241" style="stop-color:#0030FF"/>
		<stop  offset="0.1658" style="stop-color:#0057FF"/>
		<stop  offset="0.3132" style="stop-color:#0076FF"/>
		<stop  offset="0.4656" style="stop-color:#008FFF"/>
		<stop  offset="0.625" style="stop-color:#00A0FF"/>
		<stop  offset="0.7963" style="stop-color:#00ABFF"/>
		<stop  offset="1" style="stop-color:#00AEFF"/>
	</linearGradient>
	<path fill="url(#SVGID_17_)" stroke="#FFFFFF" stroke-width="0.1855" d="M-316.569,98.377c2.514-5.143,1.701-7.285,1.366-7.953
		c-0.339-0.681-1.306-2.501-2.272-4.037c-0.968-1.535-1.137-4.662-1.137-4.662c-1.162,1.065-3.016,2.768-5.129,4.771
		c0.12,0.479,0.387,1.535,0.626,2.424c0.322,1.188,0.313,1.416,0.395,1.646c0.152,0.839-0.531,1.002-0.668,0.542
		c-0.122-0.418-0.81-3.03-0.938-4.053c-0.148,0.139-0.297,0.282-0.449,0.424c0.121,0.481,0.387,1.537,0.626,2.419
		c0.322,1.189,0.313,1.417,0.396,1.648c0.15,0.84-0.533,1-0.667,0.541c-0.124-0.415-0.806-3.011-0.939-4.046
		c-0.147,0.143-0.296,0.287-0.444,0.431c0.121,0.486,0.384,1.53,0.621,2.409c0.322,1.188,0.313,1.416,0.395,1.646
		c0.152,0.84-0.533,1.002-0.667,0.542c-0.123-0.412-0.798-2.98-0.938-4.026c-0.146,0.143-0.294,0.287-0.443,0.431
		c0.125,0.496,0.384,1.521,0.617,2.388c0.322,1.188,0.312,1.416,0.396,1.646c0.15,0.84-0.535,1.002-0.669,0.542
		c-0.119-0.409-0.782-2.931-0.932-3.998c-0.146,0.144-0.292,0.29-0.438,0.434c0.127,0.507,0.379,1.509,0.608,2.356
		c0.321,1.188,0.312,1.416,0.396,1.646c0.149,0.841-0.536,1.002-0.67,0.542c-0.118-0.404-0.767-2.864-0.926-3.953l-0.432,0.432
		c0.128,0.519,0.376,1.49,0.598,2.312c0.321,1.188,0.312,1.416,0.395,1.645c0.149,0.841-0.533,1.004-0.669,0.544
		c-0.116-0.396-0.745-2.785-0.918-3.899c-0.141,0.146-0.285,0.29-0.426,0.436c0.133,0.53,0.369,1.459,0.584,2.257
		c0.322,1.188,0.312,1.416,0.394,1.646c0.152,0.839-0.531,1-0.667,0.542c-0.113-0.389-0.72-2.688-0.905-3.831
		c-0.685,0.709-1.354,1.417-1.994,2.113c-0.17,0.185-0.336,0.367-0.5,0.55c-4.833,5.346-7.562,13.987-8.925,18.364
		c-1.366,4.379-4.777,10.575-5.232,11.543c-0.452,0.967,0,1.818-0.111,2.5c-0.115,0.684-1.65,1.479-1.65,1.479l4.235,1.06
		c1.848-2.561,3.498-4.805,4.579-6.289c3.185-4.381,10.121-20.924,19.842-24.676c1.425-0.511,2.633-0.991,3.687-1.394
		L-316.569,98.377z M-76.184,95.821c-22.287,0-42.866,15.92-49.691,46.167c0.111,0.682,0.339,0.682,0.625,0.854
		c1.819,1.591,3.524,2.5,3.413,6.764h10.858c0,0,3.126-0.965,3.811-3.125c0.682-2.161,2.954-14.729,6.764-21.437
		c3.811-6.707,13.189-17.852,27.858-17.852c14.668,0,23.992,11.198,33.83,25.698c2.672,3.924,5.173,5.971,5.401,7.448
		c0.339,1.137,0.909,0.909,1.192,0.798c0.287-0.113,1.707-0.798,1.194-2.274c-0.514-1.478-2.957-8.982-3.753-11.087
		c-0.795-2.104-2.389-9.098-2.389-11.714c0-2.614-2.389-9.038-3.922-10.689c-1.535-1.647-2.161-1.989-4.15-3.013
		c-1.998-1.022-15.257-6.537-31.057-6.537L-76.184,95.821z M-46.087,101.924c-0.466-0.685-1.296-1.791-2.644-3.202
		c-2.332-2.446-9.663-8.699-19.5-12.68c-9.834-3.979-21.433-7.505-43.494-9.323c-5.29-0.454-12.794-0.967-12.794-0.967
		c-0.965,2.559-1.763,4.776-0.965,6.198c0.793,1.42,2.559,3.468,4.094,4.605c13.529,0.228,23.083,1.307,31.271,2.672
		c7.012,1.169,18.403,3.718,26.422,7.677c8.488,1.425,15.041,3.887,17.612,5.018L-46.087,101.924z M-200.412,47.679
		c4.492,0,19.104-0.056,31.384,1.591c12.28,1.649,17.965,5.571,20.639,7.788c2.672,2.22,7.277,9.78,10.121,14.954
		c2.843,5.174,9.325,15.352,9.325,15.352l-0.287,54.522l-83.064,0.968l-0.681-95.174h12.562H-200.412L-200.412,47.679z
		 M-210.077,79.448c0,4.265,4.437,4.094,4.437,4.094s58.616-0.284,62.652-0.284s4.607-2.957,4.607-4.548
		c0-1.422-0.513-2.73-1.309-4.208c-0.796-1.478-5.798-9.608-6.708-11.086c-0.909-1.479-2.842-5.061-8.471-7.392
		c-5.627-2.33-14.213-3.923-22.288-4.718c-8.073-0.798-26.549-0.683-28.825-0.683c-2.272,0-4.094,1.081-4.094,4.037v24.799V79.448z
		 M-315.856,97.881c8.945-10.538,19.558-20.542,24.259-24.638c4.699-4.092,20.695-16.6,37.903-21.072
		c17.208-4.473,28.958-5.231,40.177-5.231s35.024-0.076,48.365,2.274c13.341,2.352,18.723,8.188,21.377,12.432
		c2.228,3.566,8.093,13.335,9.912,16.37l1.895-1.284c0,0,0.023-0.009,0.065-0.028c-1.224-1.927-6.495-10.254-7.703-12.481
		c-1.441-2.653-9.172-15.237-10.083-17.133c-0.909-1.896-1.365-1.97-2.35-2.426c-18.117-5.686-30.625-7.429-52.458-7.96
		c-21.831-0.531-51.093,1.439-74.518,13.873c-0.835,0.452-0.381,1.061-0.305,1.439c0.076,0.379,0.607,2.501-2.044,4.777
		c-2.654,2.274-15.237,13.645-18.119,16.148c-2.881,2.5-5.685,4.852-6.518,5.078c-0.833,0.228-2.501,0.833-3.564-0.152
		c-1.061-0.986-1.895-2.104-2.35-3.64c-1.517,1.517-6.444,7.353-6.444,7.353c0.909,2.881,0.757,3.639,3.109,7.125
		c2.385,3.5,0.186,7.884-0.573,9.185L-315.856,97.881z M-354.999,146.039l2.9,0.057c16.489,0.171,23.936-5.516,28.825-13.703
		c4.889-8.187,11.997-21.944,32.235-21.944c18.14,0,27.064,13.075,29.394,17.339c2.331,4.265,3.755,11.826,4.208,14.384
		c0.454,2.56,0.965,6.368,3.581,7.278c2.616,0.908,4.491,0.17,6.312-0.057c0.284-0.057,0.397-0.285,0.113-0.682
		c-1.363-1.422-0.17-3.24,0.115-3.979c0.214-0.555,0.297-1.52,0.327-1.97h-0.099c-2.216-26.115-13.891-36.102-20.978-41.296
		c-7.451-5.459-19.048-7.372-31.25-6.69c-6.597,0.153-15.2,2.881-16.678,3.45c0.014-0.025,0.028-0.049,0.045-0.076
		c-1.176,0.455-2.59,1.003-4.31,1.667c-9.721,3.752-16.657,20.297-19.842,24.676c-3.191,4.369-11.323,15.351-14.901,21.547H-354.999
		L-354.999,146.039z M-315.67,97.68c8.908-10.463,19.417-20.367,24.085-24.437c4.7-4.092,20.696-16.6,37.903-21.072
		c17.172-4.464,28.91-5.228,40.106-5.231l0.603,95.82h-34.113c-2.216-26.114-13.891-36.101-20.978-41.296
		c-7.451-5.458-19.048-7.372-31.25-6.69c-6.597,0.153-15.2,2.881-16.678,3.45c0.108-0.202,0.217-0.372,0.325-0.542L-315.67,97.68z
		 M-279.301,78.473c0.835,1.97,2.274,5.913,10.081,5.99c7.81,0.075,45.938-0.835,48.517-0.835s4.852-1.439,4.852-4.396V54.742
		c0-2.73-2.048-4.853-5.307-4.853c-4.396,0-20.771,0.683-35.855,6.217c-15.085,5.533-18.875,11.066-20.848,13.795
		c-1.967,2.726-2.261,6.583-1.425,8.565L-279.301,78.473z M-127.873,87.193c-0.287,17.057-0.682,54.694-0.682,54.694h2.7
		c6.848-30.171,27.404-46.051,49.663-46.051c3.16,0,6.214,0.222,9.102,0.584c-3.368-1.363-13.489-5.172-25.191-6.838
		c-14.385-2.046-28.258-2.389-29.565-2.446c-2.503-2.33-4.492-5.116-4.548-6.14c-0.059-1.024,0.511-3.524,1.308-5.287
		c-2.39-0.285-3.809-0.454-3.809-0.454c-1.763,0.967-3.07,1.478-3.07,1.478l-2.179,1.479c1.905,2.881,6.289,8.969,6.289,8.969
		L-127.873,87.193z"/>
	
		<radialGradient id="SVGID_18_" cx="-2702.6191" cy="913.9258" r="25.999" gradientTransform="matrix(-0.2423 0 0 0.2423 -728.9545 -77.8535)" gradientUnits="userSpaceOnUse">
		<stop  offset="0.0056" style="stop-color:#595959"/>
		<stop  offset="1" style="stop-color:#969696"/>
	</radialGradient>
	<circle fill="url(#SVGID_18_)" stroke="#808184" stroke-width="0.371" cx="-74.108" cy="143.591" r="6.299"/>
	
		<radialGradient id="SVGID_19_" cx="-1812.5537" cy="919.5527" r="25.9995" gradientTransform="matrix(-0.2423 0 0 0.2423 -728.9545 -77.8535)" gradientUnits="userSpaceOnUse">
		<stop  offset="0.0056" style="stop-color:#595959"/>
		<stop  offset="1" style="stop-color:#969696"/>
	</radialGradient>
	<circle fill="url(#SVGID_19_)" stroke="#808184" stroke-width="0.371" cx="-289.771" cy="144.954" r="6.3"/>
	<path fill="#FFFFFF" stroke="#626366" stroke-width="0.371" d="M-149.001,76.351c-1.137,2.122-2.35,4.168-2.35,4.699
		c-2.046,0.607-6.444,0.607-6.444,0.607c-1.167-6.95-3.711-20.268-4.171-22.667c0.712,0.266,1.388,0.545,2.022,0.838
		c4.928,2.266,6.619,5.748,7.415,7.187c0.535,0.965,2.686,4.849,4.252,7.729c-0.17,0.449-0.403,0.976-0.743,1.611L-149.001,76.351z"
		/>
	<path fill="#FFFFFF" stroke="#626366" stroke-width="0.371" d="M-163.949,58.305l4.415,23.45h-2.729l-4.224-24.187
		c0.883,0.232,1.719,0.48,2.54,0.743L-163.949,58.305z"/>
	<path fill="#FFFFFF" stroke="#626366" stroke-width="0.371" d="M-204.671,54.572c1.989,0,18.162-0.11,25.228,0.665
		c3.597,0.394,7.31,0.99,10.739,1.778l4.549,24.943l-17.285,0.454l-13.947,0.076c-2.198-3.259-4.094-6.216-8.338-5.988
		c-1.137-2.501-1.668-4.169-1.668-4.169c3.487-0.683,5.307-1.365,6.292-3.107c0.987-1.744,0.911-3.185,0.911-4.17
		c0-0.987-0.228-4.853-1.516-6.293c-1.289-1.439-3.413-2.044-4.927-2.044c-2.203,0-2.41,1.747-3.62,3.147v-1.366
		c-0.016-2.866,1.58-3.919,3.578-3.919L-204.671,54.572z"/>
	<path fill="#FFFFFF" stroke="#626366" stroke-width="0.371" d="M-208.265,72.788h1.344c1.137,3.409,1.291,4.016,1.291,4.016
		c-1.205,0.292-2.046,0.581-2.633,0.874v-4.879L-208.265,72.788z"/>
	<path fill="#FFFFFF" stroke="#626366" stroke-width="0.371" d="M-266.32,71.177c1.701-2.229,4.972-6.75,17.923-11.222
		c12.763-4.408,26.572-4.944,30.577-4.938l0.066,11.781c0,4.548,0.076,12.13,0.076,12.13s-0.051,1.844-1.323,2.542
		c-8.366,0.174-34.192,0.858-39.979,0.774c-6.692-0.097-7.908-2.427-8.614-4.047c-0.712-1.626-0.434-4.786,1.271-7.017
		L-266.32,71.177z"/>
	<path fill="#0F00E7" stroke="#FFFFFF" stroke-width="0.1855" d="M-104.112,77.729l-0.665-1.065l-5.056-0.222
		c0,0-0.135-0.31-0.398-0.31h-0.799c0,0-0.311,0.355-0.311,0.753c0,0.403,7.233,0.836,7.233,0.836L-104.112,77.729z"/>
	<path fill="#231F20" d="M-134.286,70.294c0.569,0.398,1.107,0.084,1.393,0.056c0.521-0.051,1.507-0.056,2.417,1.991
		c0.671,1.515,0.971,2.529,1.058,3.186c-1.272,0.668-2.223,1.066-2.472,1.165c-0.046-0.073-0.101-0.157-0.158-0.248
		c0.147-0.337,1.109-2.577,1.002-3.363c-0.115-0.854-0.341-1.877-1.422-1.99c-1.08-0.113-0.737,0.739-0.625,1.137
		c0.11,0.387,0.6,2.128,0.411,3.216c-0.886-1.4-2.208-3.499-3.48-5.544c0.402,0.016,1.425,0.078,1.874,0.387L-134.286,70.294z"/>
	<ellipse fill="#0F00E7" stroke="#FFFFFF" stroke-width="0.1855" cx="-201.264" cy="93.048" rx="4.265" ry="3.696"/>
	
		<linearGradient id="SVGID_20_" gradientUnits="userSpaceOnUse" x1="-2172.8799" y1="710.0586" x2="-2172.8799" y2="698.8104" gradientTransform="matrix(-0.2423 0 0 0.2423 -728.9545 -77.8535)">
		<stop  offset="0.191" style="stop-color:#626366"/>
		<stop  offset="1" style="stop-color:#BBBDBF"/>
	</linearGradient>
	<path fill="url(#SVGID_20_)" stroke="#FFFFFF" stroke-width="0.1855" d="M-194.185,92.646c0,0-1.987-0.635-6.843-0.856
		c-4.861-0.22-7.841-0.356-9.387-0.302c-0.415,0-0.608,0.166-0.608,0.689c0,0.525-0.028,1.38-0.028,1.656
		c0,0.277,0.221,0.361,0.581,0.361s7.728-0.747,11.097-0.691c3.369,0.054,4.748,0.22,5.053,0.22c0.31,0.016,0.743-0.867,0.139-1.053
		L-194.185,92.646z"/>
	<circle fill="#808184" stroke="#4E4F51" stroke-width="0.1855" cx="-208.188" cy="92.739" r="0.815"/>
	
		<linearGradient id="SVGID_21_" gradientUnits="userSpaceOnUse" x1="-2450.4082" y1="652.8242" x2="-2450.4082" y2="622.5825" gradientTransform="matrix(-0.2423 0 0 0.2423 -728.9545 -77.8535)">
		<stop  offset="0.191" style="stop-color:#626366"/>
		<stop  offset="1" style="stop-color:#BBBDBF"/>
	</linearGradient>
	<path fill="url(#SVGID_21_)" stroke="#626366" stroke-width="0.371" d="M-132.396,77.141l-0.417,0.646c0,0-1.211-0.192-1.478-0.192
		c-0.267,0-0.228,0.304-0.228,0.304s-0.265,0.72-0.757,1.1c-0.493,0.38-1.213,1.024-1.44,1.328c-0.682-0.798-1.098-1.97-1.211-3.525
		c-0.115-1.554-0.152-3.224-0.076-3.791c0.605,0.341,2.198,1.629,2.766,2.463c0.568,0.835,0.454,1.403,0.911,1.479
		c0.434,0.077,1.92,0.186,1.92,0.186L-132.396,77.141z"/>
	
		<linearGradient id="SVGID_22_" gradientUnits="userSpaceOnUse" x1="-1546.5015" y1="897.0322" x2="-1546.5015" y2="823.006" gradientTransform="matrix(-0.2423 0 0 0.2423 -728.9545 -77.8535)">
		<stop  offset="0.191" style="stop-color:#626366"/>
		<stop  offset="1" style="stop-color:#BBBDBF"/>
	</linearGradient>
	<path fill="url(#SVGID_22_)" stroke="#FFFFFF" stroke-width="0.1855" d="M-345.039,121.549c-0.816,0.081-4.069,0.404-6.667,0.699
		c-2.995,0.342-6.899,0.724-10.46,2.238c-3.562,1.516-4.207,1.818-4.17,3.222c0.036,1.403,0.682,4.246,0.72,6.179
		c-0.037,0.721-0.494,1.594-0.19,2.198c0.304,0.606,1.517,1.363,3.261,1.63c1.743,0.266,9.74,1.553,14.439,1.744
		c2.274,0.113,2.956,0.035,3.45-1.064c0.494-1.097,2.046-5.078,2.388-6.1c0.339-1.023-0.076-0.872-0.113-1.63
		c-0.037-0.757-0.759-0.986-2.805-1.479c-2.048-0.494-6.899-0.757-10.197-1.365c-3.298-0.604-5.306-1.175-5.346-1.969
		c-0.037-0.799,3.866-1.781,6.066-2.047c2.043-0.248,7.593-0.754,8.911-0.827c0.232-0.434,0.573-1.115,0.697-1.44L-345.039,121.549z
		"/>
	
		<linearGradient id="SVGID_23_" gradientUnits="userSpaceOnUse" x1="-2892.3667" y1="886.3711" x2="-2892.3667" y2="821.3672" gradientTransform="matrix(-0.2423 0 0 0.2423 -728.9545 -77.8535)">
		<stop  offset="0.191" style="stop-color:#626366"/>
		<stop  offset="1" style="stop-color:#BBBDBF"/>
	</linearGradient>
	<path fill="url(#SVGID_23_)" stroke="#FFFFFF" stroke-width="0.1855" d="M-36.236,121.781c1.251,0.34,4.164,1.131,5.726,1.559
		c2.029,0.552,5.589,1.227,5.837,2.209c0.248,0.985-1.473,0.678-1.964,0.678c-0.491,0-5.774,0.305-6.451,1.412
		c-0.677,1.105-0.491,1.475-1.167,2.334s-0.615,4.669-0.429,5.529c0.186,0.859,0.677,1.412,3.684,1.412
		c3.011,0,7.188-0.062,8.722-0.613c1.535-0.555,1.721-3.316,1.905-4.362c0.183-1.044,0.615-4.054,0.429-4.791
		c-0.186-0.737-1.229-1.351-2.334-1.78c-1.092-0.426-2.844-1.572-14.088-4.203c0.016,0.154,0.062,0.31,0.124,0.604L-36.236,121.781z
		"/>
	
		<linearGradient id="SVGID_24_" gradientUnits="userSpaceOnUse" x1="-2146.6733" y1="701.2588" x2="-2146.6733" y2="677.0938" gradientTransform="matrix(-0.2423 0 0 0.2423 -728.9545 -77.8535)">
		<stop  offset="0.191" style="stop-color:#626366"/>
		<stop  offset="1" style="stop-color:#BBBDBF"/>
	</linearGradient>
	<path fill="url(#SVGID_24_)" stroke="#626366" stroke-width="0.371" d="M-287.572,92.042c-0.682,0.152-0.985-0.605-0.302-0.833
		c6.065-1.364,25.243-3.79,37.07-4.321c10.931-0.491,34.043-0.658,37.471-0.679l0.011,1.588c-8.702,0.001-29.091,0.081-37.406,0.454
		c-8.411,0.387-18.262,0.759-36.834,3.795L-287.572,92.042z M-212.695,87.797c14.77,0.011,83.325,0.835,83.325,0.835v-1.289
		c0,0-34.097-1.134-83.339-1.137l0.016,1.58L-212.695,87.797z"/>
	<path fill="#DFE0E1" d="M-337.945,120.93c-0.328-0.64-0.573-1.488-0.688-2.623c-0.191-1.857,0.113-8.908,0.113-8.908
		c0.075-1.518,1.291-3.867,1.593-4.475c0.303-0.605,0.985-1.287,1.97-1.438c0.985-0.151,3.185-0.302,5.536-0.302
		c1.375,0,3.03-0.131,4.171-0.238c-5.483,4.771-9.805,12.871-12.686,17.968L-337.945,120.93z"/>
	<path fill="#FFDE00" d="M-335.9,117.305c-0.965,0.059-2.025,0.109-2.784,0.104c-0.07-2.588,0.164-8.008,0.164-8.008
		c0.006-0.151,0.03-0.315,0.058-0.484c1.055,0.066,3.499,0.18,7.76,0.169c-1.967,2.695-3.718,5.607-5.205,8.21L-335.9,117.305z"/>
	<path fill="#F6921E" d="M-330.695,109.08c-4.262,0.01-6.706-0.102-7.761-0.169c0.257-1.488,1.261-3.441,1.535-3.987
		c0.304-0.605,0.985-1.287,1.97-1.438c0.985-0.151,3.185-0.302,5.536-0.302c1.375,0,3.03-0.131,4.171-0.238
		c-1.967,1.703-3.779,3.841-5.437,6.117L-330.695,109.08z"/>
</g>
</svg>
