<?xml version="1.0" encoding="utf-8"?>
<!-- Generator: Adobe Illustrator 15.1.0, SVG Export Plug-In . SVG Version: 6.00 Build 0)  -->
<!DOCTYPE svg PUBLIC "-//W3C//DTD SVG 1.1//EN" "http://www.w3.org/Graphics/SVG/1.1/DTD/svg11.dtd">
<svg version="1.1" id="Layer_1" xmlns="http://www.w3.org/2000/svg" xmlns:xlink="http://www.w3.org/1999/xlink" x="0px" y="0px"
	 width="400px" height="200px" viewBox="0 0 400 200" enable-background="new 0 0 400 200" xml:space="preserve">
<g>
	<path fill="#FFFFFF" stroke="#EC1C24" stroke-width="0.1855" d="M-320.255,99.802c-9.721,3.753-16.658,20.298-19.842,24.677
		c-1.08,1.484-2.731,3.729-4.579,6.289l-4.235-1.06c0,0,1.535-0.796,1.65-1.479c0.111-0.682-0.341-1.535,0.111-2.5
		c0.456-0.968,3.866-7.164,5.232-11.543c1.363-4.377,4.093-13.02,8.925-18.363c0.789-0.871,1.628-1.765,2.494-2.663
		c0.185,1.142,0.792,3.442,0.905,3.831c0.136,0.46,0.819,0.299,0.667-0.542c-0.083-0.23-0.071-0.458-0.393-1.646
		c-0.215-0.798-0.451-1.726-0.584-2.257c0.141-0.146,0.285-0.29,0.426-0.435c0.173,1.114,0.802,3.502,0.918,3.898
		c0.136,0.462,0.818,0.299,0.669-0.543c-0.085-0.229-0.075-0.457-0.395-1.645c-0.222-0.823-0.47-1.794-0.598-2.312
		c0.144-0.143,0.288-0.29,0.432-0.432c0.16,1.089,0.807,3.55,0.926,3.953c0.135,0.46,0.82,0.299,0.671-0.542
		c-0.085-0.231-0.076-0.458-0.396-1.646c-0.229-0.847-0.483-1.85-0.609-2.356c0.146-0.144,0.291-0.29,0.438-0.434
		c0.148,1.065,0.812,3.589,0.933,3.998c0.135,0.462,0.819,0.299,0.669-0.542c-0.083-0.231-0.074-0.458-0.396-1.646
		c-0.234-0.868-0.493-1.893-0.616-2.389c0.147-0.144,0.295-0.288,0.443-0.431c0.139,1.046,0.814,3.614,0.937,4.026
		c0.135,0.46,0.819,0.299,0.667-0.542c-0.082-0.231-0.073-0.458-0.395-1.647c-0.237-0.878-0.5-1.922-0.621-2.408
		c0.148-0.144,0.297-0.288,0.445-0.431c0.133,1.033,0.814,3.631,0.938,4.046c0.135,0.461,0.818,0.3,0.667-0.541
		c-0.083-0.231-0.073-0.458-0.396-1.648c-0.238-0.883-0.505-1.938-0.625-2.419c0.152-0.144,0.3-0.285,0.449-0.424
		c0.129,1.024,0.816,3.637,0.939,4.054c0.136,0.46,0.819,0.299,0.667-0.542c-0.082-0.231-0.073-0.458-0.396-1.647
		c-0.238-0.889-0.506-1.945-0.625-2.424c2.113-2.003,3.968-3.705,5.128-4.771c0,0,0.169,3.127,1.137,4.663
		c0.966,1.537,1.933,3.356,2.272,4.037c0.333,0.667,1.148,2.81-1.366,7.952c-1.038,0.372-2.246,0.852-3.671,1.394L-320.255,99.802z"
		/>
	<path fill="#FFFFFF" stroke="#EC1C24" stroke-width="0.1855" d="M-76.184,95.821c-22.287,0-42.866,15.92-49.691,46.167
		c0.111,0.682,0.339,0.682,0.625,0.854c1.819,1.592,3.524,2.5,3.413,6.764h10.858c0,0,3.126-0.965,3.811-3.125
		c0.682-2.16,2.954-14.729,6.764-21.437c3.811-6.707,13.189-17.853,27.858-17.853c14.668,0,23.992,11.199,33.83,25.699
		c2.672,3.924,5.173,5.971,5.401,7.447c0.339,1.137,0.909,0.909,1.192,0.799c0.287-0.113,1.707-0.799,1.194-2.275
		c-0.514-1.478-2.957-8.981-3.753-11.086c-0.795-2.104-2.389-9.098-2.389-11.715c0-2.613-2.389-9.037-3.922-10.688
		c-1.535-1.647-2.161-1.989-4.15-3.013c-1.998-1.022-15.257-6.537-31.057-6.537L-76.184,95.821z"/>
	<path fill="#FFFFFF" stroke="#EC1C24" stroke-width="0.1855" d="M-63.684,96.905c-8.02-3.959-19.41-6.507-26.423-7.677
		c-8.188-1.363-17.742-2.444-31.271-2.672c-1.535-1.135-3.299-3.183-4.094-4.605c-0.798-1.422,0-3.639,0.965-6.198
		c0,0,7.505,0.513,12.794,0.967c22.059,1.818,33.658,5.344,43.494,9.323c9.838,3.979,17.169,10.234,19.5,12.68
		c1.348,1.411,2.178,2.517,2.644,3.202c-2.586-1.146-9.139-3.609-17.612-5.034L-63.684,96.905z"/>
	<path fill="#FFFFFF" stroke="#EC1C24" stroke-width="0.1855" d="M-315.237,88.696c-2.352-3.487-2.2-4.244-3.109-7.125
		c0,0,4.927-5.836,6.444-7.353c0.456,1.535,1.289,2.653,2.35,3.64c1.062,0.985,2.73,0.38,3.563,0.152
		c0.833-0.226,3.638-2.579,6.519-5.077c2.881-2.503,15.465-13.875,18.118-16.148c2.652-2.275,2.122-4.397,2.045-4.777
		c-0.076-0.379-0.53-0.987,0.305-1.439c23.425-12.434,52.687-14.404,74.518-13.873c21.833,0.53,34.341,2.274,52.458,7.96
		c0.985,0.454,1.44,0.53,2.35,2.426c0.911,1.896,8.642,14.48,10.083,17.133c1.208,2.228,6.479,10.553,7.703,12.481
		c-0.042,0.019-0.065,0.028-0.065,0.028l-1.895,1.284c-1.82-3.034-7.685-12.804-9.912-16.37
		c-2.655-4.246-8.036-10.081-21.377-12.432c-13.341-2.35-37.146-2.273-48.365-2.273c-11.219,0-22.97,0.757-40.177,5.23
		c-17.208,4.474-33.204,16.981-37.903,21.072c-4.7,4.096-15.313,14.102-24.258,24.638c0.712-1.301,2.912-5.685,0.573-9.186
		L-315.237,88.696z"/>
	<path fill="#FFFFFF" stroke="#EC1C24" stroke-width="0.1855" d="M-340.113,124.477c3.186-4.379,10.121-20.922,19.842-24.676
		c1.719-0.663,3.134-1.211,4.309-1.667c-0.017,0.026-0.031,0.051-0.045,0.076c1.478-0.568,10.081-3.296,16.678-3.45
		c12.203-0.681,23.802,1.231,31.251,6.69c7.088,5.194,18.763,15.181,20.978,41.296h0.099c-0.029,0.451-0.113,1.417-0.327,1.97
		c-0.285,0.74-1.479,2.558-0.115,3.979c0.285,0.396,0.17,0.625-0.113,0.682c-1.82,0.227-3.694,0.965-6.312,0.057
		c-2.616-0.91-3.127-4.719-3.581-7.277c-0.454-2.559-1.877-10.119-4.208-14.385c-2.33-4.264-11.253-17.338-29.394-17.338
		c-20.239,0-27.347,13.758-32.235,21.943c-4.889,8.188-12.338,13.874-28.825,13.703l-2.9-0.057
		c3.594-6.182,11.726-17.164,14.901-21.547H-340.113L-340.113,124.477z"/>
	<path fill="#FFFFFF" stroke="#EC1C24" stroke-width="0.1855" d="M-315.996,98.222c1.478-0.569,10.081-3.296,16.678-3.45
		c12.203-0.682,23.801,1.231,31.25,6.69c7.088,5.195,18.763,15.183,20.978,41.295h34.113l-0.603-95.819
		c-11.198,0.002-22.934,0.767-40.106,5.231c-17.208,4.474-33.204,16.981-37.903,21.072c-4.668,4.068-15.177,13.973-24.085,24.437
		c-0.108,0.17-0.217,0.341-0.325,0.542L-315.996,98.222z M-277.875,69.907c1.972-2.729,5.762-8.262,20.848-13.795
		c15.085-5.535,31.459-6.218,35.855-6.218c3.259,0,5.307,2.122,5.307,4.853v24.484c0,2.957-2.272,4.396-4.851,4.396
		c-2.579,0-40.707,0.909-48.517,0.835c-7.807-0.078-9.246-4.018-10.081-5.99c-0.836-1.983-0.542-5.84,1.425-8.566L-277.875,69.907
		L-277.875,69.907z"/>
	<path fill="#FFFFFF" stroke="#EC1C24" stroke-width="0.1855" d="M-134.146,78.209l2.179-1.479c0,0,1.309-0.513,3.07-1.478
		c0,0,1.42,0.17,3.809,0.454c-0.796,1.763-1.366,4.263-1.308,5.287c0.056,1.024,2.045,3.809,4.548,6.14
		c1.307,0.058,15.18,0.398,29.565,2.446c11.702,1.665,21.823,5.474,25.191,6.839c-2.887-0.363-5.943-0.584-9.102-0.584
		c-22.259,0-42.813,15.879-49.663,46.051h-2.7c0,0,0.395-37.637,0.682-54.694c-0.016,0.015-4.399-6.072-6.289-8.969L-134.146,78.209
		z"/>
	<path fill="#231F20" d="M-323.292,86.512c0,0-6.546,6.394-7.579,7.39c-1.033,0.996-0.423,2.986-0.423,2.986l2.681,1.151
		l5.629-2.452l1.8-5.32l-2.107-3.764L-323.292,86.512z"/>
	<polygon fill="#231F20" points="-317.669,81.57 -319.187,82.794 -318.428,87.643 -316.151,91.577 -316.91,96.131 -318.428,100.22 
		-314.633,100.22 -312.355,96.735 -311.906,90.973 -312.666,85.21 	"/>
	<path fill="#231F20" d="M-111.206,148.596c0,0,3.866,6.367,12.393,8.981c8.53,2.614,38.889-0.456,38.889-0.456l13.078-14.781
		c0,0,4.15-0.453,5.118-0.055c0.965,0.396,1.363,1.932,1.933,2.615c0.567,0.684,0.739,1.022,1.08,1.08
		c0.339,0.057,0.854-1.422,1.08-1.935c0.228-0.512,0.454-2.104,0.966-2.387c0.513-0.285,3.072-1.082,3.694-1.082
		c0.626,0,0.228-1.31,0.228-1.31l-2.672-3.524l-9.834-15.123l-9.326-10.802l-21.15-6.027l-17.283,4.548l-12.054,16.033
		l-7.334,17.512l1.208,6.677L-111.206,148.596z"/>
	<path fill="#231F20" d="M-254.75,147.371c0,0-2.653,3.79-3.791,5.002c-1.137,1.214-2.803,2.957-5.457,4.17
		c-2.652,1.212-53.824-6.745-53.824-6.745s-5.685,0-6.82-0.153c-1.139-0.152-2.199-1.287-2.807-2.196
		c-0.605-0.91-1.135-1.743-2.272-1.743c-1.139,0-3.185-0.607-3.412,0c-0.227,0.605-0.531,1.743-1.063,1.591
		c-0.53-0.151,0.91-1.44-1.137-1.591c-2.046-0.153-4.927-0.305-5.533-0.305c-0.604,0-1.896,1.363-3.108,1.896
		c-1.213,0.531-0.682,1.438-4.018,1.211c-3.335-0.226-4.472-3.104-4.472-3.104l8.945-2.275l9.932-4.246l8.87-11.371l6.518-7.353
		l12.054-9.325l9.929-3.259l16.602,2.728l9.705,3.562l9.173,9.855l5.533,9.932l1.211,10.611l-0.743,3.129L-254.75,147.371z"/>
	<path fill="#231F20" d="M-128.075,141.393l3.336,0.076l2.881,3.715l0.454,4.018c0,0-0.985,0.831-1.897,0.91
		c-36.006-0.227-125.003-1.062-125.003-1.062l-0.605-3.487l0.986-1.744l-0.015-1.934l2.969-1.252l37.979-1.439l38.055-1.743
		l36.692,3.032l2.272,0.607l0.228,0.379l1.657-0.062L-128.075,141.393z"/>
	<polygon points="-127.083,138.434 -127.688,143.127 -215.173,143.281 -240.499,118.715 -283.405,79.604 -275.521,63.835 
		-265.825,58.228 -253.681,53.674 -233.978,49.29 -215.777,48.221 -212.896,44.426 -172.886,45.65 -153.323,50.808 -145.888,56.26 
		-131.343,79.309 -125.581,87.643 -124.512,120.854 	"/>
	<polygon fill="#231F20" points="-344.543,122.324 -346.929,122.324 -351.483,122.896 -357.043,123.346 -362.047,125.391 
		-360.343,128.799 -353.744,130.734 -346.696,129.82 -345.101,127.436 	"/>
	
		<linearGradient id="SVGID_1_" gradientUnits="userSpaceOnUse" x1="-2443.6431" y1="-1541.2891" x2="-2443.6431" y2="-1518.9297" gradientTransform="matrix(-0.2423 0 0 -0.2423 -949.3337 -226.2726)">
		<stop  offset="0.191" style="stop-color:#626366"/>
		<stop  offset="1" style="stop-color:#BBBDBF"/>
	</linearGradient>
	<path fill="url(#SVGID_1_)" stroke="#FFFFFF" stroke-width="0.1855" d="M-355.417,141.764c0,0-4.929,0.035-5.799,0.035
		s-2.198,0.455-1.291,1.744c0.911,1.289,2.275,3.602,2.275,3.602s0.606,0.037,0.833,0.037c0.226,0,4.585-0.149,4.814-0.149
		c0.227,0,0.188-1.063,0.227-1.177c0.035-0.113,2.236-0.528,2.236-0.528l0.454-1.935l-3.764-1.625L-355.417,141.764z"/>
	<path fill="#0F00E7" stroke="#FFFFFF" stroke-width="0.1855" d="M-355.076,137.441c0,0-1.099,5.799-0.568,6.975
		c0.531,1.176,1.857,1.176,1.857,1.176l5.003-6.938l-6.289-1.209L-355.076,137.441z"/>
	<polygon fill="#231F20" points="-37.258,121.068 -24.82,124.555 -23.612,126.305 -26.648,127.141 -33.618,130.239 -35.369,129.79 	
		"/>
	<polygon fill="#231F20" points="-124.218,76.041 -125.457,80.548 -121.182,85.938 -103.973,86.698 -81.574,89.656 -62.615,96.44 
		-63.56,97.618 -67.773,97.23 -85.85,91.624 -110.106,88.851 -122.545,87.983 -127.161,82.934 -127.052,78.287 -125.689,75.932 	"/>
	<path fill="#231F20" d="M-205.012,83.553c-0.407,0.003-0.625,0.003-0.625,0.003s0.217,0,0.62,0L-205.012,83.553z M-208.017,83.026
		c-0.076-0.037-0.15-0.083-0.225-0.127v0.008c0.062,0.046,0.14,0.093,0.217,0.124L-208.017,83.026z M-210.077,54.665v24.788
		c0,1.887,0.871,2.898,1.839,3.448c-0.005-0.1-0.019-0.194-0.019-0.302V58.494c0-2.874,1.592-3.925,3.583-3.925
		c1.989,0,18.162-0.11,25.228,0.665c7.065,0.774,14.579,2.32,19.506,4.588c4.927,2.266,6.619,5.749,7.415,7.188
		c0.796,1.436,5.175,9.342,5.871,10.779c0.697,1.439,1.145,2.709,1.145,4.091c0,0.398-0.034,0.888-0.144,1.389
		c1.341-0.003,2.268-0.006,2.666-0.006c4.037,0,4.607-2.957,4.607-4.548c0-1.422-0.513-2.731-1.309-4.208
		c-0.796-1.478-5.798-9.608-6.708-11.086c-0.909-1.479-2.842-5.061-8.471-7.392c-5.627-2.33-14.213-3.923-22.288-4.718
		c-8.073-0.798-26.549-0.683-28.825-0.683c-2.292,0-4.104,1.084-4.104,4.042L-210.077,54.665z M-206.143,83.522
		c-0.305-0.028-0.722-0.09-1.168-0.227c0.434,0.155,0.852,0.217,1.162,0.232L-206.143,83.522z"/>
	<path fill="#231F20" d="M-279.301,78.473c0.835,1.97,2.274,5.913,10.081,5.99c7.81,0.075,45.938-0.835,48.517-0.835
		s4.852-1.439,4.852-4.396v-24.49c0-2.73-2.048-4.853-5.307-4.853c-4.396,0-20.772,0.683-35.856,6.217
		c-15.085,5.533-18.875,11.066-20.848,13.795c-1.967,2.726-2.261,6.583-1.425,8.565L-279.301,78.473z M-266.32,71.177
		c1.701-2.229,4.972-6.75,17.923-11.222c12.763-4.408,26.572-4.944,30.577-4.938l0.066,11.781c0,4.548,0.076,12.13,0.076,12.13
		s-0.051,1.844-1.323,2.542c-8.366,0.174-34.192,0.858-39.979,0.774c-6.692-0.097-7.908-2.427-8.614-4.047
		c-0.712-1.626-0.434-4.786,1.271-7.017L-266.32,71.177z"/>
	
		<linearGradient id="SVGID_2_" gradientUnits="userSpaceOnUse" x1="-2713.6328" y1="-1211.5728" x2="-2687.803" y2="-1185.6791" gradientTransform="matrix(-0.2423 0 0 -0.2423 -949.3337 -226.2726)">
		<stop  offset="0.0281" style="stop-color:#BBBDBF"/>
		<stop  offset="1" style="stop-color:#FFFFFF"/>
	</linearGradient>
	<path fill="url(#SVGID_2_)" stroke="#231F20" stroke-width="0.1855" d="M-279.316,52.016c0.076,0.379,0.607,2.501-2.044,4.777
		c-2.653,2.274-15.237,13.645-18.118,16.148c-2.881,2.5-5.685,4.851-6.518,5.077c-0.833,0.228-2.502,0.833-3.564-0.151
		c-0.948-0.883-1.713-1.872-2.191-3.169c4.662-4.639,12.698-11.008,17.864-14.343c4.746-3.064,12.785-8.09,14.382-9.089
		c0.016,0.294,0.17,0.573,0.202,0.774L-279.316,52.016z"/>
	<path fill="#231F20" d="M-310.652,74.91c0.386,0.814,0.937,1.555,1.723,2.285c0.588,0.548,1.71,0.226,2.45,0.014l0.25-0.073
		c0.386-0.121,1.768-1.067,6.167-4.887l8.392-7.486c4.085-3.662,8.311-7.449,9.731-8.665c0.864-0.742,1.818-1.871,1.818-3.248
		c0-0.037-0.011-0.076-0.011-0.115l-0.371-0.841c0.442-0.276,0.79-0.493,1.01-0.632c0.001,0.277,0.15,0.547,0.19,0.75
		c0.076,0.379,0.607,2.501-2.044,4.777c-2.654,2.274-15.237,13.645-18.119,16.148c-2.881,2.5-5.685,4.852-6.518,5.078
		c-0.833,0.228-2.501,0.833-3.564-0.152c-0.948-0.883-1.713-1.871-2.192-3.169c0.22-0.219,0.452-0.443,0.685-0.666
		c0.155,0.325,0.31,0.635,0.434,0.898L-310.652,74.91z"/>
	
		<radialGradient id="SVGID_3_" cx="-3612.1572" cy="-1526.4727" r="116.3882" gradientTransform="matrix(-0.2423 0 0 -0.2423 -949.3337 -226.2726)" gradientUnits="userSpaceOnUse">
		<stop  offset="0" style="stop-color:#FFFFFF"/>
		<stop  offset="1" style="stop-color:#000000"/>
	</radialGradient>
	<circle fill="url(#SVGID_3_)" cx="-74.108" cy="143.591" r="28.201"/>
	
		<radialGradient id="SVGID_4_" cx="-3612.1572" cy="-1526.4688" r="96.9917" gradientTransform="matrix(-0.2423 0 0 -0.2423 -949.3337 -226.2726)" gradientUnits="userSpaceOnUse">
		<stop  offset="0.8483" style="stop-color:#FFFFFF"/>
		<stop  offset="1" style="stop-color:#BBBDBF"/>
	</radialGradient>
	<circle fill="url(#SVGID_4_)" cx="-74.108" cy="143.591" r="23.501"/>
	
		<radialGradient id="SVGID_5_" cx="-3612.2188" cy="-1526.4707" r="78.2168" gradientTransform="matrix(-0.2423 0 0 -0.2423 -949.3337 -226.2726)" gradientUnits="userSpaceOnUse">
		<stop  offset="0.8146" style="stop-color:#626366"/>
		<stop  offset="1" style="stop-color:#BBBDBF"/>
	</radialGradient>
	<circle fill="url(#SVGID_5_)" cx="-74.093" cy="143.591" r="18.952"/>
	<circle fill="#231F20" cx="-74.108" cy="143.592" r="14.523"/>
	
		<radialGradient id="SVGID_6_" cx="-3612.1846" cy="-1526.4688" r="62.8911" gradientTransform="matrix(-0.2423 0 0 -0.2423 -949.3337 -226.2726)" gradientUnits="userSpaceOnUse">
		<stop  offset="0.8202" style="stop-color:#8A8C8F"/>
		<stop  offset="1" style="stop-color:#626366"/>
	</radialGradient>
	<path fill="url(#SVGID_6_)" d="M-89.335,143.592c0,8.415,6.82,15.236,15.236,15.236c8.414,0,15.237-6.821,15.237-15.236
		c0-8.416-6.823-15.238-15.237-15.238c-8.426,0-15.242,6.816-15.242,15.242L-89.335,143.592z M-61.004,141.764
		c-0.46,0.139-0.988-0.256-1.179-0.881l-0.623-2.068c-0.19-0.625,0.031-1.246,0.491-1.385s0.988,0.254,1.179,0.881l0.623,2.066
		c0.186,0.604-0.031,1.225-0.496,1.363L-61.004,141.764z M-63.761,150.113l1.021-1.906c0.308-0.576,0.903-0.855,1.327-0.631
		c0.423,0.229,0.519,0.877,0.208,1.453l-1.018,1.906c-0.308,0.573-0.903,0.856-1.328,0.629c-0.418-0.232-0.511-0.883-0.201-1.457
		L-63.761,150.113z M-67.572,133.244l-1.905-1.021c-0.576-0.308-0.856-0.902-0.632-1.326c0.229-0.426,0.881-0.52,1.456-0.213
		l1.905,1.022c0.576,0.31,0.859,0.905,0.632,1.327c-0.232,0.434-0.883,0.527-1.456,0.217V133.244z M-71.397,155.52l2.067-0.627
		c0.626-0.188,1.247,0.031,1.387,0.491c0.141,0.462-0.256,0.989-0.881,1.179l-2.068,0.623c-0.626,0.189-1.246-0.031-1.386-0.49
		c-0.155-0.465,0.232-0.991,0.867-1.178L-71.397,155.52z M-76.804,131.664l-2.068,0.625c-0.625,0.188-1.245-0.031-1.386-0.493
		c-0.139-0.46,0.256-0.987,0.881-1.177l2.068-0.625c0.626-0.188,1.246,0.031,1.386,0.49c0.14,0.466-0.248,0.992-0.883,1.178
		L-76.804,131.664z M-82.085,154.141c0.226-0.424,0.878-0.518,1.453-0.211l1.905,1.021c0.576,0.308,0.86,0.902,0.632,1.326
		c-0.227,0.426-0.878,0.521-1.456,0.209l-1.905-1.02c-0.573-0.294-0.852-0.898-0.635-1.316L-82.085,154.141z M-85.462,138.96
		c-0.308,0.576-0.901,0.86-1.328,0.632c-0.423-0.228-0.519-0.878-0.208-1.455l1.02-1.904c0.308-0.573,0.903-0.856,1.326-0.631
		c0.426,0.229,0.519,0.879,0.211,1.453l-1.038,1.905H-85.462z M-87.693,146.782c-0.189-0.624,0.031-1.245,0.491-1.384
		c0.463-0.14,0.988,0.256,1.179,0.879l0.623,2.068c0.19,0.622-0.031,1.245-0.491,1.385c-0.46,0.141-0.988-0.254-1.175-0.883
		l-0.62-2.074L-87.693,146.782z"/>
	
		<linearGradient id="SVGID_7_" gradientUnits="userSpaceOnUse" x1="-3612.1548" y1="-1480.4727" x2="-3612.1548" y2="-1572.4688" gradientTransform="matrix(-0.2423 0 0 -0.2423 -949.3337 -226.2726)">
		<stop  offset="0.0056" style="stop-color:#F0F0F0"/>
		<stop  offset="0.5169" style="stop-color:#ADADAD"/>
		<stop  offset="1" style="stop-color:#DBDBDB"/>
	</linearGradient>
	<circle fill="url(#SVGID_7_)" cx="-74.108" cy="143.591" r="11.146"/>
	
		<radialGradient id="SVGID_8_" cx="-2722.0908" cy="-1532.0957" r="116.3852" gradientTransform="matrix(-0.2423 0 0 -0.2423 -949.3337 -226.2726)" gradientUnits="userSpaceOnUse">
		<stop  offset="0" style="stop-color:#FFFFFF"/>
		<stop  offset="1" style="stop-color:#000000"/>
	</radialGradient>
	<circle fill="url(#SVGID_8_)" cx="-289.771" cy="144.954" r="28.2"/>
	
		<radialGradient id="SVGID_9_" cx="-2722.0908" cy="-1532.0957" r="96.9907" gradientTransform="matrix(-0.2423 0 0 -0.2423 -949.3337 -226.2726)" gradientUnits="userSpaceOnUse">
		<stop  offset="0.8483" style="stop-color:#FFFFFF"/>
		<stop  offset="1" style="stop-color:#BBBDBF"/>
	</radialGradient>
	<circle fill="url(#SVGID_9_)" cx="-289.771" cy="144.954" r="23.501"/>
	
		<radialGradient id="SVGID_10_" cx="-2722.0908" cy="-1532.0996" r="78.2251" gradientTransform="matrix(-0.2423 0 0 -0.2423 -949.3337 -226.2726)" gradientUnits="userSpaceOnUse">
		<stop  offset="0.8146" style="stop-color:#626366"/>
		<stop  offset="1" style="stop-color:#BBBDBF"/>
	</radialGradient>
	<circle fill="url(#SVGID_10_)" cx="-289.771" cy="144.955" r="18.954"/>
	<circle fill="#231F20" cx="-289.771" cy="144.955" r="14.523"/>
	
		<radialGradient id="SVGID_11_" cx="-2722.0537" cy="-1532.0918" r="62.8872" gradientTransform="matrix(-0.2423 0 0 -0.2423 -949.3337 -226.2726)" gradientUnits="userSpaceOnUse">
		<stop  offset="0.8202" style="stop-color:#8A8C8F"/>
		<stop  offset="1" style="stop-color:#626366"/>
	</radialGradient>
	<path fill="url(#SVGID_11_)" d="M-305.014,144.955c0,8.415,6.822,15.234,15.237,15.234c8.414,0,15.236-6.819,15.236-15.234
		c0-8.418-6.822-15.238-15.236-15.238c-8.411,0-15.242,6.816-15.242,15.242L-305.014,144.955z M-276.667,143.127
		c-0.46,0.139-0.987-0.256-1.177-0.88l-0.624-2.069c-0.19-0.626,0.032-1.246,0.493-1.385c0.46-0.139,0.986,0.256,1.175,0.879
		l0.626,2.072c0.186,0.619-0.031,1.238-0.496,1.378L-276.667,143.127z M-279.425,151.477l1.02-1.903
		c0.308-0.578,0.903-0.858,1.328-0.634c0.424,0.228,0.519,0.879,0.209,1.455l-1.02,1.904c-0.308,0.574-0.903,0.857-1.327,0.631
		c-0.434-0.232-0.527-0.884-0.217-1.457L-279.425,151.477z M-283.25,134.607l-1.905-1.021c-0.576-0.31-0.858-0.901-0.632-1.327
		c0.228-0.423,0.88-0.519,1.456-0.211l1.903,1.021c0.575,0.311,0.857,0.902,0.63,1.328c-0.232,0.434-0.883,0.525-1.456,0.217
		L-283.25,134.607z M-287.077,156.881l2.068-0.623c0.626-0.189,1.247,0.03,1.387,0.49c0.139,0.462-0.256,0.988-0.881,1.178
		l-2.068,0.625c-0.626,0.189-1.246-0.029-1.387-0.494c-0.139-0.465,0.248-0.99,0.868-1.177L-287.077,156.881z M-292.467,133.027
		l-2.069,0.625c-0.626,0.188-1.246-0.031-1.385-0.492c-0.14-0.461,0.252-0.989,0.881-1.178l2.068-0.625
		c0.625-0.189,1.245,0.031,1.385,0.494c0.139,0.465-0.264,0.991-0.883,1.178L-292.467,133.027z M-297.749,155.503
		c0.226-0.423,0.878-0.519,1.453-0.208l1.904,1.018c0.578,0.312,0.859,0.904,0.632,1.328c-0.226,0.424-0.88,0.52-1.455,0.211
		l-1.905-1.02c-0.588-0.325-0.867-0.93-0.635-1.348L-297.749,155.503z M-301.141,140.338c-0.308,0.578-0.903,0.861-1.328,0.633
		c-0.423-0.227-0.52-0.879-0.209-1.453l1.021-1.904c0.309-0.576,0.903-0.858,1.326-0.633c0.426,0.228,0.519,0.879,0.211,1.453
		L-301.141,140.338L-301.141,140.338z M-303.372,148.146c-0.19-0.625,0.031-1.242,0.491-1.385c0.46-0.139,0.988,0.256,1.177,0.881
		l0.625,2.068c0.188,0.626-0.031,1.246-0.491,1.387c-0.461,0.139-0.99-0.256-1.179-0.881l-0.62-2.092L-303.372,148.146z"/>
	
		<linearGradient id="SVGID_12_" gradientUnits="userSpaceOnUse" x1="-2722.0884" y1="-1486.1055" x2="-2722.0884" y2="-1578.0938" gradientTransform="matrix(-0.2423 0 0 -0.2423 -949.3337 -226.2726)">
		<stop  offset="0.0056" style="stop-color:#F0F0F0"/>
		<stop  offset="0.5169" style="stop-color:#ADADAD"/>
		<stop  offset="1" style="stop-color:#DBDBDB"/>
	</linearGradient>
	<circle fill="url(#SVGID_12_)" cx="-289.771" cy="144.955" r="11.145"/>
	
		<linearGradient id="SVGID_13_" gradientUnits="userSpaceOnUse" x1="-3761.2524" y1="-1421.3286" x2="-3761.2524" y2="-1367.5625" gradientTransform="matrix(-0.2423 0 0 -0.2423 -949.3337 -226.2726)">
		<stop  offset="0.191" style="stop-color:#626366"/>
		<stop  offset="1" style="stop-color:#BBBDBF"/>
	</linearGradient>
	<path fill="url(#SVGID_13_)" d="M-35.555,117.879c-0.373-0.434-0.608-1.469-1.522-1.889c-0.045-2.661-2.402-8.977-3.922-10.611
		c-0.093-0.102-0.186-0.195-0.273-0.291c1.227,0.432,3.769,1.331,4.368,1.609c0.799,0.369,1.535,1.965,1.658,3.195l0.553,8.047
		c0,0-0.434,0.434-0.867-0.062L-35.555,117.879z"/>
	
		<linearGradient id="SVGID_14_" gradientUnits="userSpaceOnUse" x1="-3152.7417" y1="-1548.0195" x2="-3152.7417" y2="-1539.2578" gradientTransform="matrix(-0.2423 0 0 -0.2423 -949.3337 -226.2726)">
		<stop  offset="0.191" style="stop-color:#626366"/>
		<stop  offset="1" style="stop-color:#BBBDBF"/>
	</linearGradient>
	<polygon fill="url(#SVGID_14_)" points="-246.788,147.309 -124.062,148.812 -124.062,148.207 -246.788,146.689 	"/>
	
		<linearGradient id="SVGID_15_" gradientUnits="userSpaceOnUse" x1="-3152.7417" y1="-1551.7852" x2="-3152.7417" y2="-1544.3086" gradientTransform="matrix(-0.2423 0 0 -0.2423 -949.3337 -226.2726)">
		<stop  offset="0.191" style="stop-color:#626366"/>
		<stop  offset="1" style="stop-color:#BBBDBF"/>
	</linearGradient>
	<polygon fill="url(#SVGID_15_)" points="-246.788,148.518 -124.062,149.725 -124.062,149.121 -246.788,147.913 	"/>
	<path fill="#0F00E7" stroke="#FFFFFF" stroke-width="0.1855" d="M-332.245,95.31c0,0-3.962-0.132-5.25-0.076
		c-1.287,0.058-3.24,0.285-4.018,0.871c-0.778,0.587-2.369,2.464-2.369,2.464s0.284,0.265,0.889,0.265
		c4.36,0.359,7.505,1.08,7.505,1.08l3.253-4.601L-332.245,95.31z"/>
	
		<linearGradient id="SVGID_16_" gradientUnits="userSpaceOnUse" x1="-3121.8481" y1="-1552.4707" x2="-3121.8481" y2="-1085.0186" gradientTransform="matrix(-0.2423 0 0 -0.2423 -949.3337 -226.2726)">
		<stop  offset="0" style="stop-color:#0029FF"/>
		<stop  offset="0.0241" style="stop-color:#0030FF"/>
		<stop  offset="0.1658" style="stop-color:#0057FF"/>
		<stop  offset="0.3132" style="stop-color:#0076FF"/>
		<stop  offset="0.4656" style="stop-color:#008FFF"/>
		<stop  offset="0.625" style="stop-color:#00A0FF"/>
		<stop  offset="0.7963" style="stop-color:#00ABFF"/>
		<stop  offset="1" style="stop-color:#00AEFF"/>
	</linearGradient>
	<path fill="url(#SVGID_16_)" stroke="#FFFFFF" stroke-width="0.1855" d="M-316.569,98.377c2.514-5.143,1.701-7.285,1.366-7.953
		c-0.339-0.681-1.306-2.501-2.272-4.037c-0.968-1.535-1.137-4.662-1.137-4.662c-1.162,1.065-3.016,2.768-5.129,4.771
		c0.12,0.479,0.387,1.535,0.626,2.424c0.322,1.188,0.313,1.416,0.396,1.646c0.152,0.839-0.531,1.002-0.668,0.542
		c-0.122-0.418-0.81-3.03-0.938-4.053c-0.148,0.139-0.297,0.282-0.449,0.424c0.121,0.481,0.387,1.537,0.626,2.419
		c0.322,1.189,0.313,1.417,0.396,1.648c0.15,0.84-0.533,1-0.667,0.541c-0.124-0.415-0.806-3.011-0.939-4.046
		c-0.147,0.143-0.296,0.287-0.444,0.431c0.121,0.486,0.384,1.53,0.621,2.409c0.322,1.188,0.313,1.416,0.395,1.646
		c0.152,0.84-0.533,1.002-0.667,0.542c-0.123-0.412-0.798-2.98-0.938-4.026c-0.146,0.143-0.294,0.287-0.443,0.431
		c0.125,0.496,0.384,1.521,0.617,2.388c0.322,1.188,0.312,1.416,0.396,1.646c0.15,0.84-0.535,1.002-0.669,0.542
		c-0.119-0.409-0.782-2.931-0.932-3.998c-0.146,0.144-0.292,0.29-0.438,0.434c0.127,0.507,0.379,1.509,0.608,2.356
		c0.321,1.188,0.312,1.416,0.396,1.646c0.149,0.841-0.536,1.002-0.67,0.542c-0.118-0.404-0.767-2.864-0.926-3.953l-0.432,0.432
		c0.128,0.519,0.376,1.49,0.598,2.312c0.321,1.188,0.312,1.416,0.395,1.645c0.149,0.841-0.533,1.004-0.669,0.544
		c-0.116-0.396-0.745-2.785-0.918-3.899c-0.141,0.146-0.285,0.29-0.426,0.436c0.133,0.53,0.369,1.459,0.584,2.257
		c0.322,1.188,0.312,1.416,0.394,1.646c0.152,0.839-0.531,1-0.667,0.542c-0.113-0.389-0.72-2.688-0.905-3.831
		c-0.685,0.709-1.354,1.417-1.994,2.113c-0.17,0.185-0.336,0.367-0.5,0.55c-4.833,5.346-7.562,13.986-8.925,18.363
		c-1.366,4.379-4.777,10.576-5.232,11.543c-0.452,0.968,0,1.818-0.111,2.5c-0.115,0.685-1.65,1.479-1.65,1.479l4.235,1.06
		c1.848-2.561,3.498-4.805,4.579-6.289c3.185-4.381,10.121-20.924,19.842-24.675c1.425-0.511,2.633-0.991,3.687-1.394
		L-316.569,98.377z M-76.184,95.821c-22.287,0-42.866,15.92-49.691,46.167c0.111,0.682,0.339,0.682,0.625,0.854
		c1.819,1.592,3.524,2.5,3.413,6.764h10.858c0,0,3.126-0.965,3.811-3.125c0.682-2.16,2.954-14.729,6.764-21.437
		c3.811-6.707,13.189-17.853,27.858-17.853c14.668,0,23.992,11.199,33.83,25.699c2.672,3.924,5.173,5.971,5.401,7.447
		c0.339,1.137,0.909,0.909,1.192,0.799c0.287-0.113,1.707-0.799,1.194-2.275c-0.514-1.478-2.957-8.981-3.753-11.086
		c-0.795-2.104-2.389-9.098-2.389-11.715c0-2.613-2.389-9.037-3.922-10.688c-1.535-1.647-2.161-1.989-4.15-3.013
		c-1.998-1.022-15.257-6.537-31.057-6.537L-76.184,95.821z M-46.087,101.924c-0.466-0.685-1.296-1.791-2.644-3.202
		c-2.332-2.446-9.663-8.699-19.5-12.68c-9.834-3.979-21.433-7.505-43.494-9.323c-5.29-0.454-12.794-0.967-12.794-0.967
		c-0.965,2.559-1.763,4.776-0.965,6.198c0.793,1.42,2.559,3.468,4.094,4.605c13.529,0.228,23.083,1.307,31.271,2.672
		c7.012,1.169,18.403,3.718,26.422,7.677c8.488,1.425,15.041,3.887,17.612,5.018L-46.087,101.924z M-200.412,47.679
		c4.492,0,19.104-0.056,31.384,1.591c12.28,1.649,17.965,5.571,20.639,7.788c2.672,2.22,7.277,9.78,10.121,14.954
		c2.843,5.174,9.325,15.352,9.325,15.352l-0.287,54.522l-83.064,0.967l-0.681-95.173L-200.412,47.679L-200.412,47.679
		L-200.412,47.679z M-210.077,79.448c0,4.265,4.437,4.094,4.437,4.094s58.616-0.284,62.652-0.284c4.036,0,4.607-2.957,4.607-4.548
		c0-1.422-0.513-2.73-1.309-4.208s-5.798-9.608-6.708-11.086c-0.909-1.479-2.842-5.061-8.471-7.392
		c-5.627-2.33-14.213-3.923-22.288-4.718c-8.073-0.798-26.549-0.683-28.825-0.683c-2.272,0-4.094,1.081-4.094,4.037v24.799
		L-210.077,79.448L-210.077,79.448z M-315.856,97.881c8.945-10.538,19.558-20.542,24.259-24.638
		c4.699-4.092,20.695-16.6,37.903-21.072c17.208-4.473,28.958-5.231,40.177-5.231c11.219,0,35.024-0.076,48.365,2.274
		c13.341,2.352,18.723,8.188,21.377,12.432c2.228,3.566,8.093,13.335,9.912,16.37l1.895-1.284c0,0,0.023-0.009,0.065-0.028
		c-1.224-1.927-6.495-10.254-7.703-12.481c-1.441-2.653-9.172-15.237-10.083-17.133c-0.909-1.896-1.365-1.97-2.35-2.426
		c-18.117-5.686-30.625-7.429-52.458-7.96c-21.831-0.531-51.093,1.439-74.518,13.873c-0.835,0.452-0.381,1.061-0.305,1.439
		c0.076,0.379,0.607,2.501-2.044,4.777c-2.654,2.274-15.237,13.645-18.119,16.148c-2.881,2.5-5.685,4.852-6.518,5.078
		c-0.833,0.228-2.501,0.833-3.564-0.152c-1.061-0.986-1.895-2.104-2.35-3.64c-1.517,1.517-6.444,7.353-6.444,7.353
		c0.909,2.881,0.757,3.639,3.109,7.125c2.385,3.5,0.186,7.884-0.573,9.185L-315.856,97.881z M-354.999,146.039l2.9,0.057
		c16.489,0.172,23.936-5.516,28.825-13.703c4.889-8.187,11.997-21.943,32.235-21.943c18.14,0,27.064,13.074,29.394,17.339
		c2.331,4.265,3.755,11.826,4.208,14.384c0.454,2.561,0.965,6.368,3.581,7.278c2.616,0.907,4.491,0.17,6.312-0.058
		c0.284-0.057,0.397-0.285,0.113-0.682c-1.363-1.422-0.17-3.24,0.115-3.979c0.214-0.556,0.297-1.521,0.327-1.971h-0.099
		c-2.216-26.115-13.891-36.102-20.978-41.296c-7.451-5.459-19.048-7.372-31.25-6.69c-6.597,0.153-15.2,2.881-16.678,3.45
		c0.014-0.025,0.028-0.049,0.045-0.076c-1.176,0.455-2.59,1.003-4.31,1.667c-9.721,3.751-16.657,20.296-19.842,24.676
		c-3.191,4.368-11.323,15.351-14.901,21.547L-354.999,146.039L-354.999,146.039z M-315.67,97.68
		c8.908-10.463,19.417-20.367,24.085-24.437c4.7-4.092,20.696-16.6,37.903-21.072c17.172-4.464,28.91-5.228,40.106-5.231
		l0.603,95.82h-34.113c-2.216-26.113-13.891-36.101-20.978-41.296c-7.451-5.458-19.048-7.372-31.25-6.69
		c-6.597,0.153-15.2,2.881-16.678,3.45c0.108-0.202,0.217-0.372,0.325-0.542L-315.67,97.68z M-279.301,78.473
		c0.835,1.97,2.274,5.913,10.081,5.99c7.81,0.075,45.938-0.835,48.517-0.835s4.852-1.439,4.852-4.396v-24.49
		c0-2.73-2.048-4.853-5.307-4.853c-4.396,0-20.771,0.683-35.855,6.217c-15.085,5.533-18.875,11.066-20.848,13.795
		c-1.967,2.726-2.261,6.583-1.425,8.565L-279.301,78.473z M-127.873,87.193c-0.287,17.057-0.682,54.694-0.682,54.694h2.7
		c6.848-30.171,27.404-46.051,49.663-46.051c3.16,0,6.214,0.222,9.102,0.584c-3.368-1.363-13.489-5.172-25.191-6.838
		c-14.385-2.046-28.258-2.389-29.565-2.446c-2.503-2.33-4.492-5.116-4.548-6.14c-0.059-1.024,0.511-3.524,1.308-5.287
		c-2.39-0.285-3.809-0.454-3.809-0.454c-1.763,0.967-3.07,1.478-3.07,1.478l-2.179,1.479c1.905,2.881,6.289,8.969,6.289,8.969
		L-127.873,87.193z"/>
	
		<radialGradient id="SVGID_17_" cx="-3612.1572" cy="-1526.4707" r="25.9976" gradientTransform="matrix(-0.2423 0 0 -0.2423 -949.3337 -226.2726)" gradientUnits="userSpaceOnUse">
		<stop  offset="0.0056" style="stop-color:#595959"/>
		<stop  offset="1" style="stop-color:#969696"/>
	</radialGradient>
	<circle fill="url(#SVGID_17_)" stroke="#808184" stroke-width="0.371" cx="-74.108" cy="143.591" r="6.299"/>
	
		<radialGradient id="SVGID_18_" cx="-2722.0918" cy="-1532.0977" r="26" gradientTransform="matrix(-0.2423 0 0 -0.2423 -949.3337 -226.2726)" gradientUnits="userSpaceOnUse">
		<stop  offset="0.0056" style="stop-color:#595959"/>
		<stop  offset="1" style="stop-color:#969696"/>
	</radialGradient>
	<circle fill="url(#SVGID_18_)" stroke="#808184" stroke-width="0.371" cx="-289.771" cy="144.954" r="6.3"/>
	<path fill="#FFFFFF" stroke="#626366" stroke-width="0.371" d="M-149.001,76.351c-1.137,2.122-2.35,4.168-2.35,4.699
		c-2.046,0.607-6.444,0.607-6.444,0.607c-1.167-6.95-3.711-20.268-4.171-22.667c0.712,0.266,1.388,0.545,2.022,0.838
		c4.928,2.266,6.619,5.748,7.415,7.187c0.535,0.965,2.686,4.849,4.252,7.729c-0.17,0.449-0.403,0.976-0.743,1.611L-149.001,76.351z"
		/>
	<path fill="#FFFFFF" stroke="#626366" stroke-width="0.371" d="M-163.949,58.305l4.415,23.45h-2.729l-4.224-24.187
		c0.883,0.232,1.719,0.48,2.54,0.743L-163.949,58.305z"/>
	<path fill="#FFFFFF" stroke="#626366" stroke-width="0.371" d="M-204.671,54.572c1.989,0,18.162-0.11,25.228,0.665
		c3.597,0.394,7.31,0.99,10.739,1.778l4.549,24.943l-17.285,0.454l-13.947,0.076c-2.198-3.259-4.094-6.216-8.338-5.988
		c-1.137-2.501-1.668-4.169-1.668-4.169c3.487-0.683,5.307-1.365,6.292-3.107c0.987-1.744,0.911-3.185,0.911-4.17
		c0-0.987-0.228-4.853-1.516-6.293c-1.289-1.439-3.413-2.044-4.927-2.044c-2.203,0-2.41,1.747-3.62,3.147v-1.366
		c-0.016-2.866,1.58-3.919,3.578-3.919L-204.671,54.572z"/>
	<path fill="#FFFFFF" stroke="#626366" stroke-width="0.371" d="M-208.265,72.788h1.344c1.137,3.409,1.291,4.016,1.291,4.016
		c-1.205,0.292-2.046,0.581-2.633,0.874v-4.879L-208.265,72.788z"/>
	<path fill="#FFFFFF" stroke="#626366" stroke-width="0.371" d="M-266.32,71.177c1.701-2.229,4.972-6.75,17.923-11.222
		c12.763-4.408,26.572-4.944,30.577-4.938l0.066,11.781c0,4.548,0.076,12.13,0.076,12.13s-0.051,1.844-1.323,2.542
		c-8.366,0.174-34.192,0.858-39.979,0.774c-6.692-0.097-7.908-2.427-8.614-4.047c-0.712-1.626-0.434-4.786,1.271-7.017
		L-266.32,71.177z"/>
	<path fill="#0F00E7" stroke="#FFFFFF" stroke-width="0.1855" d="M-104.112,77.729l-0.665-1.065l-5.056-0.222
		c0,0-0.135-0.31-0.398-0.31h-0.799c0,0-0.311,0.355-0.311,0.753c0,0.403,7.233,0.836,7.233,0.836L-104.112,77.729z"/>
	<path fill="#231F20" d="M-134.286,70.294c0.569,0.398,1.107,0.084,1.393,0.056c0.521-0.051,1.507-0.056,2.417,1.991
		c0.671,1.515,0.971,2.529,1.058,3.186c-1.272,0.668-2.223,1.066-2.472,1.165c-0.046-0.073-0.101-0.157-0.158-0.248
		c0.147-0.337,1.109-2.577,1.002-3.363c-0.115-0.854-0.341-1.877-1.422-1.99c-1.08-0.113-0.737,0.739-0.625,1.137
		c0.11,0.387,0.6,2.128,0.411,3.216c-0.886-1.4-2.208-3.499-3.48-5.544c0.402,0.016,1.425,0.078,1.874,0.387L-134.286,70.294z"/>
	<ellipse fill="#0F00E7" stroke="#FFFFFF" stroke-width="0.1855" cx="-201.264" cy="93.048" rx="4.265" ry="3.696"/>
	
		<linearGradient id="SVGID_19_" gradientUnits="userSpaceOnUse" x1="-3082.4185" y1="-1322.6016" x2="-3082.4185" y2="-1311.3534" gradientTransform="matrix(-0.2423 0 0 -0.2423 -949.3337 -226.2726)">
		<stop  offset="0.191" style="stop-color:#626366"/>
		<stop  offset="1" style="stop-color:#BBBDBF"/>
	</linearGradient>
	<path fill="url(#SVGID_19_)" stroke="#FFFFFF" stroke-width="0.1855" d="M-194.185,92.646c0,0-1.987-0.635-6.843-0.856
		c-4.861-0.22-7.841-0.356-9.387-0.302c-0.415,0-0.608,0.166-0.608,0.689c0,0.525-0.028,1.38-0.028,1.656
		c0,0.277,0.221,0.361,0.581,0.361c0.36,0,7.728-0.747,11.097-0.691c3.369,0.054,4.748,0.22,5.053,0.22
		c0.31,0.016,0.743-0.867,0.139-1.053L-194.185,92.646z"/>
	<circle fill="#808184" stroke="#4E4F51" stroke-width="0.1855" cx="-208.188" cy="92.739" r="0.815"/>
	
		<linearGradient id="SVGID_20_" gradientUnits="userSpaceOnUse" x1="-3359.9458" y1="-1265.375" x2="-3359.9458" y2="-1235.1294" gradientTransform="matrix(-0.2423 0 0 -0.2423 -949.3337 -226.2726)">
		<stop  offset="0.191" style="stop-color:#626366"/>
		<stop  offset="1" style="stop-color:#BBBDBF"/>
	</linearGradient>
	<path fill="url(#SVGID_20_)" stroke="#626366" stroke-width="0.371" d="M-132.396,77.141l-0.417,0.646c0,0-1.211-0.192-1.478-0.192
		s-0.228,0.304-0.228,0.304s-0.265,0.72-0.757,1.1c-0.493,0.38-1.213,1.024-1.44,1.328c-0.682-0.798-1.098-1.97-1.211-3.525
		c-0.115-1.554-0.152-3.224-0.076-3.791c0.605,0.341,2.198,1.629,2.766,2.463c0.568,0.835,0.454,1.403,0.911,1.479
		c0.434,0.077,1.92,0.186,1.92,0.186L-132.396,77.141z"/>
	
		<linearGradient id="SVGID_21_" gradientUnits="userSpaceOnUse" x1="-2456.0366" y1="-1509.5752" x2="-2456.0366" y2="-1435.5504" gradientTransform="matrix(-0.2423 0 0 -0.2423 -949.3337 -226.2726)">
		<stop  offset="0.191" style="stop-color:#626366"/>
		<stop  offset="1" style="stop-color:#BBBDBF"/>
	</linearGradient>
	<path fill="url(#SVGID_21_)" stroke="#FFFFFF" stroke-width="0.1855" d="M-345.039,121.549c-0.816,0.081-4.069,0.404-6.667,0.699
		c-2.995,0.342-6.899,0.725-10.46,2.238c-3.562,1.516-4.207,1.818-4.17,3.222c0.036,1.403,0.682,4.246,0.72,6.179
		c-0.037,0.721-0.494,1.594-0.19,2.198c0.304,0.606,1.517,1.363,3.261,1.63c1.743,0.266,9.74,1.553,14.439,1.744
		c2.274,0.113,2.956,0.035,3.45-1.064c0.494-1.097,2.046-5.078,2.388-6.1c0.339-1.023-0.076-0.872-0.113-1.63
		c-0.037-0.757-0.759-0.985-2.805-1.479c-2.048-0.494-6.899-0.756-10.197-1.365c-3.298-0.604-5.306-1.174-5.346-1.969
		c-0.037-0.799,3.866-1.781,6.066-2.047c2.043-0.248,7.593-0.754,8.911-0.826c0.232-0.435,0.573-1.115,0.697-1.44L-345.039,121.549z
		"/>
	
		<linearGradient id="SVGID_22_" gradientUnits="userSpaceOnUse" x1="-3801.9053" y1="-1498.9141" x2="-3801.9053" y2="-1433.9141" gradientTransform="matrix(-0.2423 0 0 -0.2423 -949.3337 -226.2726)">
		<stop  offset="0.191" style="stop-color:#626366"/>
		<stop  offset="1" style="stop-color:#BBBDBF"/>
	</linearGradient>
	<path fill="url(#SVGID_22_)" stroke="#FFFFFF" stroke-width="0.1855" d="M-36.236,121.781c1.251,0.34,4.164,1.131,5.726,1.559
		c2.029,0.553,5.589,1.227,5.837,2.209c0.248,0.985-1.473,0.678-1.964,0.678c-0.491,0-5.774,0.306-6.451,1.412
		c-0.677,1.105-0.491,1.476-1.167,2.334c-0.676,0.859-0.615,4.67-0.429,5.529s0.677,1.412,3.684,1.412
		c3.011,0,7.188-0.062,8.722-0.613c1.535-0.555,1.721-3.316,1.905-4.361c0.183-1.045,0.615-4.055,0.429-4.791
		c-0.186-0.737-1.229-1.352-2.334-1.78c-1.092-0.427-2.844-1.572-14.088-4.203c0.016,0.153,0.062,0.31,0.124,0.604L-36.236,121.781z
		"/>
	
		<linearGradient id="SVGID_23_" gradientUnits="userSpaceOnUse" x1="-3056.21" y1="-1313.8047" x2="-3056.21" y2="-1289.6367" gradientTransform="matrix(-0.2423 0 0 -0.2423 -949.3337 -226.2726)">
		<stop  offset="0.191" style="stop-color:#626366"/>
		<stop  offset="1" style="stop-color:#BBBDBF"/>
	</linearGradient>
	<path fill="url(#SVGID_23_)" stroke="#626366" stroke-width="0.371" d="M-287.572,92.042c-0.682,0.152-0.985-0.605-0.302-0.833
		c6.065-1.364,25.243-3.79,37.07-4.321c10.931-0.491,34.043-0.658,37.471-0.679l0.011,1.588c-8.702,0.001-29.091,0.081-37.406,0.454
		c-8.411,0.387-18.262,0.759-36.834,3.795L-287.572,92.042z M-212.695,87.797c14.77,0.011,83.325,0.835,83.325,0.835v-1.289
		c0,0-34.097-1.134-83.339-1.137l0.016,1.58L-212.695,87.797z"/>
	<path fill="#DFE0E1" d="M-337.945,120.93c-0.328-0.64-0.573-1.488-0.688-2.623c-0.191-1.856,0.113-8.908,0.113-8.908
		c0.075-1.518,1.291-3.866,1.593-4.475c0.303-0.605,0.985-1.287,1.97-1.438c0.985-0.151,3.185-0.303,5.536-0.303
		c1.375,0,3.03-0.131,4.171-0.238c-5.483,4.771-9.805,12.871-12.686,17.969L-337.945,120.93z"/>
	<path fill="#FFDE00" d="M-335.9,117.305c-0.965,0.06-2.025,0.109-2.784,0.104c-0.07-2.589,0.164-8.009,0.164-8.009
		c0.006-0.15,0.03-0.314,0.058-0.483c1.055,0.065,3.499,0.181,7.76,0.169c-1.967,2.695-3.718,5.607-5.205,8.21L-335.9,117.305z"/>
	<path fill="#F6921E" d="M-330.695,109.08c-4.262,0.01-6.706-0.102-7.761-0.169c0.257-1.488,1.261-3.44,1.535-3.987
		c0.304-0.605,0.985-1.287,1.97-1.438c0.985-0.151,3.185-0.303,5.536-0.303c1.375,0,3.03-0.131,4.171-0.238
		c-1.967,1.703-3.779,3.842-5.437,6.117L-330.695,109.08z"/>
	<g>
		<path fill="#FFFFFF" stroke="#EC1C24" stroke-width="0.0532" d="M-62.653-139.054c-2.623,1.145-4.496,6.191-5.355,7.527
			c-0.292,0.452-0.737,1.137-1.235,1.918l-1.144-0.323c0,0,0.415-0.243,0.445-0.452c0.03-0.208-0.092-0.468,0.03-0.762
			c0.123-0.295,1.043-2.185,1.412-3.521c0.368-1.335,1.104-3.971,2.409-5.601c0.213-0.266,0.439-0.539,0.673-0.812
			c0.05,0.348,0.213,1.05,0.244,1.168c0.037,0.14,0.221,0.091,0.18-0.166c-0.022-0.07-0.019-0.14-0.106-0.502
			c-0.058-0.243-0.122-0.526-0.158-0.688c0.038-0.045,0.077-0.089,0.115-0.133c0.046,0.34,0.216,1.068,0.248,1.189
			c0.037,0.141,0.221,0.091,0.181-0.166c-0.023-0.07-0.02-0.139-0.107-0.501c-0.06-0.251-0.126-0.547-0.161-0.705
			c0.039-0.044,0.078-0.088,0.117-0.132c0.043,0.332,0.218,1.083,0.25,1.206c0.036,0.141,0.221,0.091,0.181-0.166
			c-0.022-0.07-0.02-0.14-0.106-0.502c-0.062-0.258-0.13-0.564-0.165-0.718c0.04-0.044,0.078-0.088,0.118-0.133
			c0.04,0.325,0.219,1.095,0.252,1.22c0.036,0.141,0.221,0.091,0.181-0.166c-0.022-0.07-0.02-0.14-0.107-0.502
			c-0.063-0.265-0.133-0.578-0.167-0.729c0.04-0.044,0.08-0.088,0.12-0.132c0.038,0.319,0.22,1.103,0.253,1.228
			c0.037,0.141,0.221,0.091,0.18-0.165c-0.022-0.07-0.02-0.14-0.107-0.502c-0.064-0.268-0.135-0.586-0.167-0.734
			c0.041-0.044,0.08-0.088,0.12-0.132c0.036,0.315,0.22,1.108,0.253,1.234c0.037,0.141,0.221,0.091,0.18-0.165
			c-0.022-0.07-0.02-0.14-0.107-0.502c-0.064-0.27-0.136-0.591-0.168-0.738c0.041-0.044,0.081-0.087,0.121-0.129
			c0.035,0.312,0.22,1.109,0.253,1.236c0.037,0.14,0.221,0.091,0.18-0.165c-0.022-0.071-0.02-0.14-0.106-0.503
			c-0.064-0.271-0.137-0.593-0.169-0.739c0.57-0.611,1.071-1.13,1.384-1.455c0,0,0.046,0.954,0.307,1.422
			c0.261,0.469,0.521,1.023,0.613,1.231c0.09,0.203,0.31,0.857-0.368,2.425c-0.28,0.114-0.606,0.26-0.991,0.425L-62.653-139.054z"/>
		<path fill="#FFFFFF" stroke="#EC1C24" stroke-width="0.0532" d="M3.22-140.268c-6.015,0-11.569,4.856-13.411,14.081
			c0.03,0.208,0.091,0.208,0.169,0.261c0.49,0.485,0.951,0.762,0.921,2.062h2.931c0,0,0.843-0.294,1.029-0.953
			c0.184-0.659,0.797-4.492,1.825-6.538c1.029-2.046,3.56-5.445,7.519-5.445c3.958,0,6.475,3.416,9.13,7.838
			c0.721,1.196,1.396,1.821,1.458,2.271c0.091,0.346,0.245,0.277,0.322,0.243c0.077-0.034,0.46-0.243,0.322-0.694
			c-0.139-0.451-0.798-2.739-1.013-3.381c-0.214-0.642-0.645-2.775-0.645-3.573c0-0.797-0.645-2.756-1.059-3.26
			c-0.414-0.502-0.583-0.606-1.12-0.918c-0.539-0.312-4.118-1.994-8.382-1.994L3.22-140.268z"/>
		<path fill="#FFFFFF" stroke="#EC1C24" stroke-width="0.0532" d="M6.594-139.938c-2.165-1.207-5.239-1.984-7.132-2.341
			c-2.209-0.416-4.789-0.745-8.439-0.814c-0.414-0.347-0.891-0.971-1.105-1.405s0-1.11,0.261-1.891c0,0,2.025,0.157,3.453,0.295
			c5.954,0.554,9.084,1.63,11.739,2.843c2.655,1.214,4.634,3.122,5.263,3.867c0.364,0.431,0.588,0.768,0.714,0.977
			c-0.698-0.349-2.467-1.101-4.753-1.535L6.594-139.938z"/>
		<path fill="#FFFFFF" stroke="#EC1C24" stroke-width="0.0532" d="M-61.298-142.441c-0.635-1.063-0.594-1.294-0.839-2.173
			c0,0,1.33-1.78,1.739-2.242c0.123,0.468,0.348,0.809,0.634,1.11c0.287,0.301,0.737,0.116,0.962,0.046
			c0.225-0.069,0.982-0.787,1.76-1.548c0.777-0.764,4.174-4.232,4.89-4.925c0.716-0.694,0.573-1.341,0.552-1.457
			c-0.02-0.115-0.143-0.301,0.083-0.439c6.322-3.792,14.22-4.393,20.112-4.231c5.893,0.162,9.268,0.694,14.158,2.428
			c0.266,0.139,0.389,0.162,0.634,0.74c0.246,0.578,2.332,4.416,2.721,5.225c0.326,0.68,1.749,3.219,2.079,3.807
			c-0.011,0.006-0.017,0.009-0.017,0.009l-0.512,0.392c-0.491-0.925-2.074-3.905-2.675-4.993c-0.717-1.295-2.169-3.075-5.77-3.792
			c-3.601-0.717-10.025-0.693-13.053-0.693c-3.028,0-6.2,0.231-10.844,1.596c-4.645,1.364-8.961,5.179-10.23,6.427
			c-1.268,1.249-4.133,4.301-6.547,7.514c0.192-0.396,0.786-1.734,0.155-2.801L-61.298-142.441z"/>
		<path fill="#FFFFFF" stroke="#EC1C24" stroke-width="0.0532" d="M-68.012-131.528c0.86-1.336,2.732-6.381,5.355-7.526
			c0.464-0.202,0.846-0.369,1.163-0.508c-0.005,0.008-0.009,0.016-0.012,0.023c0.399-0.173,2.721-1.005,4.501-1.053
			c3.293-0.207,6.424,0.376,8.435,2.041c1.913,1.584,5.064,4.63,5.662,12.595h0.027c-0.008,0.138-0.03,0.432-0.088,0.601
			c-0.077,0.226-0.399,0.78-0.031,1.214c0.077,0.121,0.045,0.19-0.031,0.208c-0.491,0.069-0.997,0.295-1.704,0.018
			c-0.706-0.277-0.844-1.439-0.966-2.219s-0.507-3.087-1.136-4.388c-0.629-1.3-3.037-5.288-7.933-5.288
			c-5.462,0-7.381,4.196-8.7,6.693c-1.319,2.497-3.33,4.231-7.779,4.179l-0.783-0.017
			C-71.063-126.842-68.868-130.191-68.012-131.528L-68.012-131.528L-68.012-131.528z"/>
		<path fill="#FFFFFF" stroke="#EC1C24" stroke-width="0.0532" d="M-61.503-139.535c0.399-0.174,2.721-1.006,4.501-1.053
			c3.294-0.208,6.424,0.375,8.435,2.041c1.913,1.584,5.063,4.631,5.662,12.595h9.207l-0.163-29.225
			c-3.022,0.001-6.189,0.234-10.824,1.596c-4.645,1.365-8.961,5.179-10.23,6.427c-1.26,1.24-4.096,4.262-6.5,7.453
			C-61.445-139.649-61.475-139.597-61.503-139.535L-61.503-139.535z M-51.214-148.171c0.532-0.833,1.555-2.52,5.626-4.208
			c4.071-1.688,8.491-1.896,9.677-1.896c0.879,0,1.432,0.647,1.432,1.48v7.468c0,0.902-0.613,1.341-1.309,1.341
			c-0.696,0-10.986,0.277-13.094,0.254c-2.107-0.024-2.496-1.225-2.721-1.827c-0.226-0.605-0.146-1.781,0.385-2.613L-51.214-148.171
			L-51.214-148.171z"/>
		<path fill="#FFFFFF" stroke="#EC1C24" stroke-width="0.0532" d="M-12.423-145.64l0.588-0.451c0,0,0.353-0.156,0.829-0.451
			c0,0,0.383,0.052,1.028,0.139c-0.215,0.538-0.369,1.3-0.353,1.613c0.015,0.312,0.552,1.162,1.228,1.873
			c0.353,0.018,4.097,0.122,7.979,0.746c3.158,0.508,5.89,1.669,6.799,2.085c-0.779-0.11-1.604-0.178-2.456-0.178
			c-6.008,0-11.555,4.843-13.404,14.045h-0.729c0,0,0.106-11.479,0.184-16.682c-0.004,0.005-1.188-1.852-1.697-2.736L-12.423-145.64
			z"/>
		<path fill="#231F20" d="M-63.472-143.107c0,0-1.767,1.95-2.045,2.254s-0.114,0.911-0.114,0.911l0.723,0.351l1.52-0.748
			l0.485-1.623l-0.568-1.147L-63.472-143.107z"/>
		<polygon fill="#231F20" points="-61.955,-144.614 -62.364,-144.241 -62.159,-142.762 -61.545,-141.562 -61.75,-140.173 
			-62.159,-138.926 -61.135,-138.926 -60.521,-139.989 -60.399,-141.746 -60.604,-143.504 		"/>
		<path fill="#231F20" d="M-6.232-124.171c0,0,1.043,1.942,3.345,2.739s10.496-0.139,10.496-0.139l3.53-4.508
			c0,0,1.12-0.138,1.381-0.017c0.26,0.121,0.368,0.589,0.522,0.798c0.153,0.208,0.199,0.312,0.292,0.329
			c0.091,0.017,0.23-0.434,0.292-0.59c0.062-0.156,0.123-0.642,0.261-0.728c0.138-0.087,0.829-0.33,0.997-0.33
			c0.168,0,0.062-0.399,0.062-0.399l-0.721-1.075l-2.654-4.612l-2.517-3.294l-5.708-1.838l-4.665,1.387l-3.253,4.89l-1.979,5.341
			l0.326,2.036L-6.232-124.171z"/>
		<path fill="#231F20" d="M-44.973-124.545c0,0-0.716,1.156-1.023,1.525c-0.307,0.37-0.756,0.902-1.473,1.272
			c-0.716,0.37-14.527-2.058-14.527-2.058s-1.534,0-1.84-0.046c-0.308-0.046-0.593-0.393-0.758-0.67
			c-0.163-0.277-0.306-0.532-0.613-0.532s-0.86-0.186-0.92,0c-0.062,0.185-0.144,0.532-0.287,0.485
			c-0.143-0.046,0.246-0.439-0.307-0.485c-0.552-0.046-1.33-0.093-1.493-0.093c-0.163,0-0.511,0.416-0.839,0.579
			c-0.328,0.162-0.184,0.438-1.084,0.369c-0.9-0.068-1.207-0.947-1.207-0.947l2.414-0.694l2.68-1.295l2.394-3.468l1.759-2.242
			l3.253-2.844l2.68-0.994l4.48,0.832l2.62,1.086l2.476,3.006l1.493,3.029l0.327,3.236l-0.2,0.955L-44.973-124.545z"/>
		<path fill="#231F20" d="M-10.785-126.369l0.9,0.023l0.777,1.133l0.123,1.225c0,0-0.266,0.253-0.512,0.277
			c-9.718-0.069-33.737-0.323-33.737-0.323l-0.164-1.064l0.266-0.532l-0.004-0.589l0.802-0.382l10.25-0.439l10.271-0.532
			l9.903,0.925l0.613,0.185l0.062,0.116l0.447-0.019L-10.785-126.369z"/>
		<polygon points="-10.517,-127.271 -10.68,-125.84 -34.292,-125.792 -41.127,-133.285 -52.707,-145.214 -50.579,-150.023 
			-47.962,-151.734 -44.685,-153.123 -39.367,-154.46 -34.455,-154.786 -33.677,-155.943 -22.878,-155.57 -17.599,-153.997 
			-15.592,-152.334 -11.667,-145.304 -10.111,-142.762 -9.823,-132.633 		"/>
		<polygon fill="#231F20" points="-69.208,-132.185 -69.852,-132.185 -71.081,-132.01 -72.581,-131.873 -73.932,-131.249 
			-73.472,-130.209 -71.691,-129.619 -69.789,-129.898 -69.358,-130.625 		"/>
		
			<linearGradient id="SVGID_24_" gradientUnits="userSpaceOnUse" x1="-3618.2427" y1="-419.6055" x2="-3618.2427" y2="-412.7852" gradientTransform="matrix(-0.2423 0 0 -0.2423 -949.3337 -226.2726)">
			<stop  offset="0.191" style="stop-color:#626366"/>
			<stop  offset="1" style="stop-color:#BBBDBF"/>
		</linearGradient>
		<path fill="url(#SVGID_24_)" stroke="#FFFFFF" stroke-width="0.0532" d="M-72.143-126.255c0,0-1.33,0.011-1.565,0.011
			s-0.593,0.139-0.349,0.532c0.246,0.394,0.614,1.099,0.614,1.099s0.164,0.012,0.226,0.012c0.061,0,1.237-0.046,1.299-0.046
			c0.061,0,0.051-0.324,0.061-0.358c0.01-0.035,0.604-0.162,0.604-0.162l0.123-0.59l-1.016-0.496L-72.143-126.255z"/>
		<path fill="#0F00E7" stroke="#FFFFFF" stroke-width="0.0532" d="M-72.05-127.573c0,0-0.297,1.769-0.154,2.127
			c0.144,0.359,0.501,0.359,0.501,0.359l1.35-2.116L-72.05-127.573L-72.05-127.573z"/>
		<polygon fill="#231F20" points="13.726,-132.567 17.083,-131.504 17.409,-130.97 16.59,-130.715 14.708,-129.771 14.236,-129.907 
					"/>
		<polygon fill="#231F20" points="-9.744,-146.301 -10.078,-144.926 -8.924,-143.282 -4.28,-143.05 1.766,-142.148 6.882,-140.079 
			6.627,-139.72 5.49,-139.838 0.612,-141.548 -5.935,-142.394 -9.292,-142.658 -10.538,-144.198 -10.508,-145.616 
			-10.141,-146.333 		"/>
		<path fill="#231F20" d="M-31.549-144.009c-0.11,0.001-0.168,0.001-0.168,0.001S-31.659-144.008-31.549-144.009L-31.549-144.009z
			 M-32.36-144.17c-0.021-0.011-0.041-0.025-0.061-0.039v0.002c0.017,0.014,0.038,0.028,0.059,0.038L-32.36-144.17z M-32.917-152.82
			v7.56c0,0.576,0.235,0.884,0.497,1.052c-0.001-0.031-0.005-0.06-0.005-0.092v-7.352c0-0.876,0.43-1.197,0.967-1.197
			c0.537,0,4.902-0.033,6.809,0.203c1.907,0.236,3.935,0.708,5.265,1.399c1.329,0.691,1.786,1.753,2,2.192
			c0.215,0.438,1.397,2.85,1.585,3.288c0.188,0.439,0.309,0.826,0.309,1.248c0,0.122-0.009,0.271-0.039,0.424
			c0.362,0,0.612-0.002,0.72-0.002c1.089,0,1.243-0.901,1.243-1.387c0-0.433-0.138-0.833-0.354-1.283
			c-0.214-0.451-1.564-2.931-1.81-3.381c-0.246-0.451-0.768-1.543-2.286-2.254c-1.519-0.711-3.836-1.196-6.016-1.439
			c-2.179-0.244-7.166-0.208-7.779-0.208c-0.619,0-1.108,0.33-1.108,1.232L-32.917-152.82z M-31.854-144.019
			c-0.083-0.008-0.195-0.027-0.315-0.069c0.117,0.047,0.23,0.066,0.313,0.07L-31.854-144.019z"/>
		<path fill="#231F20" d="M-51.6-145.559c0.226,0.601,0.614,1.804,2.721,1.827c2.108,0.023,12.398-0.255,13.095-0.255
			c0.696,0,1.31-0.438,1.31-1.341v-7.469c0-0.833-0.553-1.48-1.433-1.48c-1.186,0-5.606,0.208-9.677,1.896
			c-4.071,1.688-5.094,3.375-5.626,4.208c-0.531,0.832-0.61,2.008-0.385,2.612L-51.6-145.559z M-48.096-147.784
			c0.459-0.68,1.342-2.059,4.837-3.422c3.445-1.345,7.172-1.508,8.253-1.506l0.018,3.593c0,1.387,0.021,3.7,0.021,3.7
			s-0.014,0.562-0.357,0.775c-2.258,0.053-9.228,0.262-10.79,0.236c-1.806-0.029-2.134-0.74-2.325-1.234
			C-48.632-146.139-48.557-147.103-48.096-147.784L-48.096-147.784z"/>
		
			<linearGradient id="SVGID_25_" gradientUnits="userSpaceOnUse" x1="-3690.625" y1="-318.1562" x2="-3684.7668" y2="-312.2836" gradientTransform="matrix(-0.2423 0 0 -0.2423 -949.3337 -226.2726)">
			<stop  offset="0.0281" style="stop-color:#BBBDBF"/>
			<stop  offset="1" style="stop-color:#FFFFFF"/>
		</linearGradient>
		<path fill="url(#SVGID_25_)" stroke="#231F20" stroke-width="0.0532" d="M-51.604-153.628c0.021,0.116,0.164,0.763-0.551,1.457
			c-0.716,0.694-4.113,4.162-4.89,4.925c-0.778,0.763-1.535,1.479-1.759,1.548c-0.225,0.07-0.675,0.254-0.962-0.046
			c-0.256-0.27-0.462-0.571-0.591-0.966c1.258-1.415,3.427-3.358,4.821-4.375c1.281-0.935,3.451-2.468,3.882-2.772
			c0.004,0.09,0.046,0.175,0.055,0.236L-51.604-153.628z"/>
		<path fill="#231F20" d="M-60.061-146.646c0.104,0.249,0.253,0.474,0.465,0.697c0.159,0.167,0.461,0.069,0.661,0.004l0.067-0.022
			c0.104-0.037,0.478-0.325,1.665-1.491l2.265-2.283c1.102-1.117,2.243-2.272,2.626-2.643c0.233-0.226,0.49-0.571,0.49-0.991
			c0-0.011-0.003-0.023-0.003-0.035l-0.1-0.256c0.119-0.084,0.213-0.151,0.272-0.193c0,0.084,0.041,0.167,0.052,0.229
			c0.02,0.116,0.164,0.763-0.552,1.457c-0.716,0.694-4.112,4.162-4.89,4.925c-0.777,0.762-1.534,1.479-1.759,1.548
			c-0.225,0.069-0.675,0.254-0.962-0.046c-0.256-0.269-0.462-0.57-0.592-0.966c0.059-0.067,0.122-0.135,0.185-0.203
			c0.042,0.099,0.083,0.193,0.117,0.273L-60.061-146.646z"/>
		
			<radialGradient id="SVGID_26_" cx="-4766.0117" cy="-665.6484" r="116.3887" gradientTransform="matrix(-0.0654 0 0 -0.0739 -307.8931 -174.8903)" gradientUnits="userSpaceOnUse">
			<stop  offset="0" style="stop-color:#FFFFFF"/>
			<stop  offset="1" style="stop-color:#000000"/>
		</radialGradient>
		<ellipse fill="url(#SVGID_26_)" cx="3.781" cy="-125.698" rx="7.611" ry="8.601"/>
		
			<radialGradient id="SVGID_27_" cx="-4766.0117" cy="-665.6484" r="96.9941" gradientTransform="matrix(-0.0654 0 0 -0.0739 -307.8931 -174.8903)" gradientUnits="userSpaceOnUse">
			<stop  offset="0.8483" style="stop-color:#FFFFFF"/>
			<stop  offset="1" style="stop-color:#BBBDBF"/>
		</radialGradient>
		<ellipse fill="url(#SVGID_27_)" cx="3.781" cy="-125.698" rx="6.343" ry="7.168"/>
		
			<radialGradient id="SVGID_28_" cx="-4766.0781" cy="-665.6484" r="78.2188" gradientTransform="matrix(-0.0654 0 0 -0.0739 -307.8931 -174.8903)" gradientUnits="userSpaceOnUse">
			<stop  offset="0.8146" style="stop-color:#626366"/>
			<stop  offset="1" style="stop-color:#BBBDBF"/>
		</radialGradient>
		<ellipse fill="url(#SVGID_28_)" cx="3.785" cy="-125.698" rx="5.115" ry="5.781"/>
		<ellipse fill="#231F20" cx="3.781" cy="-125.698" rx="3.919" ry="4.429"/>
		
			<radialGradient id="SVGID_29_" cx="205.4795" cy="-64.9844" r="15.2378" gradientTransform="matrix(0.2699 0 0 0.305 -51.6752 -105.8777)" gradientUnits="userSpaceOnUse">
			<stop  offset="0.8202" style="stop-color:#8A8C8F"/>
			<stop  offset="1" style="stop-color:#626366"/>
		</radialGradient>
		<path fill="url(#SVGID_29_)" d="M-0.329-125.698c0,2.567,1.84,4.647,4.111,4.647c2.271,0,4.113-2.08,4.113-4.647
			s-1.842-4.647-4.113-4.647c-2.274,0-4.113,2.079-4.113,4.649L-0.329-125.698z M7.317-126.255
			c-0.124,0.042-0.267-0.078-0.318-0.269l-0.168-0.631c-0.051-0.191,0.008-0.38,0.133-0.422c0.124-0.042,0.267,0.078,0.318,0.269
			l0.168,0.63c0.05,0.184-0.008,0.374-0.134,0.416L7.317-126.255z M6.574-123.708l0.275-0.582c0.083-0.176,0.243-0.261,0.358-0.192
			c0.114,0.07,0.14,0.268,0.056,0.443l-0.275,0.582c-0.083,0.174-0.244,0.261-0.358,0.191c-0.113-0.071-0.139-0.269-0.055-0.444
			L6.574-123.708z M5.545-128.854l-0.514-0.312c-0.155-0.094-0.231-0.275-0.171-0.405c0.062-0.13,0.238-0.159,0.393-0.065
			l0.514,0.312c0.156,0.094,0.232,0.276,0.171,0.405c-0.062,0.132-0.238,0.161-0.393,0.066V-128.854z M4.513-122.06l0.558-0.191
			c0.169-0.057,0.336,0.01,0.374,0.149c0.039,0.142-0.069,0.302-0.237,0.36l-0.559,0.19c-0.168,0.057-0.336-0.01-0.374-0.15
			c-0.042-0.142,0.063-0.302,0.234-0.359L4.513-122.06z M3.053-129.336l-0.558,0.191c-0.169,0.057-0.336-0.01-0.375-0.15
			c-0.037-0.14,0.069-0.301,0.238-0.359l0.558-0.19c0.169-0.058,0.336,0.009,0.375,0.149C3.329-129.553,3.224-129.393,3.053-129.336
			L3.053-129.336z M1.628-122.48c0.061-0.129,0.237-0.158,0.392-0.064l0.514,0.312c0.155,0.094,0.232,0.275,0.17,0.404
			c-0.061,0.13-0.236,0.159-0.393,0.064l-0.514-0.312c-0.154-0.089-0.23-0.274-0.171-0.401L1.628-122.48z M0.716-127.11
			c-0.083,0.176-0.243,0.263-0.358,0.193c-0.114-0.07-0.14-0.268-0.056-0.444l0.275-0.581c0.083-0.175,0.244-0.261,0.358-0.192
			c0.115,0.07,0.141,0.269,0.057,0.443l-0.28,0.581H0.716z M0.114-124.725c-0.051-0.19,0.008-0.379,0.132-0.422
			c0.125-0.043,0.267,0.078,0.318,0.268l0.168,0.63c0.051,0.19-0.008,0.38-0.132,0.422c-0.124,0.043-0.267-0.077-0.317-0.269
			l-0.167-0.632L0.114-124.725z"/>
		
			<linearGradient id="SVGID_30_" gradientUnits="userSpaceOnUse" x1="-3933.613" y1="-401.0547" x2="-3933.613" y2="-429.1133" gradientTransform="matrix(-0.2423 0 0 -0.2423 -949.3337 -226.2726)">
			<stop  offset="0.0056" style="stop-color:#F0F0F0"/>
			<stop  offset="0.5169" style="stop-color:#ADADAD"/>
			<stop  offset="1" style="stop-color:#DBDBDB"/>
		</linearGradient>
		<ellipse fill="url(#SVGID_30_)" cx="3.781" cy="-125.698" rx="3.008" ry="3.399"/>
		
			<radialGradient id="SVGID_31_" cx="-3875.9453" cy="-671.2773" r="116.3848" gradientTransform="matrix(-0.0654 0 0 -0.0739 -307.8931 -174.8903)" gradientUnits="userSpaceOnUse">
			<stop  offset="0" style="stop-color:#FFFFFF"/>
			<stop  offset="1" style="stop-color:#000000"/>
		</radialGradient>
		<ellipse fill="url(#SVGID_31_)" cx="-54.425" cy="-125.282" rx="7.611" ry="8.601"/>
		
			<radialGradient id="SVGID_32_" cx="-3875.9453" cy="-671.2734" r="96.9922" gradientTransform="matrix(-0.0654 0 0 -0.0739 -307.8931 -174.8903)" gradientUnits="userSpaceOnUse">
			<stop  offset="0.8483" style="stop-color:#FFFFFF"/>
			<stop  offset="1" style="stop-color:#BBBDBF"/>
		</radialGradient>
		<ellipse fill="url(#SVGID_32_)" cx="-54.425" cy="-125.282" rx="6.343" ry="7.168"/>
		
			<radialGradient id="SVGID_33_" cx="-3875.9531" cy="-671.2773" r="78.2246" gradientTransform="matrix(-0.0654 0 0 -0.0739 -307.8931 -174.8903)" gradientUnits="userSpaceOnUse">
			<stop  offset="0.8146" style="stop-color:#626366"/>
			<stop  offset="1" style="stop-color:#BBBDBF"/>
		</radialGradient>
		<ellipse fill="url(#SVGID_33_)" cx="-54.425" cy="-125.282" rx="5.116" ry="5.781"/>
		<ellipse fill="#231F20" cx="-54.425" cy="-125.282" rx="3.92" ry="4.429"/>
		
			<radialGradient id="SVGID_34_" cx="-10.1992" cy="-63.623" r="15.2373" gradientTransform="matrix(0.2699 0 0 0.305 -51.6752 -105.8777)" gradientUnits="userSpaceOnUse">
			<stop  offset="0.8202" style="stop-color:#8A8C8F"/>
			<stop  offset="1" style="stop-color:#626366"/>
		</radialGradient>
		<path fill="url(#SVGID_34_)" d="M-58.539-125.282c0,2.566,1.841,4.646,4.112,4.646s4.112-2.08,4.112-4.646
			c0-2.568-1.841-4.648-4.112-4.648c-2.27,0-4.114,2.079-4.114,4.649L-58.539-125.282z M-50.888-125.84
			c-0.125,0.042-0.267-0.078-0.318-0.268l-0.168-0.631c-0.051-0.191,0.009-0.38,0.133-0.423c0.124-0.042,0.267,0.078,0.317,0.269
			l0.169,0.632C-50.705-126.072-50.764-125.884-50.888-125.84L-50.888-125.84z M-51.633-123.293l0.275-0.58
			c0.083-0.177,0.244-0.262,0.358-0.193c0.114,0.069,0.14,0.268,0.056,0.443l-0.275,0.581c-0.083,0.175-0.244,0.262-0.358,0.192
			c-0.117-0.071-0.143-0.27-0.059-0.444L-51.633-123.293z M-52.665-128.438l-0.514-0.312c-0.156-0.095-0.231-0.275-0.171-0.405
			c0.062-0.129,0.238-0.158,0.393-0.064l0.514,0.312c0.155,0.095,0.231,0.275,0.17,0.405c-0.062,0.132-0.238,0.16-0.393,0.066
			L-52.665-128.438z M-53.698-121.645l0.559-0.19c0.169-0.058,0.336,0.009,0.374,0.149c0.038,0.141-0.069,0.301-0.238,0.359
			l-0.558,0.19c-0.169,0.058-0.336-0.009-0.374-0.15c-0.038-0.142,0.067-0.302,0.234-0.359L-53.698-121.645z M-55.152-128.92
			l-0.559,0.191c-0.169,0.057-0.336-0.01-0.374-0.15c-0.038-0.14,0.068-0.302,0.238-0.359l0.558-0.19
			c0.169-0.058,0.336,0.009,0.374,0.15C-54.878-129.137-54.986-128.976-55.152-128.92L-55.152-128.92z M-56.578-122.065
			c0.061-0.129,0.237-0.158,0.392-0.063l0.514,0.311c0.156,0.095,0.232,0.276,0.17,0.405c-0.061,0.129-0.237,0.158-0.393,0.064
			l-0.514-0.311c-0.159-0.1-0.234-0.284-0.171-0.411L-56.578-122.065z M-57.494-126.69c-0.083,0.176-0.244,0.263-0.358,0.193
			c-0.114-0.069-0.14-0.268-0.057-0.443l0.275-0.581c0.083-0.176,0.244-0.262,0.358-0.193c0.115,0.069,0.14,0.268,0.057,0.443
			L-57.494-126.69L-57.494-126.69z M-58.096-124.309c-0.051-0.19,0.009-0.379,0.133-0.422c0.124-0.042,0.267,0.078,0.317,0.269
			l0.169,0.631c0.051,0.191-0.008,0.38-0.133,0.423c-0.124,0.042-0.267-0.078-0.318-0.268l-0.167-0.639L-58.096-124.309z"/>
		
			<linearGradient id="SVGID_35_" gradientUnits="userSpaceOnUse" x1="-3693.3892" y1="-402.7734" x2="-3693.3892" y2="-430.8281" gradientTransform="matrix(-0.2423 0 0 -0.2423 -949.3337 -226.2726)">
			<stop  offset="0.0056" style="stop-color:#F0F0F0"/>
			<stop  offset="0.5169" style="stop-color:#ADADAD"/>
			<stop  offset="1" style="stop-color:#DBDBDB"/>
		</linearGradient>
		<ellipse fill="url(#SVGID_35_)" cx="-54.425" cy="-125.282" rx="3.008" ry="3.399"/>
		
			<linearGradient id="SVGID_36_" gradientUnits="userSpaceOnUse" x1="-3973.8518" y1="-383.0156" x2="-3973.8518" y2="-366.6172" gradientTransform="matrix(-0.2423 0 0 -0.2423 -949.3337 -226.2726)">
			<stop  offset="0.191" style="stop-color:#626366"/>
			<stop  offset="1" style="stop-color:#BBBDBF"/>
		</linearGradient>
		<path fill="url(#SVGID_36_)" d="M14.186-133.54c-0.101-0.132-0.164-0.448-0.411-0.576c-0.013-0.812-0.648-2.738-1.059-3.236
			c-0.025-0.031-0.05-0.06-0.074-0.089c0.331,0.132,1.017,0.406,1.179,0.491c0.216,0.112,0.414,0.599,0.448,0.974l0.149,2.455
			c0,0-0.117,0.132-0.234-0.019L14.186-133.54z"/>
		
			<linearGradient id="SVGID_37_" gradientUnits="userSpaceOnUse" x1="-3809.6196" y1="-421.6562" x2="-3809.6196" y2="-418.9844" gradientTransform="matrix(-0.2423 0 0 -0.2423 -949.3337 -226.2726)">
			<stop  offset="0.191" style="stop-color:#626366"/>
			<stop  offset="1" style="stop-color:#BBBDBF"/>
		</linearGradient>
		<polygon fill="url(#SVGID_37_)" points="-42.824,-124.564 -9.702,-124.105 -9.702,-124.29 -42.824,-124.753 		"/>
		
			<linearGradient id="SVGID_38_" gradientUnits="userSpaceOnUse" x1="-3809.6196" y1="-422.8047" x2="-3809.6196" y2="-420.5234" gradientTransform="matrix(-0.2423 0 0 -0.2423 -949.3337 -226.2726)">
			<stop  offset="0.191" style="stop-color:#626366"/>
			<stop  offset="1" style="stop-color:#BBBDBF"/>
		</linearGradient>
		<polygon fill="url(#SVGID_38_)" points="-42.824,-124.195 -9.702,-123.827 -9.702,-124.011 -42.824,-124.38 		"/>
		<path fill="#0F00E7" stroke="#FFFFFF" stroke-width="0.0532" d="M-65.889-140.423c0,0-1.069-0.041-1.417-0.023
			c-0.348,0.017-0.875,0.086-1.084,0.266c-0.21,0.178-0.639,0.751-0.639,0.751s0.077,0.081,0.24,0.081
			c1.177,0.109,2.026,0.33,2.026,0.33l0.878-1.404L-65.889-140.423z"/>
		
			<linearGradient id="SVGID_39_" gradientUnits="userSpaceOnUse" x1="-3801.2847" y1="-423.0156" x2="-3801.2847" y2="-280.4404" gradientTransform="matrix(-0.2423 0 0 -0.2423 -949.3337 -226.2726)">
			<stop  offset="0" style="stop-color:#0029FF"/>
			<stop  offset="0.0241" style="stop-color:#0030FF"/>
			<stop  offset="0.1658" style="stop-color:#0057FF"/>
			<stop  offset="0.3132" style="stop-color:#0076FF"/>
			<stop  offset="0.4656" style="stop-color:#008FFF"/>
			<stop  offset="0.625" style="stop-color:#00A0FF"/>
			<stop  offset="0.7963" style="stop-color:#00ABFF"/>
			<stop  offset="1" style="stop-color:#00AEFF"/>
		</linearGradient>
		<path fill="url(#SVGID_39_)" stroke="#FFFFFF" stroke-width="0.0532" d="M-61.658-139.488c0.679-1.568,0.459-2.222,0.369-2.426
			c-0.091-0.208-0.353-0.763-0.613-1.231s-0.307-1.422-0.307-1.422c-0.314,0.325-0.814,0.844-1.384,1.455
			c0.032,0.146,0.104,0.468,0.169,0.739c0.087,0.362,0.084,0.432,0.106,0.502c0.041,0.256-0.143,0.306-0.18,0.166
			c-0.033-0.127-0.219-0.924-0.253-1.236c-0.041,0.042-0.08,0.085-0.121,0.129c0.032,0.147,0.104,0.469,0.169,0.738
			c0.086,0.363,0.084,0.432,0.106,0.502c0.041,0.256-0.144,0.305-0.18,0.165c-0.033-0.126-0.217-0.918-0.253-1.234
			c-0.04,0.043-0.08,0.088-0.12,0.132c0.033,0.148,0.104,0.466,0.167,0.734c0.087,0.363,0.084,0.432,0.106,0.502
			c0.042,0.256-0.144,0.306-0.18,0.165c-0.034-0.125-0.216-0.909-0.253-1.228c-0.04,0.043-0.08,0.088-0.12,0.131
			c0.033,0.151,0.104,0.464,0.167,0.728c0.087,0.363,0.084,0.432,0.107,0.502c0.04,0.256-0.145,0.306-0.181,0.166
			c-0.032-0.125-0.211-0.894-0.251-1.219c-0.04,0.044-0.079,0.088-0.118,0.132c0.034,0.155,0.102,0.46,0.164,0.719
			c0.086,0.362,0.084,0.432,0.107,0.502c0.04,0.256-0.145,0.305-0.181,0.165c-0.032-0.123-0.207-0.874-0.25-1.205l-0.116,0.131
			c0.034,0.158,0.101,0.455,0.161,0.705c0.087,0.362,0.084,0.432,0.106,0.502c0.041,0.256-0.144,0.307-0.18,0.166
			c-0.032-0.121-0.202-0.85-0.248-1.189c-0.038,0.044-0.077,0.089-0.115,0.133c0.036,0.162,0.1,0.445,0.157,0.689
			c0.087,0.362,0.084,0.432,0.106,0.502c0.041,0.255-0.144,0.305-0.18,0.165c-0.031-0.118-0.194-0.82-0.244-1.168
			c-0.185,0.216-0.366,0.433-0.539,0.645c-0.046,0.056-0.09,0.112-0.135,0.167c-1.305,1.631-2.041,4.266-2.409,5.601
			c-0.369,1.335-1.29,3.226-1.412,3.521c-0.122,0.295,0,0.555-0.03,0.763c-0.031,0.209-0.445,0.451-0.445,0.451l1.144,0.323
			c0.499-0.781,0.944-1.465,1.235-1.918c0.86-1.336,2.732-6.381,5.355-7.526c0.385-0.156,0.711-0.302,0.995-0.425V-139.488z
			 M3.22-140.268c-6.015,0-11.569,4.856-13.411,14.081c0.03,0.208,0.091,0.208,0.169,0.261c0.49,0.485,0.951,0.762,0.921,2.062
			h2.931c0,0,0.843-0.294,1.029-0.953c0.184-0.659,0.797-4.492,1.825-6.538c1.029-2.046,3.56-5.445,7.519-5.445
			c3.958,0,6.475,3.416,9.13,7.838c0.721,1.196,1.396,1.821,1.458,2.271c0.091,0.346,0.245,0.277,0.322,0.243
			c0.077-0.034,0.46-0.243,0.322-0.694c-0.139-0.451-0.798-2.739-1.013-3.381c-0.214-0.642-0.645-2.775-0.645-3.573
			c0-0.797-0.645-2.756-1.059-3.26c-0.414-0.502-0.583-0.606-1.12-0.918c-0.539-0.312-4.118-1.994-8.382-1.994L3.22-140.268z
			 M11.344-138.406c-0.126-0.209-0.35-0.546-0.714-0.977c-0.629-0.747-2.608-2.653-5.263-3.868
			c-2.654-1.213-5.785-2.289-11.739-2.843c-1.428-0.139-3.453-0.295-3.453-0.295c-0.261,0.78-0.476,1.457-0.261,1.89
			c0.214,0.434,0.691,1.058,1.105,1.405c3.651,0.069,6.23,0.398,8.44,0.815c1.893,0.356,4.967,1.134,7.131,2.341
			C8.882-139.503,10.65-138.752,11.344-138.406L11.344-138.406z M-30.308-154.951c1.212,0,5.156-0.017,8.47,0.485
			c3.314,0.503,4.849,1.699,5.57,2.375c0.721,0.677,1.964,2.983,2.731,4.561c0.768,1.578,2.517,4.682,2.517,4.682l-0.077,16.629
			l-22.418,0.295l-0.184-29.028L-30.308-154.951L-30.308-154.951L-30.308-154.951z M-32.917-145.261c0,1.3,1.198,1.249,1.198,1.249
			s15.82-0.087,16.909-0.087c1.089,0,1.243-0.902,1.243-1.387c0-0.434-0.138-0.833-0.353-1.284
			c-0.215-0.451-1.565-2.931-1.811-3.381c-0.245-0.451-0.767-1.543-2.286-2.254c-1.519-0.711-3.836-1.196-6.016-1.439
			c-2.179-0.244-7.165-0.208-7.779-0.208c-0.613,0-1.105,0.33-1.105,1.231v7.563L-32.917-145.261L-32.917-145.261z M-61.465-139.639
			c2.414-3.214,5.278-6.266,6.547-7.515c1.269-1.249,5.585-5.063,10.229-6.427c4.645-1.364,7.816-1.595,10.844-1.595
			s9.453-0.023,13.053,0.693c3.601,0.717,5.053,2.498,5.77,3.792c0.601,1.087,2.185,4.067,2.675,4.993l0.511-0.392
			c0,0,0.006-0.003,0.018-0.008c-0.33-0.588-1.753-3.128-2.079-3.807c-0.389-0.809-2.476-4.647-2.722-5.226
			c-0.245-0.578-0.368-0.601-0.634-0.74c-4.89-1.734-8.266-2.266-14.158-2.428c-5.893-0.162-13.79,0.439-20.112,4.231
			c-0.226,0.138-0.103,0.324-0.083,0.438c0.021,0.116,0.164,0.763-0.552,1.457c-0.716,0.694-4.112,4.162-4.89,4.925
			c-0.778,0.763-1.535,1.479-1.759,1.549c-0.225,0.07-0.675,0.254-0.962-0.046c-0.286-0.301-0.511-0.642-0.634-1.11
			c-0.409,0.463-1.739,2.243-1.739,2.243c0.246,0.878,0.205,1.109,0.839,2.173c0.644,1.067,0.05,2.405-0.155,2.801L-61.465-139.639z
			 M-72.03-124.951l0.783,0.017c4.451,0.052,6.46-1.682,7.78-4.179c1.319-2.497,3.238-6.693,8.7-6.693
			c4.896,0,7.305,3.988,7.934,5.289c0.629,1.3,1.013,3.606,1.136,4.387c0.123,0.781,0.26,1.942,0.966,2.22
			c0.706,0.276,1.212,0.052,1.704-0.018c0.077-0.017,0.107-0.087,0.03-0.208c-0.368-0.434-0.046-0.988,0.031-1.213
			c0.058-0.17,0.08-0.464,0.088-0.601h-0.027c-0.598-7.965-3.749-11.011-5.662-12.596c-2.011-1.665-5.141-2.248-8.434-2.041
			c-1.781,0.047-4.103,0.879-4.501,1.053c0.003-0.008,0.007-0.015,0.012-0.023c-0.317,0.139-0.699,0.306-1.163,0.508
			c-2.624,1.145-4.496,6.19-5.355,7.527C-68.87-130.19-71.065-126.841-72.03-124.951L-72.03-124.951L-72.03-124.951z
			 M-61.415-139.701c2.404-3.191,5.241-6.212,6.5-7.453c1.269-1.249,5.585-5.063,10.229-6.427c4.635-1.361,7.803-1.594,10.825-1.595
			l0.163,29.225h-9.207c-0.598-7.964-3.749-11.011-5.662-12.595c-2.011-1.665-5.141-2.249-8.434-2.041
			c-1.781,0.047-4.103,0.879-4.501,1.053C-61.473-139.597-61.443-139.648-61.415-139.701L-61.415-139.701z M-51.6-145.559
			c0.226,0.601,0.614,1.804,2.721,1.827c2.108,0.023,12.398-0.255,13.095-0.255c0.696,0,1.31-0.438,1.31-1.341v-7.469
			c0-0.833-0.553-1.48-1.433-1.48c-1.186,0-5.606,0.208-9.677,1.896c-4.071,1.688-5.094,3.375-5.627,4.208
			c-0.531,0.832-0.61,2.008-0.384,2.612L-51.6-145.559z M-10.73-142.899c-0.078,5.203-0.184,16.682-0.184,16.682h0.729
			c1.849-9.202,7.396-14.045,13.404-14.045c0.853,0,1.677,0.068,2.457,0.178c-0.909-0.416-3.641-1.578-6.799-2.086
			c-3.882-0.624-7.626-0.729-7.979-0.746c-0.676-0.71-1.212-1.56-1.228-1.873c-0.016-0.312,0.138-1.075,0.353-1.612
			c-0.645-0.087-1.028-0.138-1.028-0.138c-0.476,0.295-0.829,0.451-0.829,0.451l-0.588,0.451c0.514,0.879,1.698,2.736,1.698,2.736
			L-10.73-142.899z"/>
		
			<radialGradient id="SVGID_40_" cx="-4766.0156" cy="-665.6484" r="26" gradientTransform="matrix(-0.0654 0 0 -0.0739 -307.8931 -174.8903)" gradientUnits="userSpaceOnUse">
			<stop  offset="0.0056" style="stop-color:#595959"/>
			<stop  offset="1" style="stop-color:#969696"/>
		</radialGradient>
		<ellipse fill="url(#SVGID_40_)" stroke="#808184" stroke-width="0.1064" cx="3.781" cy="-125.698" rx="1.7" ry="1.921"/>
		
			<radialGradient id="SVGID_41_" cx="-3875.9492" cy="-671.2734" r="25.998" gradientTransform="matrix(-0.0654 0 0 -0.0739 -307.8931 -174.8903)" gradientUnits="userSpaceOnUse">
			<stop  offset="0.0056" style="stop-color:#595959"/>
			<stop  offset="1" style="stop-color:#969696"/>
		</radialGradient>
		<ellipse fill="url(#SVGID_41_)" stroke="#808184" stroke-width="0.1064" cx="-54.425" cy="-125.282" rx="1.7" ry="1.921"/>
		<path fill="#FFFFFF" stroke="#626366" stroke-width="0.1064" d="M-16.432-146.206c-0.308,0.647-0.635,1.271-0.635,1.433
			c-0.552,0.185-1.739,0.185-1.739,0.185c-0.315-2.12-1.001-6.182-1.126-6.913c0.192,0.081,0.375,0.166,0.546,0.255
			c1.33,0.691,1.787,1.753,2.001,2.192c0.144,0.294,0.725,1.479,1.147,2.357c-0.046,0.137-0.109,0.298-0.201,0.491L-16.432-146.206z
			"/>
		<path fill="#FFFFFF" stroke="#626366" stroke-width="0.1064" d="M-20.467-151.71l1.191,7.152h-0.736l-1.14-7.377
			c0.239,0.071,0.464,0.146,0.686,0.227L-20.467-151.71z"/>
		<path fill="#FFFFFF" stroke="#626366" stroke-width="0.1064" d="M-31.457-152.849c0.537,0,4.902-0.034,6.809,0.203
			c0.971,0.12,1.973,0.302,2.898,0.542l1.228,7.607l-4.665,0.139l-3.765,0.023c-0.593-0.994-1.105-1.896-2.25-1.826
			c-0.307-0.763-0.45-1.271-0.45-1.271c0.941-0.208,1.433-0.417,1.698-0.948c0.267-0.532,0.246-0.971,0.246-1.272
			s-0.062-1.48-0.409-1.919c-0.348-0.438-0.921-0.623-1.33-0.623c-0.595,0-0.65,0.533-0.978,0.96v-0.417
			c-0.004-0.874,0.427-1.195,0.966-1.195L-31.457-152.849z"/>
		<path fill="#FFFFFF" stroke="#626366" stroke-width="0.1064" d="M-32.427-147.293h0.363c0.307,1.04,0.349,1.225,0.349,1.225
			c-0.325,0.089-0.553,0.177-0.711,0.267v-1.488L-32.427-147.293z"/>
		<path fill="#FFFFFF" stroke="#626366" stroke-width="0.1064" d="M-48.096-147.784c0.459-0.68,1.342-2.059,4.837-3.422
			c3.445-1.345,7.172-1.508,8.253-1.506l0.018,3.593c0,1.387,0.021,3.7,0.021,3.7s-0.014,0.562-0.357,0.775
			c-2.258,0.053-9.228,0.262-10.79,0.236c-1.806-0.029-2.134-0.74-2.325-1.234C-48.632-146.139-48.557-147.103-48.096-147.784
			L-48.096-147.784z"/>
		<path fill="#0F00E7" stroke="#FFFFFF" stroke-width="0.0532" d="M-4.317-145.786l-0.18-0.325l-1.365-0.068
			c0,0-0.036-0.095-0.107-0.095h-0.216c0,0-0.084,0.108-0.084,0.23c0,0.123,1.952,0.255,1.952,0.255L-4.317-145.786z"/>
		<path fill="#231F20" d="M-12.461-148.054c0.154,0.122,0.298,0.026,0.376,0.018c0.141-0.016,0.407-0.018,0.652,0.607
			c0.181,0.462,0.262,0.771,0.286,0.972c-0.343,0.204-0.6,0.325-0.667,0.355c-0.012-0.022-0.027-0.048-0.042-0.076
			c0.04-0.103,0.299-0.786,0.271-1.026c-0.031-0.26-0.092-0.572-0.383-0.607c-0.292-0.034-0.2,0.226-0.169,0.347
			c0.03,0.118,0.162,0.649,0.111,0.981c-0.239-0.427-0.596-1.067-0.939-1.691c0.108,0.005,0.385,0.024,0.506,0.118L-12.461-148.054z
			"/>
		<ellipse fill="#0F00E7" stroke="#FFFFFF" stroke-width="0.0532" cx="-30.538" cy="-141.114" rx="1.151" ry="1.127"/>
		
			<linearGradient id="SVGID_42_" gradientUnits="userSpaceOnUse" x1="-3790.6392" y1="-352.9023" x2="-3790.6392" y2="-349.4748" gradientTransform="matrix(-0.2423 0 0 -0.2423 -949.3337 -226.2726)">
			<stop  offset="0.191" style="stop-color:#626366"/>
			<stop  offset="1" style="stop-color:#BBBDBF"/>
		</linearGradient>
		<path fill="url(#SVGID_42_)" stroke="#FFFFFF" stroke-width="0.0532" d="M-28.627-141.236c0,0-0.537-0.194-1.847-0.261
			c-1.312-0.067-2.116-0.109-2.534-0.092c-0.112,0-0.164,0.051-0.164,0.21c0,0.161-0.008,0.421-0.008,0.505
			c0,0.084,0.06,0.11,0.157,0.11s2.086-0.228,2.995-0.21c0.909,0.016,1.282,0.067,1.364,0.067c0.083,0.005,0.2-0.264,0.037-0.321
			L-28.627-141.236z"/>
		<ellipse fill="#808184" stroke="#4E4F51" stroke-width="0.0532" cx="-32.407" cy="-141.208" rx="0.22" ry="0.249"/>
		
			<linearGradient id="SVGID_43_" gradientUnits="userSpaceOnUse" x1="-3865.5435" y1="-335.4492" x2="-3865.5435" y2="-326.2241" gradientTransform="matrix(-0.2423 0 0 -0.2423 -949.3337 -226.2726)">
			<stop  offset="0.191" style="stop-color:#626366"/>
			<stop  offset="1" style="stop-color:#BBBDBF"/>
		</linearGradient>
		<path fill="url(#SVGID_43_)" stroke="#626366" stroke-width="0.1064" d="M-11.951-145.965l-0.112,0.197
			c0,0-0.327-0.059-0.399-0.059c-0.072,0-0.062,0.093-0.062,0.093s-0.071,0.22-0.204,0.335c-0.133,0.116-0.328,0.312-0.389,0.405
			c-0.184-0.244-0.296-0.601-0.327-1.075c-0.031-0.474-0.041-0.983-0.021-1.157c0.164,0.104,0.594,0.497,0.747,0.751
			c0.153,0.255,0.123,0.428,0.246,0.451c0.117,0.023,0.518,0.057,0.518,0.057L-11.951-145.965z"/>
		
			<linearGradient id="SVGID_44_" gradientUnits="userSpaceOnUse" x1="-3621.5869" y1="-409.9307" x2="-3621.5869" y2="-387.3527" gradientTransform="matrix(-0.2423 0 0 -0.2423 -949.3337 -226.2726)">
			<stop  offset="0.191" style="stop-color:#626366"/>
			<stop  offset="1" style="stop-color:#BBBDBF"/>
		</linearGradient>
		<path fill="url(#SVGID_44_)" stroke="#FFFFFF" stroke-width="0.0532" d="M-69.341-132.421c-0.221,0.025-1.099,0.124-1.8,0.213
			c-0.808,0.104-1.862,0.221-2.823,0.683c-0.961,0.462-1.136,0.555-1.125,0.983c0.009,0.428,0.184,1.294,0.194,1.884
			c-0.009,0.22-0.133,0.486-0.051,0.67c0.082,0.185,0.409,0.416,0.88,0.497s2.629,0.474,3.897,0.532
			c0.614,0.034,0.797,0.011,0.931-0.325c0.133-0.334,0.552-1.549,0.645-1.86c0.091-0.312-0.02-0.266-0.03-0.497
			s-0.205-0.301-0.757-0.451c-0.553-0.151-1.862-0.231-2.752-0.417c-0.89-0.184-1.432-0.358-1.443-0.6
			c-0.01-0.244,1.043-0.543,1.637-0.625c0.552-0.076,2.05-0.23,2.406-0.251c0.062-0.133,0.154-0.34,0.188-0.439L-69.341-132.421z"/>
		
			<linearGradient id="SVGID_45_" gradientUnits="userSpaceOnUse" x1="-3984.8245" y1="-406.6797" x2="-3984.8245" y2="-386.8555" gradientTransform="matrix(-0.2423 0 0 -0.2423 -949.3337 -226.2726)">
			<stop  offset="0.191" style="stop-color:#626366"/>
			<stop  offset="1" style="stop-color:#BBBDBF"/>
		</linearGradient>
		<path fill="url(#SVGID_45_)" stroke="#FFFFFF" stroke-width="0.0532" d="M14.002-132.35c0.338,0.104,1.124,0.345,1.545,0.475
			c0.548,0.168,1.509,0.374,1.576,0.674c0.067,0.3-0.398,0.207-0.53,0.207s-1.559,0.093-1.741,0.431s-0.132,0.45-0.315,0.712
			c-0.182,0.262-0.166,1.424-0.115,1.687c0.05,0.262,0.183,0.431,0.994,0.431c0.813,0,1.94-0.019,2.354-0.187
			c0.414-0.169,0.464-1.012,0.514-1.331c0.05-0.318,0.167-1.236,0.116-1.461c-0.05-0.225-0.332-0.412-0.63-0.543
			c-0.295-0.13-0.768-0.479-3.803-1.282c0.004,0.047,0.017,0.094,0.034,0.184L14.002-132.35z"/>
		
			<linearGradient id="SVGID_46_" gradientUnits="userSpaceOnUse" x1="-3783.5679" y1="-350.2207" x2="-3783.5679" y2="-342.8516" gradientTransform="matrix(-0.2423 0 0 -0.2423 -949.3337 -226.2726)">
			<stop  offset="0.191" style="stop-color:#626366"/>
			<stop  offset="1" style="stop-color:#BBBDBF"/>
		</linearGradient>
		<path fill="url(#SVGID_46_)" stroke="#626366" stroke-width="0.1064" d="M-53.832-141.42c-0.185,0.046-0.266-0.185-0.082-0.254
			c1.637-0.416,6.813-1.156,10.005-1.318c2.95-0.15,9.188-0.201,10.113-0.208l0.003,0.484c-2.349,0-7.852,0.025-10.096,0.139
			c-2.27,0.118-4.929,0.231-9.941,1.158L-53.832-141.42z M-33.623-142.715c3.986,0.004,22.489,0.255,22.489,0.255v-0.393
			c0,0-9.202-0.346-22.492-0.347l0.004,0.482L-33.623-142.715z"/>
		<path fill="#DFE0E1" d="M-67.427-132.61c-0.088-0.195-0.154-0.454-0.185-0.8c-0.052-0.566,0.03-2.717,0.03-2.717
			c0.02-0.463,0.348-1.179,0.43-1.365c0.082-0.185,0.266-0.393,0.531-0.438c0.266-0.046,0.86-0.092,1.495-0.092
			c0.371,0,0.817-0.04,1.125-0.073c-1.48,1.455-2.646,3.926-3.424,5.48L-67.427-132.61z"/>
		<path fill="#FFDE00" d="M-66.875-133.715c-0.26,0.019-0.546,0.034-0.751,0.032c-0.019-0.789,0.044-2.442,0.044-2.442
			c0.001-0.046,0.008-0.096,0.016-0.147c0.285,0.02,0.944,0.055,2.094,0.051c-0.531,0.822-1.003,1.71-1.405,2.504L-66.875-133.715z"
			/>
		<path fill="#F6921E" d="M-65.47-136.224c-1.15,0.003-1.81-0.031-2.095-0.052c0.069-0.454,0.34-1.049,0.415-1.216
			c0.082-0.185,0.266-0.393,0.532-0.438c0.266-0.046,0.859-0.092,1.494-0.092c0.371,0,0.818-0.04,1.125-0.073
			c-0.531,0.52-1.02,1.172-1.468,1.866L-65.47-136.224z"/>
	</g>
</g>
<rect x="-78.347" y="-162.5" fill="#FFFFFF" stroke="#000000" stroke-miterlimit="10" width="100" height="50"/>
</svg>
