<?xml version="1.0" encoding="utf-8"?>
<!-- Generator: Adobe Illustrator 15.1.0, SVG Export Plug-In . SVG Version: 6.00 Build 0)  -->
<!DOCTYPE svg PUBLIC "-//W3C//DTD SVG 1.1//EN" "http://www.w3.org/Graphics/SVG/1.1/DTD/svg11.dtd">
<svg version="1.1"
	 id="svg7391" xmlns:svg="http://www.w3.org/2000/svg" inkscape:version="0.48.5 r10040" xmlns:inkscape="http://www.inkscape.org/namespaces/inkscape" sodipodi:docname="toyota hilux.svg" xmlns:dc="http://purl.org/dc/elements/1.1/" xmlns:cc="http://creativecommons.org/ns#" xmlns:rdf="http://www.w3.org/1999/02/22-rdf-syntax-ns#" xmlns:sodipodi="http://sodipodi.sourceforge.net/DTD/sodipodi-0.dtd"
	 xmlns="http://www.w3.org/2000/svg" xmlns:xlink="http://www.w3.org/1999/xlink" x="0px" y="0px" width="1315px"
	 height="491.678px" viewBox="0 0 1315 491.678" enable-background="new 0 0 1315 491.678" xml:space="preserve">
<sodipodi:namedview  inkscape:pageshadow="2" inkscape:window-y="-4" inkscape:window-height="740" showgrid="false" inkscape:window-maximized="1" inkscape:zoom="0.54565796" inkscape:window-x="-4" inkscape:cy="325.66117" inkscape:current-layer="layer1" inkscape:cx="794.80008" inkscape:window-width="1280" inkscape:pageopacity="0.0" inkscape:document-units="px" id="base" bordercolor="#666666" borderopacity="1.0" pagecolor="#ffffff" fit-margin-left="0" fit-margin-bottom="0" fit-margin-right="0" fit-margin-top="0">
	
		<inkscape:grid  type="xygrid" id="grid3779" originy="3.8055728e-005px" enabled="true" visible="true" originx="-1.0620554e-006px" empspacing="5" snapvisiblegridlinesonly="true">
		</inkscape:grid>
</sodipodi:namedview>
<g id="layer1" transform="translate(-1.0620554e-6,-560.68423)" inkscape:label="Layer 1" inkscape:groupmode="layer">
	<g id="g4119" transform="matrix(1.1280539,0,0,1.1280539,-15.759297,-16.662956)">
		<path id="path4099" sodipodi:nodetypes="ccccccccc" inkscape:connector-curvature="0" stroke="#696969" d="M713.049,540.47
			c22.395-14.397,37.592-27.194,37.592-27.194c5.457-3.151,5.999,2.4,5.999,2.4c-19.596,15.597-29.594,21.595-29.594,21.595
			l2.8,5.199l-4.098-0.36l-2.298-4.48l-5.743,3.561L713.049,540.47z"/>
		
			<path id="path4042" sodipodi:nodetypes="ccccccccccccccccccccccccccccccc" inkscape:connector-curvature="0" fill="#F5F5F5" stroke="#000000" stroke-width="2" d="
			M306.443,841.584c7.099,6.085,31.781,1.86,31.781,1.86c38.538-5.071,136.405-2.028,136.405-2.028
			c240.358,3.549,266.726,6.085,266.726,6.085c29.411,2.028,39.553,2.535,39.553,2.535c7.099,0.507,21.297-2.028,21.297-2.028
			l-30.932-3.549c11.759-80.074,15.742-147.09,15.742-147.09c8.537-73.265,0.67-112.527,0.67-112.527
			c-2.472-9.905-6.043-22.082-6.043-22.082c-8.133-14.465-25.9-17.244-25.9-17.244c-97.28-11.393-181.414-6.719-181.414-6.719
			c-44.695,1.753-86.763,5.55-86.763,5.55c-43.528,5.551-56.089,12.269-56.089,12.269c-76.83,35.932-129.706,78.583-129.706,78.583
			l-13.438,4.674c-30.382-1.461-37.685,1.46-37.685,1.46c-169.367,9.992-215.717,39.549-215.717,39.549
			c-6.792,12.993-3.708,18.39-3.708,18.39c-8.48,20.045-10.408,29.681-10.408,29.681c-8.866,6.168-5.011,19.659-5.011,19.659
			l1.542,46.256c-7.876,17.309,7.69,35.452,24.284,36.619c13.492,1.542,27.754,5.782,27.754,5.782
			c20.815,8.095,25.826,6.939,25.826,6.939c5.909-1.603,3.855-9.251,3.855-9.251c0-48.955,23.899-70.155,23.899-70.155
			c28.717-30.26,74.781-28.14,74.781-28.14c53.195-1.928,76.323,25.827,76.323,25.827c21.201,24.284,29.296,70.926,29.296,70.926
			C304.59,838.485,306.443,841.584,306.443,841.584L306.443,841.584z"/>
		
			<path id="path3755-1-4-7" sodipodi:nodetypes="ccccc" inkscape:connector-curvature="0" fill="#696969" stroke="#000000" stroke-width="2" d="
			M302.339,831.093c0,0-7.919-62.516-43.881-84.799c0,0-57.547-36.566-127.358,4c0,0-37.944,29.224-32.537,91.235
			C222.404,851.354,302.339,831.093,302.339,831.093z"/>
		<path id="path3992" sodipodi:nodetypes="ccc" inkscape:connector-curvature="0" fill="#FF0000" stroke="#FF0000" d="
			M321.728,789.28c7.227-7.979,23.468-13.07,23.468-13.07c5.543-2.101,20.831-1.921,20.831-1.921l193.793,0.14
			c-0.36,8.27,0.719,17.259,0.719,17.259l-230.112-0.359C326.831,791.329,321.728,789.28,321.728,789.28L321.728,789.28z"/>
		<path id="path2985" sodipodi:nodetypes="ccc" inkscape:connector-curvature="0" stroke="#696969" stroke-width="2" d="
			M792.781,659.454l345.899,2.902c9,0.58,10.736,6.529,10.736,6.529l-357.435-0.957L792.781,659.454z"/>
		
			<path id="path3755" sodipodi:nodetypes="ccccccccccc" inkscape:connector-curvature="0" fill="#F5F5F5" stroke="#000000" stroke-width="2" d="
			M792.453,666.985c-2.83,98.113-19.811,177.83-19.811,177.83l29.245,2.83c8.514-69.274,40.094-84.433,40.094-84.433
			c69.811-40.567,127.358-4,127.358-4c35.962,22.283,34.434,80.643,34.434,80.643c2.201,9.434,9.905,6.848,9.905,6.848
			l22.642-10.377c91.006-11.647,92.239-12.47,92.239-12.47c14.777-0.18,16.85-32.879,16.85-32.879
			c7.01-9.265,7.398-21.782,7.398-21.782c8.22-53.428-4.521-100.28-4.521-100.28L792.453,666.985z"/>
		
			<path id="path3755-1-4" sodipodi:nodetypes="cccc" inkscape:connector-curvature="0" fill="#696969" stroke="#000000" stroke-width="2" d="
			M1004.994,840.062c0,0,1.528-58.36-34.434-80.643c0,0-57.547-36.566-127.358,4c0,0-31.58,15.158-40.094,84.433
			C990.051,845.964,1004.994,840.062,1004.994,840.062L1004.994,840.062z"/>
		
			<path id="path3755-1" sodipodi:nodetypes="cccccccccccc" inkscape:connector-curvature="0" fill="#808080" stroke="#000000" stroke-width="2" d="
			M1036.659,835.846l-22.642,10.377c0,0-7.705,2.587-9.905-6.848c0,0,1.528-58.36-34.434-80.643c0,0-57.547-36.566-127.358,4
			c0,0-31.58,15.159-40.094,84.434l-29.245-2.83c6.908-31.669,12.637-59.428,12.637-59.428c7.49-33.486,35.249-49.789,35.249-49.789
			c13.321-4.63,35.179,7.599,41.418-18.506c107.951-26.878,147.606,31.724,147.606,31.724
			C1033.158,781.55,1036.659,835.846,1036.659,835.846L1036.659,835.846z"/>
		<path id="rect3775" fill="#DCDCDC" stroke="#000000" stroke-width="2" stroke-opacity="0.9961" d="M823.704,695.154h22.342
			c5.705,0,10.33,4.624,10.33,10.329v13.341c0,5.705-4.625,10.329-10.33,10.329h-22.342c-5.704,0-10.329-4.624-10.329-10.329
			v-13.341C813.376,699.778,818,695.154,823.704,695.154z"/>
		
			<path id="path3777" sodipodi:nodetypes="ccccccccc" inkscape:connector-curvature="0" fill="#FF0000" stroke="#000000" stroke-width="1.5" d="
			M1151.99,772.17c-22.749,2.566-28.014,4.961-19.548-30.951l7.602-34.21c5.973-15.204,13.032-16.833,13.032-16.833
			c6.516,4.616,5.159,25.521,5.159,25.521c0,2.443-2.444,5.973-2.444,5.973c0.272,6.245,2.172,7.602,2.172,7.602
			c0.272,31.223-2.443,35.567-2.443,35.567L1151.99,772.17z"/>
		<path id="path3781" sodipodi:nodetypes="ccccccccccc" inkscape:connector-curvature="0" fill="#808080" stroke="#000000" d="
			M1027.913,772.985c8.959-8.145,15.204-7.874,15.204-7.874l41.268-2.715c23.078-3.8,29.051-13.304,29.051-13.304
			c17.375-38.01,17.375-40.725,17.375-40.725c1.901-4.616,7.874,3.801,7.874,3.801l-8.688,27.15
			c-9.502,31.223-15.475,30.952-15.475,30.952c-15.747,13.304-86.881,14.933-86.881,14.933c-2.172-6.516-4.344-10.588-4.344-10.588
			L1027.913,772.985z"/>
		
			<path id="path3783" sodipodi:nodetypes="cccccccc" inkscape:connector-curvature="0" fill="#696969" stroke="#000000" stroke-width="2" d="
			M1151.179,777.834c5.896,5.66,22.642,4.245,22.642,4.245c6.84,0.472,4.481,12.5,4.481,12.5
			c-4.953,21.699-4.953,21.699-4.953,21.699c-8.491,7.547-15.33,6.132-15.33,6.132c-12.264,10.614-32.783,2.595-32.783,2.595
			c16.181-1.389,18.856-20.802,20.283-33.963C1150.707,783.259,1151.179,777.834,1151.179,777.834z"/>
		
			<path id="path3812" sodipodi:ry="85.763641" sodipodi:rx="85.763641" sodipodi:type="arc" sodipodi:cy="869.99664" sodipodi:cx="944.34247" stroke="#000000" stroke-width="1.4795" stroke-opacity="0.9961" d="
			M991.953,859.972c0,48.021-38.929,86.95-86.951,86.95c-48.021,0-86.95-38.929-86.95-86.95c0-48.022,38.929-86.951,86.95-86.951
			C953.024,773.022,991.953,811.951,991.953,859.972L991.953,859.972z"/>
		
			<path id="path3812-0" sodipodi:ry="85.763641" sodipodi:rx="85.763641" sodipodi:type="arc" sodipodi:cy="869.99664" sodipodi:cx="944.34247" fill="#FFFFFF" stroke="#696969" stroke-width="2.4591" stroke-opacity="0.9961" d="
			M956.838,859.394c0,28.893-23.422,52.315-52.315,52.315c-28.892,0-52.315-23.423-52.315-52.315
			c0-28.893,23.423-52.315,52.315-52.315C933.416,807.079,956.839,830.501,956.838,859.394L956.838,859.394z"/>
		
			<path id="path3832" sodipodi:nodetypes="cccccccc" inkscape:connector-curvature="0" fill="none" stroke="#000000" stroke-width="2" d="
			M573.546,550.021c-115.986,0.592-140.447,16.631-140.447,16.631c-104.277,49.016-111.61,81.188-111.61,81.188
			c-10.462,35.089-9.029,106.396-9.029,106.396c-0.717,73.814,24.008,69.514,24.008,69.514l229.325,1.614
			c-10.356-108.118-5.365-143.055-5.365-143.055C573.262,558.245,573.546,550.021,573.546,550.021L573.546,550.021z"/>
		<path id="path3920" sodipodi:nodetypes="cccccc" inkscape:connector-curvature="0" fill="#696969" stroke="#000000" d="
			M556.971,556.644c5.46,2.849,3.323,7.597,3.323,7.597l-13.533,89.504c1.425,4.511,15.669,2.849,15.669,2.849l10.921-101.375
			L556.971,556.644z"/>
		<path id="path3922" inkscape:connector-curvature="0" fill="#696969" stroke="#000000" d="M572.878,555.457l14.72,0.237
			l-8.072,100.189l-16.145,0.475L572.878,555.457z"/>
		<path id="path3924" sodipodi:nodetypes="ccccccccc" inkscape:connector-curvature="0" fill="#B0E0E6" stroke="#000000" d="
			M594.007,555.457c-7.597,0-8.309,5.46-8.309,5.46l-6.885,91.641c1.662,6.172,6.41,5.46,6.41,5.46l118.944-4.036
			c26.353-4.036,29.914-15.907,29.914-15.907c9.26-24.454,5.461-66.713,5.461-66.713c-2.849-10.921-18.755-10.921-18.755-10.921
			L594.007,555.457z"/>
		
			<path id="path3832-4" sodipodi:nodetypes="cccccccccc" inkscape:connector-curvature="0" fill="none" stroke="#000000" stroke-width="2" d="
			M766.05,694.942c0,0-5.375,68.799-19.35,108.214c0,0-1.791,26.157-33.682,24.008l-147.241-1.49
			c-10.138-107.939-5.148-142.877-5.148-142.877c12.835-124.064,13.119-132.791,13.119-132.791
			c127.528,2.009,135.882,2.888,135.882,2.888c27.196,2.132,36.534,2.758,36.534,2.758c19.1,5.908,17.613,20.797,17.613,20.797
			C769.854,617.185,766.05,694.942,766.05,694.942L766.05,694.942z"/>
		<path id="path3918" sodipodi:nodetypes="cccccccc" inkscape:connector-curvature="0" fill="#B0E0E6" stroke="#000000" d="
			M542.035,658.557c-177.199,3.761-188.495,2.212-188.495,2.212c-56.437-0.743,10.784-46.318,26.674-57.267
			c31.666-21.701,60.675-33.881,60.675-33.881c43.624-13.508,115.371-12.844,115.371-12.844c6.102,1.882,4.207,6.643,4.207,6.643
			l-13.065,85.697C547.18,658.64,542.035,658.557,542.035,658.557L542.035,658.557z"/>
		
			<path id="path3926-8" sodipodi:ry="9.7187357" sodipodi:rx="10.752644" sodipodi:type="arc" sodipodi:cy="695.25037" sodipodi:cx="525.63885" fill="#696969" stroke="#000000" stroke-width="1.2158" stroke-opacity="0.9961" d="
			M739.864,688.84c0,6.852-5.74,12.407-12.82,12.407c-7.081,0-12.82-5.555-12.82-12.407s5.74-12.407,12.82-12.407
			C734.125,676.433,739.864,681.988,739.864,688.84z"/>
		
			<path id="path3926" sodipodi:ry="9.7187357" sodipodi:rx="10.752644" sodipodi:type="arc" sodipodi:cy="695.25037" sodipodi:cx="525.63885" fill="#696969" stroke="#000000" stroke-width="1.2158" stroke-opacity="0.9961" d="
			M537.632,690.081c0,6.852-5.74,12.407-12.82,12.407c-7.081,0-12.82-5.555-12.82-12.407c0-6.852,5.74-12.407,12.82-12.407
			C531.892,677.674,537.632,683.229,537.632,690.081z"/>
		
			<path id="path3946" sodipodi:nodetypes="ccccc" inkscape:connector-curvature="0" fill="#F5F5F5" stroke="#000000" stroke-width="2" d="
			M503.699,686.328c-6.608,2.287,0.807,6.276,0.807,6.276c21.25,2.589,36.715,1.596,36.715,1.596l-0.11-8.728
			C508.631,684.588,503.699,686.328,503.699,686.328z"/>
		
			<path id="path3948" sodipodi:nodetypes="ccc" inkscape:connector-curvature="0" fill="#F5F5F5" stroke="#000000" stroke-width="2" d="
			M541.175,685.252l0.168,8.862C558.724,694.117,555.55,685.214,541.175,685.252z"/>
		
			<path id="path3946-8" sodipodi:nodetypes="ccccc" inkscape:connector-curvature="0" fill="#F5F5F5" stroke="#000000" stroke-width="2" d="
			M705.657,685.204c-6.608,2.287,0.806,6.276,0.806,6.276c21.25,2.589,36.716,1.595,36.716,1.595l-0.111-8.728
			C710.589,683.464,705.657,685.204,705.657,685.204z"/>
		
			<path id="path3948-2" sodipodi:nodetypes="ccc" inkscape:connector-curvature="0" fill="#F5F5F5" stroke="#000000" stroke-width="2" d="
			M743.133,684.128l0.167,8.862C760.681,692.993,757.507,684.089,743.133,684.128z"/>
		
			<path id="path3812-4" sodipodi:ry="85.763641" sodipodi:rx="85.763641" sodipodi:type="arc" sodipodi:cy="869.99664" sodipodi:cx="944.34247" stroke="#000000" stroke-width="1.9727" stroke-opacity="0.9961" d="
			M286.64,848.632c0,48.022-38.929,86.95-86.95,86.95s-86.95-38.929-86.95-86.95c0-48.022,38.929-86.95,86.95-86.95
			S286.64,800.611,286.64,848.632L286.64,848.632z"/>
		
			<path id="path3812-0-5" sodipodi:ry="85.763641" sodipodi:rx="85.763641" sodipodi:type="arc" sodipodi:cy="869.99664" sodipodi:cx="944.34247" fill="#FFFFFF" stroke="#696969" stroke-width="3.2788" stroke-opacity="0.9961" d="
			M251.525,848.054c0,28.893-23.422,52.315-52.315,52.315s-52.315-23.422-52.315-52.315c0-28.893,23.422-52.315,52.315-52.315
			S251.525,819.161,251.525,848.054L251.525,848.054z"/>
		<path id="path3994" sodipodi:nodetypes="ccccc" inkscape:connector-curvature="0" fill="#FF0000" stroke="#FF0000" d="
			M563.415,774.429c0.359,9.708,1.079,16.899,1.079,16.899l184.09,1.438c3.955-13.663,4.674-17.259,4.674-17.259
			c-4.169-1.338-11.505-1.438-11.505-1.438L563.415,774.429z"/>
		<path id="path3996" inkscape:connector-curvature="0" fill="none" stroke="#000000" d="M355.874,726.213l201.469-0.826"/>
		<path id="path3996-5" sodipodi:nodetypes="cc" inkscape:connector-curvature="0" fill="none" stroke="#000000" d="M561.471,725.8
			l211.378-3.303"/>
		<g id="g4038">
			<path id="path4016" sodipodi:nodetypes="cccccc" inkscape:connector-curvature="0" fill="#696969" stroke="#000000" d="
				M337.973,648.38l-3.597-6.115c-0.318-14.409,11.381-30.353,31.178-27.573c8.055,1.795,8.958,25.589,5.559,29.424
				c-2.966,2.017-7.119,2.136-7.119,2.136L337.973,648.38z"/>
			<path id="path4036" inkscape:connector-curvature="0" fill="#696969" stroke="#000000" d="M334.333,642.216
				c24.322-7.118,38.321-2.61,38.321-2.61"/>
		</g>
		<path id="path4091" sodipodi:nodetypes="ccccccc" inkscape:connector-curvature="0" stroke="#000000" d="M49.246,674.192
			c-2.555,8.13,7.666,7.433,7.666,7.433c-14.402,6.04-26.946,43.671-26.946,43.671l-9.059,3.252l9.988-29.036
			c-1.471-12.205,4.181-18.584,4.181-18.584C40.177,677.867,49.246,674.192,49.246,674.192z"/>
		
			<path id="path4042-1" sodipodi:nodetypes="ccccccccccccccccc" inkscape:connector-curvature="0" fill="#808080" stroke="#000000" stroke-width="2" d="
			M338.653,843.817c0,0-24.682,4.225-31.781-1.86c0,0-1.853-3.098-3.079-8.168c0,0-8.095-46.642-29.295-70.925
			c0,0-23.128-27.755-76.323-25.827c0,0-46.063-2.119-74.781,28.14c0,0-23.899,21.201-23.899,70.155c0,0,2.055,7.648-3.855,9.252
			c0,0-5.011,1.157-25.827-6.939c-6.898-25.792,4.248-58.853,4.248-58.853c12.237-43.247,55.168-60.08,55.168-60.08
			c40.802-22.657,88.041-15.87,88.041-15.87c51.389,3.401,67.638,17.759,67.638,17.759c24.29,15.711,25.317,27.962,25.317,27.962
			c0,40.43,4.912,54.411,4.912,54.411c4.354,22.093,20.783,21.16,20.783,21.16L338.653,843.817z"/>
		<path id="path4095" sodipodi:nodetypes="cccc" inkscape:connector-curvature="0" fill="#FFFF00" stroke="#000000" d="
			M29.966,724.831c4.834-14.436,16.161-40.95,29.037-43.671c23.461-1.161,53.427,0.464,53.427,0.464
			c22.068-1.394,6.272,12.079,6.272,12.079c-25.32,18.816-28.804,21.836-28.804,21.836c-13.075,7.549-17.189,6.736-17.189,6.736
			L29.966,724.831z"/>
		
			<path id="path4093" sodipodi:nodetypes="ccc" inkscape:connector-curvature="0" fill="none" stroke="#000000" stroke-width="2" d="
			M277.728,643.894c-16.248,7.179-42.698,7.935-42.698,7.935c-124.316,12.47-159.457,29.473-159.457,29.473"/>
		
			<path id="path4097" sodipodi:nodetypes="ccc" inkscape:connector-curvature="0" fill="none" stroke="#000000" stroke-width="1.6" d="
			M36.702,747.596c1.161-14.867,15.099-13.706,15.099-13.706l32.753-2.788"/>
		
			<path id="path4091-1" sodipodi:nodetypes="cc" inkscape:connector-curvature="0" fill="none" stroke="#000000" stroke-width="2" d="
			M270.464,639.942c0.756,8.691,51.389,8.313,51.389,8.313"/>
	</g>
</g>
</svg>
