<?xml version="1.0" encoding="utf-8"?>
<!-- Generator: Adobe Illustrator 15.1.0, SVG Export Plug-In . SVG Version: 6.00 Build 0)  -->
<!DOCTYPE svg PUBLIC "-//W3C//DTD SVG 1.1//EN" "http://www.w3.org/Graphics/SVG/1.1/DTD/svg11.dtd">
<svg version="1.1"
	 id="svg2" xmlns:dc="http://purl.org/dc/elements/1.1/" xmlns:cc="http://creativecommons.org/ns#" xmlns:rdf="http://www.w3.org/1999/02/22-rdf-syntax-ns#"
	 xmlns="http://www.w3.org/2000/svg" xmlns:xlink="http://www.w3.org/1999/xlink" x="0px" y="0px" width="400px" height="200px"
	 viewBox="0 0 400 200" enable-background="new 0 0 400 200" xml:space="preserve">
<filter  y="-.64084" x="-.0089942" width="1.018" height="2.2817" color-interpolation-filters="sRGB" id="filter3683">
	<feGaussianBlur  stdDeviation="3.0695829" id="feGaussianBlur3685"></feGaussianBlur>
</filter>
<g id="layer1" transform="translate(-69.913 -610.36)">
	<g id="g3746">
		<path id="rect2844" fill-opacity="0.9961" d="M102.16,705.278h348.81l-0.449,47.783l-71.955,3.812l-192.139-1.57l-65.856-6.054
			l-6.66,0.448l-11.975-1.793l0.224-42.625L102.16,705.278z"/>
		<g id="g2881" transform="translate(-1.0161 -3.0483)">
			<path id="path2848" fill="#1A1A1A" fill-opacity="0.9961" d="M182.025,744.567c0,17.075-13.842,30.917-30.917,30.917
				s-30.917-13.842-30.917-30.917s13.842-30.917,30.917-30.917C168.183,713.65,182.025,727.492,182.025,744.567z"/>
			<path id="path2846" fill="#800000" fill-opacity="0.9961" d="M175.199,744.566c0,13.311-10.79,24.1-24.1,24.1
				c-13.31,0-24.1-10.789-24.1-24.1c0-13.309,10.79-24.1,24.1-24.1C164.409,720.467,175.199,731.257,175.199,744.566z"/>
			<path id="path2873" fill="#999999" fill-opacity="0.9961" d="M151.089,723.306c-11.734,0-21.253,9.521-21.253,21.253
				c0,11.734,9.52,21.24,21.253,21.24c11.734,0,21.239-9.506,21.239-21.24C172.329,732.825,162.823,723.306,151.089,723.306z
				 M154.261,737.746c0.832,0,1.503,0.672,1.503,1.503c0,0.832-0.671,1.503-1.503,1.503c-0.832,0-1.517-0.671-1.517-1.503
				C152.744,738.418,153.43,737.746,154.261,737.746z M147.434,737.898c0.832,0,1.503,0.672,1.503,1.503
				c0,0.832-0.671,1.518-1.503,1.518c-0.832,0-1.503-0.686-1.503-1.518C145.931,738.569,146.602,737.898,147.434,737.898z
				 M151.089,741.387c1.751,0,3.172,1.421,3.172,3.172c0,1.752-1.421,3.172-3.172,3.172c-1.751,0-3.172-1.42-3.172-3.172
				C147.917,742.808,149.338,741.387,151.089,741.387L151.089,741.387z M157.034,744.242c0.832,0,1.503,0.671,1.503,1.503
				s-0.671,1.503-1.503,1.503c-0.832,0-1.503-0.671-1.503-1.503S156.202,744.242,157.034,744.242z M145.934,744.877
				c0.832,0,1.503,0.672,1.503,1.504s-0.672,1.503-1.503,1.503c-0.832,0-1.503-0.671-1.503-1.503S145.102,744.877,145.934,744.877z
				 M151.327,748.684c0.832,0,1.503,0.672,1.503,1.504s-0.671,1.503-1.503,1.503s-1.503-0.671-1.503-1.503
				S150.495,748.684,151.327,748.684z"/>
		</g>
		<path id="rect2869" fill="#88AA00" fill-opacity="0.9961" d="M231.44,641.487c-50.21,0.144-59.276,7.41-91.48,20.632
			c-6.51,2.665-15.868,7.127-20.646,9.447l-0.455-0.014l-41.113,3.917c0,0-1.368,11.421-1.738,17.129
			c-0.37,5.708-0.482,17.115-0.482,17.115l-5.227,2.538l3.406,16.494l-1.145,2.855l4.551,11.088l36.548,6.786
			c-0.002-0.176-0.014-0.348-0.014-0.524c0-21.979,16.262-39.803,36.313-39.803c20.052,0,36.3,17.824,36.3,39.803
			c0,1.895-0.125,3.749-0.358,5.572l2.041,0.138c0,0,87.349-0.027,139.436,1.545c15.12,0.456,33.163,0.192,51.155-0.413
			c-1.027-5.055-1.158-10.442-0.207-15.916c3.762-21.654,22.832-36.421,42.589-32.99c19.659,3.414,32.597,23.564,29.019,45.1
			c9.994-0.697,16.26-1.2,16.26-1.2s-1.348-3.318-1.199-10.288s4.963-10.934,4.923-17.46c-0.04-6.535-8.316-7.296-8.316-7.296
			l0.786-12.688c0,0-1.808-5.821-17.143-9.53c-15.336-3.709-74.859-12.716-74.859-12.716l-9.71-0.358
			c-9.319-5.441-26.558-15.524-32.134-18.329c-20.877-12.098-31.618-19.651-97.094-20.633h0L231.44,641.487z"/>
		<g id="path2872" filter="url(#filter3683)">
			<ellipse opacity="0.9961" cx="277.516" cy="768.38" rx="180.745" ry="4.756"/>
		</g>
		<path id="path2831" fill="#4D4D4D" fill-opacity="0.9961" d="M249.659,645.42c-41.433-2.404-78.403,10.75-102.195,25.722
			l5.903,11.861l191.358,2.869c-15.933-19.489-51.022-37.897-95.063-40.453L249.659,645.42z"/>
		<polygon id="rect2840" opacity="0.4" fill="#88AA00" fill-opacity="0.9961" enable-background="new    " points="218.884,646.41 
			219.689,646.301 227.298,683.223 226.493,683.333 		"/>
		<path id="rect2864" opacity="0.4" fill="#88AA00" fill-opacity="0.9961" enable-background="new    " d="M111.274,695.449h11.896
			c1.706,0,3.089,1.383,3.089,3.089v6.505c0,1.706-1.383,3.089-3.089,3.089h-11.896c-1.707,0-3.089-1.383-3.089-3.089v-6.505
			C108.184,696.833,109.567,695.449,111.274,695.449z"/>
		<path id="path2882" fill="#CCCCCC" fill-opacity="0.9961" d="M459.554,702.047c-3.812,0.104-10.152,1.583-11.145,3.986
			c-1.337,3.241,7.244,10.264,10.041,10.165c2.707-0.096,2.949-4.023,3.476-6.151l0.455-7.517c-0.048-0.043-0.097-0.073-0.151-0.11
			C461.811,702.133,460.824,702.012,459.554,702.047L459.554,702.047z"/>
		<path id="path2890" fill="#CCCCCC" fill-opacity="0.9961" d="M77.288,679.416c-0.434,3.844-1.047,9.553-1.283,13.185
			c-0.27,4.164-0.403,11.278-0.455,14.868c5.77-0.542,10.775-1.697,12.192-3.2C90.627,701.212,83.571,687.113,77.288,679.416
			L77.288,679.416z"/>
		<path id="path2896" fill="#AA0000" fill-opacity="0.9961" d="M75.951,693.512c-0.235,4.227-0.352,10.611-0.4,13.958
			c5.77-0.542,10.774-1.697,12.192-3.2c1.448-1.536,0.388-5.861-1.821-10.758H75.951L75.951,693.512z"/>
		<path id="path2917" opacity="0.4" fill="none" stroke="#000000" stroke-width="3" enable-background="new    " d="
			M344.758,686.358c9.347,9.613,8.86,17.918,8.86,32.083c0,13.219-3.029,25.683-8.387,36.647"/>
		<path id="path2903" opacity="0.4" fill="none" stroke="#000000" stroke-width="3" enable-background="new    " d="
			M244.332,754.756c-1.772-2.022-3.467-4.148-5.074-6.379c-14.389-19.965-20.952-48.388-12.769-64.611"/>
		<path id="path2849" fill="#4D4D4D" d="M118.145,671.798c0,0,14.33-6.949,21.114-9.961c6.976-3.098,36.466-13.953,36.466-13.953
			l0.317,0.634c0,0-25.751,11.468-30.441,13.504c-4.552,1.977-24.416,12.181-24.416,12.181L118.145,671.798L118.145,671.798z"/>
		<path id="path2855" fill="#4D4D4D" d="M365.968,680.722c0,0-19.9-10.702-32.344-17.599
			c-21.337-11.828-39.621-16.029-39.621-16.029l-1.586,2.061c0,0,27.905,12.842,35.04,17.757
			c7.134,4.916,24.099,17.599,24.099,17.599s2.41,0.371,7.135-0.634C363.739,682.803,365.651,680.722,365.968,680.722
			L365.968,680.722z"/>
		<path id="path2857" fill="none" stroke="#000000" d="M84.246,690.061c0,0,103.321,1.691,154.825,3.171
			c51.504,1.48,154.189,5.708,154.189,5.708"/>
		<path id="path2866" fill="none" stroke="#000000" d="M172.862,715.053c37.845,1.185,87.503,2.276,94.821,2.276
			c10.147,0,114.474,2.536,114.474,2.536"/>
		<path id="path2859" fill="none" stroke="#000000" d="M75.524,710.353c0,0,44.076,2.22,57.396,3.171"/>
		<path id="path2868" fill="none" stroke="#666666" d="M70.134,713.844c0,0,12.997,1.695,23.148,2.22
			c9.189,0.476,26.953,0.951,26.953,0.951"/>
		<path id="path2870" fill="none" stroke="#000000" d="M179.217,717.966c0,0,51.685,1.306,63.102,1.585
			c13.001,0.319,139.523,2.221,139.523,2.221"/>
		<g id="g2886" transform="translate(599.5 -5.0805)">
			<path id="path2888" fill="#1A1A1A" fill-opacity="0.9961" d="M-153.462,745.702c0,17.076-13.842,30.918-30.918,30.918
				c-17.074,0-30.917-13.842-30.917-30.918c0-17.074,13.843-30.917,30.917-30.917C-167.305,714.785-153.462,728.628-153.462,745.702
				z"/>
			<path id="path2891" fill="#800000" fill-opacity="0.9961" d="M-160.288,745.702c0,13.311-10.79,24.1-24.1,24.1
				s-24.1-10.789-24.1-24.1c0-13.31,10.789-24.1,24.1-24.1C-171.078,721.603-160.288,732.393-160.288,745.702z"/>
			<path id="path2893" fill="#999999" fill-opacity="0.9961" d="M-184.398,724.441c-11.734,0-21.254,9.52-21.254,21.253
				c0,11.734,9.521,21.239,21.254,21.239s21.239-9.505,21.239-21.239S-172.664,724.441-184.398,724.441z M-181.226,738.882
				c0.832,0,1.504,0.671,1.504,1.503c0,0.831-0.672,1.503-1.504,1.503s-1.518-0.672-1.518-1.503
				C-182.743,739.553-182.058,738.882-181.226,738.882z M-188.053,739.033c0.832,0,1.503,0.671,1.503,1.503
				s-0.671,1.518-1.503,1.518c-0.831,0-1.503-0.686-1.503-1.518S-188.884,739.033-188.053,739.033z M-184.398,742.523
				c1.751,0,3.172,1.421,3.172,3.172c0,1.752-1.421,3.172-3.172,3.172c-1.752,0-3.172-1.42-3.172-3.172
				C-187.569,743.943-186.149,742.523-184.398,742.523z M-178.454,745.378c0.832,0,1.504,0.671,1.504,1.502
				c0,0.832-0.672,1.504-1.504,1.504c-0.831,0-1.502-0.672-1.502-1.504C-179.956,746.049-179.285,745.378-178.454,745.378z
				 M-189.554,746.013c0.832,0,1.504,0.672,1.504,1.504c0,0.831-0.672,1.503-1.504,1.503c-0.831,0-1.502-0.672-1.502-1.503
				C-191.056,746.685-190.385,746.013-189.554,746.013z M-184.16,749.819c0.831,0,1.503,0.672,1.503,1.504
				c0,0.831-0.672,1.502-1.503,1.502c-0.832,0-1.503-0.671-1.503-1.502C-185.663,750.491-184.992,749.819-184.16,749.819z"/>
		</g>
		
			<linearGradient id="path3687_1_" gradientUnits="userSpaceOnUse" x1="1022.9238" y1="8.7286" x2="1022.9238" y2="-4.8314" gradientTransform="matrix(0.4363 0 0 -0.5044 -209.1111 694.6331)">
			<stop  offset="0" style="stop-color:#666666"/>
			<stop  offset="1" style="stop-color:#88AA00"/>
		</linearGradient>
		<path id="path3687" fill="url(#path3687_1_)" d="M243.972,693.241c0,2.102-3.053,3.805-6.818,3.805s-6.817-1.704-6.817-3.805
			s3.052-3.805,6.817-3.805C240.92,689.436,243.972,691.14,243.972,693.241z"/>
		<path id="rect3711" fill="#668000" fill-opacity="0.9961" d="M228.466,691.367h17.239c0.975,0,1.765,0.79,1.765,1.765v0.116
			c0,0.975-0.791,1.765-1.765,1.765h-17.239c-0.975,0-1.765-0.791-1.765-1.765v-0.116
			C226.701,692.157,227.491,691.367,228.466,691.367z"/>
	</g>
</g>
</svg>
