<?xml version="1.0" encoding="utf-8"?>
<!-- Generator: Adobe Illustrator 15.1.0, SVG Export Plug-In . SVG Version: 6.00 Build 0)  -->
<!DOCTYPE svg PUBLIC "-//W3C//DTD SVG 1.1//EN" "http://www.w3.org/Graphics/SVG/1.1/DTD/svg11.dtd">
<svg version="1.1"
	 id="svg2" xmlns:dc="http://purl.org/dc/elements/1.1/" xmlns:cc="http://creativecommons.org/ns#" xmlns:rdf="http://www.w3.org/1999/02/22-rdf-syntax-ns#"
	 xmlns="http://www.w3.org/2000/svg" xmlns:xlink="http://www.w3.org/1999/xlink" x="0px" y="0px" width="400px" height="200px"
	 viewBox="0 0 400 200" enable-background="new 0 0 400 200" xml:space="preserve">
<g id="layer1" transform="translate(-69.913 -610.36)">
	<g id="g3746">
		<path id="rect2844" fill-opacity="0.9961" d="M102.16,705.278h348.81l-0.449,47.783l-71.955,3.812l-192.138-1.57l-65.856-6.055
			l-6.66,0.448l-11.975-1.793L102.16,705.278L102.16,705.278z"/>
		<g id="g2881" transform="translate(-1.0161 -3.0483)">
			<path id="path2848" fill="#1A1A1A" fill-opacity="0.9961" d="M182.025,744.566c0,17.076-13.842,30.918-30.917,30.918
				c-17.075,0-30.917-13.842-30.917-30.918c0-17.074,13.842-30.917,30.917-30.917C168.183,713.65,182.025,727.492,182.025,744.566z"
				/>
			<path id="path2846" fill="#800000" fill-opacity="0.9961" d="M175.199,744.566c0,13.311-10.79,24.1-24.1,24.1
				s-24.1-10.789-24.1-24.1c0-13.31,10.79-24.101,24.1-24.101C164.409,720.467,175.199,731.257,175.199,744.566z"/>
			<path id="path2873" fill="#999999" fill-opacity="0.9961" d="M151.089,723.307c-11.734,0-21.253,9.521-21.253,21.252
				c0,11.734,9.52,21.24,21.253,21.24c11.734,0,21.239-9.506,21.239-21.24C172.329,732.825,162.823,723.307,151.089,723.307z
				 M154.261,737.746c0.832,0,1.503,0.672,1.503,1.503c0,0.832-0.671,1.503-1.503,1.503s-1.517-0.671-1.517-1.503
				C152.744,738.418,153.43,737.746,154.261,737.746z M147.434,737.898c0.832,0,1.503,0.672,1.503,1.502
				c0,0.832-0.671,1.519-1.503,1.519s-1.503-0.687-1.503-1.519S146.602,737.898,147.434,737.898z M151.089,741.387
				c1.751,0,3.172,1.422,3.172,3.172c0,1.752-1.421,3.172-3.172,3.172c-1.751,0-3.172-1.42-3.172-3.172
				C147.917,742.809,149.338,741.387,151.089,741.387L151.089,741.387z M157.034,744.242c0.832,0,1.503,0.671,1.503,1.503
				s-0.671,1.503-1.503,1.503s-1.503-0.671-1.503-1.503S156.202,744.242,157.034,744.242z M145.934,744.877
				c0.832,0,1.503,0.672,1.503,1.504s-0.672,1.503-1.503,1.503c-0.832,0-1.503-0.671-1.503-1.503S145.102,744.877,145.934,744.877z
				 M151.327,748.684c0.832,0,1.503,0.672,1.503,1.504s-0.671,1.504-1.503,1.504s-1.503-0.672-1.503-1.504
				S150.495,748.684,151.327,748.684z"/>
		</g>
		<path id="rect2869" fill="#88AA00" fill-opacity="0.9961" d="M231.44,641.487c-50.21,0.144-59.276,7.41-91.48,20.632
			c-6.51,2.665-15.868,7.127-20.646,9.447l-0.455-0.014l-41.113,3.917c0,0-1.368,11.421-1.738,17.129
			c-0.37,5.708-0.482,17.115-0.482,17.115l-5.227,2.538l3.406,16.494L72.56,731.6l4.551,11.088l36.548,6.786
			c-0.002-0.177-0.014-0.349-0.014-0.524c0-21.979,16.262-39.803,36.313-39.803c20.052,0,36.3,17.824,36.3,39.803
			c0,1.896-0.125,3.75-0.358,5.572l2.041,0.139c0,0,87.349-0.027,139.436,1.545c15.12,0.455,33.163,0.191,51.155-0.414
			c-1.027-5.055-1.158-10.441-0.207-15.916c3.762-21.653,22.832-36.42,42.589-32.989c19.659,3.414,32.597,23.563,29.019,45.1
			c9.994-0.696,16.261-1.2,16.261-1.2s-1.349-3.318-1.199-10.287c0.149-6.971,4.963-10.935,4.923-17.461
			c-0.04-6.535-8.316-7.296-8.316-7.296l0.787-12.688c0,0-1.809-5.821-17.144-9.53c-15.336-3.709-74.858-12.716-74.858-12.716
			l-9.711-0.358c-9.318-5.441-26.558-15.524-32.134-18.329c-20.877-12.098-31.618-19.651-97.094-20.633l0,0L231.44,641.487z"/>
		<path id="path2831" fill="#4D4D4D" fill-opacity="0.9961" d="M249.659,645.42c-41.433-2.404-78.403,10.75-102.195,25.722
			l5.903,11.861l191.358,2.869c-15.934-19.489-51.022-37.897-95.063-40.453L249.659,645.42z"/>
		<polygon id="rect2840" opacity="0.4" fill="#88AA00" fill-opacity="0.9961" enable-background="new    " points="218.884,646.41 
			219.689,646.301 227.298,683.223 226.493,683.333 		"/>
		<path id="rect2864" opacity="0.4" fill="#88AA00" fill-opacity="0.9961" enable-background="new    " d="M111.274,695.449h11.896
			c1.706,0,3.089,1.383,3.089,3.089v6.505c0,1.706-1.383,3.089-3.089,3.089h-11.896c-1.707,0-3.089-1.383-3.089-3.089v-6.505
			C108.184,696.833,109.567,695.449,111.274,695.449z"/>
		<path id="path2882" fill="#CCCCCC" fill-opacity="0.9961" d="M459.554,702.047c-3.812,0.104-10.152,1.583-11.145,3.986
			c-1.337,3.241,7.244,10.265,10.041,10.165c2.707-0.096,2.949-4.023,3.477-6.151l0.454-7.517c-0.048-0.043-0.097-0.073-0.151-0.11
			C461.811,702.133,460.824,702.012,459.554,702.047L459.554,702.047z"/>
		<path id="path2890" fill="#CCCCCC" fill-opacity="0.9961" d="M77.288,679.416c-0.434,3.844-1.047,9.553-1.283,13.185
			c-0.27,4.164-0.403,11.278-0.455,14.868c5.77-0.542,10.775-1.697,12.192-3.2C90.627,701.212,83.571,687.113,77.288,679.416
			L77.288,679.416z"/>
		<path id="path2896" fill="#AA0000" fill-opacity="0.9961" d="M75.951,693.512c-0.235,4.227-0.352,10.611-0.4,13.958
			c5.77-0.542,10.774-1.697,12.192-3.2c1.448-1.536,0.388-5.861-1.821-10.758H75.951L75.951,693.512z"/>
		<path id="path2917" opacity="0.4" fill="none" stroke="#000000" stroke-width="3" enable-background="new    " d="
			M344.759,686.358c9.346,9.613,8.859,17.918,8.859,32.083c0,13.219-3.029,25.683-8.387,36.647"/>
		<path id="path2903" opacity="0.4" fill="none" stroke="#000000" stroke-width="3" enable-background="new    " d="
			M244.332,754.756c-1.772-2.022-3.467-4.148-5.074-6.379c-14.389-19.966-20.952-48.389-12.769-64.612"/>
		<path id="path2849" fill="#4D4D4D" d="M118.145,671.798c0,0,14.33-6.949,21.114-9.961c6.976-3.098,36.466-13.953,36.466-13.953
			l0.317,0.634c0,0-25.751,11.468-30.441,13.504c-4.552,1.977-24.416,12.181-24.416,12.181L118.145,671.798L118.145,671.798z"/>
		<path id="path2855" fill="#4D4D4D" d="M365.968,680.722c0,0-19.9-10.702-32.344-17.599
			c-21.337-11.828-39.621-16.029-39.621-16.029l-1.586,2.061c0,0,27.905,12.842,35.04,17.757
			c7.134,4.916,24.099,17.599,24.099,17.599s2.41,0.371,7.135-0.634C363.739,682.803,365.651,680.722,365.968,680.722
			L365.968,680.722z"/>
		<path id="path2857" fill="none" stroke="#000000" d="M84.246,690.061c0,0,103.321,1.691,154.825,3.171
			c51.504,1.48,154.189,5.708,154.189,5.708"/>
		<path id="path2866" fill="none" stroke="#000000" d="M172.862,715.053c37.845,1.185,87.503,2.275,94.821,2.275
			c10.147,0,114.474,2.536,114.474,2.536"/>
		<path id="path2859" fill="none" stroke="#000000" d="M75.524,710.353c0,0,44.076,2.22,57.396,3.171"/>
		<path id="path2868" fill="none" stroke="#666666" d="M70.134,713.844c0,0,12.997,1.695,23.148,2.22
			c9.189,0.476,26.953,0.95,26.953,0.95"/>
		<path id="path2870" fill="none" stroke="#000000" d="M179.217,717.965c0,0,51.685,1.307,63.102,1.586
			c13.001,0.318,139.523,2.221,139.523,2.221"/>
		<g id="g2886" transform="translate(599.5 -5.0805)">
			<path id="path2888" fill="#1A1A1A" fill-opacity="0.9961" d="M-153.462,745.702c0,17.076-13.842,30.918-30.918,30.918
				c-17.074,0-30.917-13.842-30.917-30.918c0-17.074,13.843-30.917,30.917-30.917C-167.305,714.785-153.462,728.628-153.462,745.702
				z"/>
			<path id="path2891" fill="#800000" fill-opacity="0.9961" d="M-160.288,745.702c0,13.311-10.79,24.1-24.1,24.1
				c-13.311,0-24.1-10.789-24.1-24.1s10.789-24.1,24.1-24.1C-171.078,721.603-160.288,732.394-160.288,745.702z"/>
			<path id="path2893" fill="#999999" fill-opacity="0.9961" d="M-184.398,724.44c-11.734,0-21.254,9.521-21.254,21.254
				s9.521,21.238,21.254,21.238c11.732,0,21.238-9.505,21.238-21.238C-163.159,733.96-172.664,724.44-184.398,724.44z
				 M-181.226,738.882c0.832,0,1.504,0.671,1.504,1.503c0,0.831-0.672,1.503-1.504,1.503s-1.519-0.672-1.519-1.503
				C-182.743,739.553-182.058,738.882-181.226,738.882z M-188.053,739.033c0.832,0,1.503,0.671,1.503,1.503
				s-0.671,1.518-1.503,1.518c-0.831,0-1.503-0.686-1.503-1.518S-188.884,739.033-188.053,739.033z M-184.398,742.523
				c1.75,0,3.172,1.422,3.172,3.172c0,1.752-1.422,3.173-3.172,3.173c-1.752,0-3.172-1.421-3.172-3.173
				S-186.149,742.523-184.398,742.523z M-178.454,745.378c0.832,0,1.504,0.671,1.504,1.502c0,0.832-0.672,1.504-1.504,1.504
				c-0.83,0-1.502-0.672-1.502-1.504C-179.956,746.049-179.285,745.378-178.454,745.378z M-189.554,746.013
				c0.832,0,1.504,0.672,1.504,1.504s-0.672,1.504-1.504,1.504c-0.831,0-1.502-0.672-1.502-1.504S-190.385,746.013-189.554,746.013z
				 M-184.16,749.819c0.831,0,1.503,0.672,1.503,1.504c0,0.83-0.672,1.502-1.503,1.502s-1.503-0.672-1.503-1.502
				C-185.663,750.491-184.991,749.819-184.16,749.819z"/>
		</g>
		
			<linearGradient id="path3687_2_" gradientUnits="userSpaceOnUse" x1="1598.6387" y1="1192.6949" x2="1598.6387" y2="1206.255" gradientTransform="matrix(0.4363 0 0 0.5044 -460.3321 88.6351)">
			<stop  offset="0" style="stop-color:#666666"/>
			<stop  offset="1" style="stop-color:#88AA00"/>
		</linearGradient>
		<path id="path3687" fill="url(#path3687_2_)" d="M243.972,693.241c0,2.102-3.053,3.805-6.818,3.805
			c-3.765,0-6.817-1.704-6.817-3.805c0-2.101,3.052-3.805,6.817-3.805C240.92,689.436,243.972,691.14,243.972,693.241z"/>
		<path id="rect3711" fill="#668000" fill-opacity="0.9961" d="M228.466,691.367h17.239c0.975,0,1.765,0.79,1.765,1.765v0.116
			c0,0.975-0.791,1.765-1.765,1.765h-17.239c-0.975,0-1.765-0.791-1.765-1.765v-0.116
			C226.701,692.157,227.491,691.367,228.466,691.367z"/>
	</g>
</g>
<rect x="43.5" y="-160.5" stroke="#FFFFFF" stroke-miterlimit="10" width="100" height="50"/>
<g id="layer1_1_" transform="translate(-69.913 -610.36)">
	<g id="g3746_1_">
		<path id="rect2844_1_" fill-opacity="0.9961" d="M267.624,477.97h77.364l-0.1,12.781l-15.96,1.019l-42.614-0.42l-14.606-1.619
			l-1.478,0.12l-2.656-0.48L267.624,477.97L267.624,477.97z"/>
		<g id="g2881_1_" transform="translate(-1.0161 -3.0483)">
			<path id="path2848_1_" fill="#1A1A1A" fill-opacity="0.9961" d="M286.128,490.711c0,4.567-3.07,8.27-6.857,8.27
				s-6.857-3.702-6.857-8.27c0-4.567,3.07-8.27,6.857-8.27S286.128,486.145,286.128,490.711z"/>
			<path id="path2846_1_" fill="#800000" fill-opacity="0.9961" d="M284.615,490.711c0,3.56-2.394,6.446-5.346,6.446
				c-2.951,0-5.346-2.886-5.346-6.446s2.395-6.446,5.346-6.446C282.221,484.265,284.615,487.151,284.615,490.711z"/>
			<path id="path2873_1_" fill="#999999" fill-opacity="0.9961" d="M279.267,485.025c-2.603,0-4.714,2.546-4.714,5.684
				c0,3.139,2.111,5.681,4.714,5.681s4.711-2.542,4.711-5.681S281.87,485.025,279.267,485.025z M279.97,488.887
				c0.186,0,0.334,0.18,0.334,0.402s-0.148,0.403-0.334,0.403c-0.184,0-0.336-0.181-0.336-0.403S279.787,488.887,279.97,488.887z
				 M278.456,488.928c0.185,0,0.333,0.18,0.333,0.401c0,0.222-0.148,0.406-0.333,0.406s-0.334-0.184-0.334-0.406
				C278.122,489.107,278.272,488.928,278.456,488.928z M279.267,489.86c0.389,0,0.703,0.38,0.703,0.849s-0.314,0.848-0.703,0.848
				s-0.703-0.38-0.703-0.848S278.878,489.86,279.267,489.86L279.267,489.86z M280.585,490.625c0.185,0,0.334,0.179,0.334,0.402
				s-0.149,0.401-0.334,0.401s-0.333-0.179-0.333-0.401S280.401,490.625,280.585,490.625z M278.123,490.794
				c0.185,0,0.333,0.18,0.333,0.402c0,0.223-0.148,0.402-0.333,0.402s-0.333-0.179-0.333-0.402
				C277.79,490.974,277.939,490.794,278.123,490.794z M279.32,491.812c0.185,0,0.334,0.18,0.334,0.403
				c0,0.222-0.149,0.402-0.334,0.402s-0.333-0.18-0.333-0.402C278.987,491.992,279.135,491.812,279.32,491.812z"/>
		</g>
		<path id="rect2869_1_" fill="#88AA00" fill-opacity="0.9961" d="M296.298,460.908c-11.137,0.039-13.147,1.982-20.29,5.518
			c-1.443,0.713-3.52,1.906-4.579,2.527l-0.101-0.004l-9.119,1.047c0,0-0.304,3.055-0.386,4.582
			c-0.082,1.526-0.107,4.578-0.107,4.578l-1.159,0.679l0.755,4.411l-0.254,0.764l1.009,2.965l8.106,1.815
			c0-0.047-0.003-0.094-0.003-0.141c0-5.878,3.607-10.646,8.054-10.646s8.051,4.767,8.051,10.646c0,0.507-0.027,1.003-0.079,1.49
			l0.452,0.037c0,0,19.374-0.007,30.927,0.413c3.354,0.123,7.354,0.052,11.346-0.11c-0.228-1.352-0.257-2.792-0.046-4.257
			c0.834-5.792,5.064-9.742,9.445-8.824c4.361,0.913,7.23,6.303,6.438,12.063c2.216-0.187,3.605-0.321,3.605-0.321
			s-0.299-0.888-0.266-2.752c0.033-1.864,1.102-2.924,1.092-4.669c-0.009-1.748-1.845-1.952-1.845-1.952l0.175-3.394
			c0,0-0.401-1.557-3.803-2.549c-3.4-0.993-16.603-3.401-16.603-3.401l-2.153-0.097c-2.067-1.455-5.891-4.152-7.128-4.902
			c-4.63-3.235-7.013-5.255-21.534-5.518l0,0L296.298,460.908z"/>
		<path id="path2831_1_" fill="#4D4D4D" fill-opacity="0.9961" d="M300.339,461.96c-9.189-0.644-17.39,2.875-22.666,6.879
			l1.309,3.172l42.442,0.768C317.89,467.567,310.107,462.643,300.339,461.96L300.339,461.96z"/>
		<polygon id="rect2840_1_" opacity="0.4" fill="#88AA00" fill-opacity="0.9961" enable-background="new    " points="
			293.513,462.225 293.691,462.195 295.379,472.071 295.2,472.1 		"/>
		<path id="rect2864_1_" opacity="0.4" fill="#88AA00" fill-opacity="0.9961" enable-background="new    " d="M269.645,475.341
			h2.639c0.379,0,0.686,0.37,0.686,0.826v1.74c0,0.457-0.307,0.826-0.686,0.826h-2.639c-0.378,0-0.685-0.37-0.685-0.826v-1.74
			C268.96,475.711,269.267,475.341,269.645,475.341z"/>
		<path id="path2882_1_" fill="#CCCCCC" fill-opacity="0.9961" d="M346.892,477.106c-0.846,0.028-2.251,0.424-2.472,1.066
			c-0.296,0.867,1.606,2.746,2.228,2.719c0.6-0.025,0.654-1.076,0.771-1.645l0.1-2.01c-0.01-0.012-0.021-0.02-0.033-0.03
			C347.393,477.129,347.174,477.096,346.892,477.106L346.892,477.106z"/>
		<path id="path2890_1_" fill="#CCCCCC" fill-opacity="0.9961" d="M262.107,471.053c-0.096,1.028-0.232,2.555-0.284,3.526
			c-0.06,1.113-0.09,3.016-0.101,3.977c1.28-0.145,2.39-0.454,2.704-0.855C265.066,476.882,263.501,473.111,262.107,471.053
			L262.107,471.053z"/>
		<path id="path2896_1_" fill="#AA0000" fill-opacity="0.9961" d="M261.811,474.822c-0.052,1.131-0.078,2.838-0.089,3.734
			c1.28-0.145,2.39-0.454,2.705-0.856c0.321-0.411,0.086-1.568-0.404-2.878H261.811L261.811,474.822z"/>
		<path id="path2917_1_" opacity="0.4" fill="none" stroke="#000000" stroke-width="0.7307" enable-background="new    " d="
			M321.431,472.909c2.073,2.571,1.966,4.792,1.966,8.581c0,3.536-0.672,6.869-1.86,9.802"/>
		<path id="path2903_1_" opacity="0.4" fill="none" stroke="#000000" stroke-width="0.7307" enable-background="new    " d="
			M299.157,491.204c-0.393-0.541-0.77-1.11-1.125-1.706c-3.191-5.34-4.647-12.942-2.832-17.281"/>
		<path id="path2849_1_" fill="#4D4D4D" d="M271.169,469.015c0,0,3.179-1.858,4.684-2.664c1.547-0.83,8.088-3.732,8.088-3.732
			l0.07,0.169c0,0-5.711,3.067-6.752,3.612c-1.01,0.529-5.415,3.258-5.415,3.258L271.169,469.015L271.169,469.015z"/>
		<path id="path2855_1_" fill="#4D4D4D" d="M326.136,471.402c0,0-4.414-2.862-7.174-4.707c-4.732-3.164-8.788-4.288-8.788-4.288
			l-0.352,0.551c0,0,6.188,3.435,7.771,4.75c1.583,1.315,5.345,4.707,5.345,4.707s0.535,0.1,1.582-0.169
			C325.642,471.959,326.065,471.402,326.136,471.402L326.136,471.402z"/>
		<path id="path2857_1_" fill="none" stroke="#000000" stroke-width="0.2436" d="M263.651,473.9c0,0,22.917,0.452,34.339,0.848
			c11.423,0.396,34.198,1.527,34.198,1.527"/>
		<path id="path2866_1_" fill="none" stroke="#000000" stroke-width="0.2436" d="M283.306,480.585
			c8.394,0.317,19.408,0.608,21.03,0.608c2.251,0,25.39,0.678,25.39,0.678"/>
		<path id="path2859_1_" fill="none" stroke="#000000" stroke-width="0.2436" d="M261.716,479.327c0,0,9.776,0.593,12.73,0.849"/>
		<path id="path2868_1_" fill="none" stroke="#666666" stroke-width="0.2436" d="M260.521,480.261c0,0,2.882,0.454,5.134,0.594
			c2.038,0.127,5.979,0.254,5.979,0.254"/>
		<path id="path2870_1_" fill="none" stroke="#000000" stroke-width="0.2436" d="M284.716,481.363c0,0,11.463,0.35,13.994,0.424
			c2.885,0.085,30.946,0.593,30.946,0.593"/>
		<g id="g2886_1_" transform="translate(599.5 -5.0805)">
			<path id="path2888_1_" fill="#1A1A1A" fill-opacity="0.9961" d="M-255.606,492.503c0,4.568-3.07,8.27-6.857,8.27
				s-6.857-3.702-6.857-8.27c0-4.567,3.07-8.269,6.857-8.269S-255.606,487.937-255.606,492.503z"/>
			<path id="path2891_1_" fill="#800000" fill-opacity="0.9961" d="M-257.12,492.503c0,3.561-2.393,6.446-5.345,6.446
				s-5.345-2.885-5.345-6.446c0-3.56,2.393-6.446,5.345-6.446S-257.12,488.944-257.12,492.503z"/>
			<path id="path2893_1_" fill="#999999" fill-opacity="0.9961" d="M-262.467,486.817c-2.603,0-4.714,2.546-4.714,5.685
				c0,3.139,2.111,5.681,4.714,5.681s4.71-2.542,4.71-5.681C-257.757,489.362-259.864,486.817-262.467,486.817z M-261.764,490.679
				c0.185,0,0.334,0.18,0.334,0.402c0,0.223-0.149,0.402-0.334,0.402s-0.337-0.18-0.337-0.402
				C-262.101,490.859-261.948,490.679-261.764,490.679z M-263.277,490.72c0.185,0,0.333,0.18,0.333,0.402s-0.148,0.406-0.333,0.406
				s-0.333-0.184-0.333-0.406S-263.462,490.72-263.277,490.72z M-262.467,491.653c0.388,0,0.703,0.38,0.703,0.848
				c0,0.469-0.315,0.849-0.703,0.849c-0.389,0-0.704-0.38-0.704-0.849S-262.856,491.653-262.467,491.653z M-261.148,492.417
				c0.185,0,0.333,0.179,0.333,0.401c0,0.223-0.148,0.402-0.333,0.402s-0.333-0.179-0.333-0.402
				C-261.482,492.596-261.333,492.417-261.148,492.417z M-263.61,492.587c0.184,0,0.334,0.179,0.334,0.402s-0.15,0.402-0.334,0.402
				c-0.185,0-0.334-0.18-0.334-0.402S-263.795,492.587-263.61,492.587z M-262.415,493.605c0.186,0,0.334,0.18,0.334,0.403
				c0,0.222-0.148,0.401-0.334,0.401c-0.184,0-0.332-0.18-0.332-0.401C-262.747,493.784-262.599,493.605-262.415,493.605z"/>
		</g>
		
			<linearGradient id="path3687_3_" gradientUnits="userSpaceOnUse" x1="1737.1006" y1="763.8971" x2="1737.1006" y2="767.5247" gradientTransform="matrix(0.4363 0 0 0.5044 -460.3321 88.6351)">
			<stop  offset="0" style="stop-color:#666666"/>
			<stop  offset="1" style="stop-color:#88AA00"/>
		</linearGradient>
		<path id="path3687_1_" fill="url(#path3687_3_)" d="M299.077,474.75c0,0.563-0.677,1.018-1.512,1.018
			c-0.836,0-1.512-0.456-1.512-1.018s0.676-1.018,1.512-1.018C298.4,473.733,299.077,474.188,299.077,474.75z"/>
		<path id="rect3711_1_" fill="#668000" fill-opacity="0.9961" d="M295.638,474.249h3.824c0.217,0,0.391,0.211,0.391,0.473v0.031
			c0,0.261-0.175,0.473-0.391,0.473h-3.824c-0.216,0-0.391-0.212-0.391-0.473v-0.031
			C295.247,474.46,295.422,474.249,295.638,474.249z"/>
	</g>
</g>
</svg>
